/* XPM */
static char *_364a652e09f4cfcc72a6bf68e8bb81fMlSahP7TAXyLpwVA[] = {
/* columns rows colors chars-per-pixel */
"64 64 232 2 ",
"   c #050403",
".  c #090705",
"X  c #070905",
"o  c #0A0A06",
"O  c #0D0C0A",
"+  c #140F06",
"@  c #110E0C",
"#  c #171302",
"$  c #1E1C07",
"%  c #14110E",
"&  c #1A140E",
"*  c #1C190D",
"=  c #161411",
"-  c #1C1611",
";  c #1D1A12",
":  c #1F1A1A",
">  c #21180D",
",  c #211711",
"<  c #231C13",
"1  c #291E15",
"2  c #211E19",
"3  c #2C1E18",
"4  c #2D280B",
"5  c #352707",
"6  c #3A3605",
"7  c #252115",
"8  c #2B2216",
"9  c #2D2917",
"0  c #25221C",
"q  c #2D231A",
"w  c #2D291B",
"e  c #312317",
"r  c #32251B",
"t  c #342818",
"y  c #342A1D",
"u  c #3B2B1D",
"i  c #3D311E",
"p  c #2A2622",
"a  c #2D2A22",
"s  c #2C2928",
"d  c #342C21",
"f  c #3B2E21",
"g  c #332E28",
"h  c #343124",
"j  c #3D3324",
"k  c #393528",
"l  c #3B362B",
"z  c #3D392C",
"x  c #343130",
"c  c #3A3531",
"v  c #3E3A32",
"b  c #422F1E",
"n  c #463715",
"m  c #412F22",
"M  c #443424",
"N  c #483526",
"B  c #443A26",
"V  c #4A3C26",
"C  c #443629",
"Z  c #493629",
"A  c #443B2B",
"S  c #4B3C2B",
"D  c #523E2B",
"F  c #433D32",
"G  c #4B3F33",
"H  c #413D38",
"J  c #583F30",
"K  c #4C480A",
"L  c #534402",
"P  c #5C550A",
"I  c #5C5808",
"U  c #625B07",
"Y  c #695D13",
"T  c #6B6608",
"R  c #6D650B",
"E  c #72650B",
"W  c #746C0B",
"Q  c #786A09",
"!  c #7A730A",
"~  c #6B6413",
"^  c #716C13",
"/  c #7B7617",
"(  c #4B4026",
")  c #46402D",
"_  c #4C412D",
"`  c #54432E",
"'  c #5A442D",
"]  c #584A2E",
"[  c #464234",
"{  c #4B4334",
"}  c #4C4936",
"|  c #45423A",
" . c #4B443A",
".. c #4D493A",
"X. c #544433",
"o. c #5A4632",
"O. c #534935",
"+. c #5B4B34",
"@. c #534639",
"#. c #544C3B",
"$. c #5B4D3B",
"%. c #5C5237",
"&. c #55523C",
"*. c #5C523C",
"=. c #65462B",
"-. c #664834",
";. c #634C34",
":. c #624D3B",
">. c #645135",
",. c #6E5136",
"<. c #63533C",
"1. c #6B533A",
"2. c #65593E",
"3. c #6C593C",
"4. c #75543A",
"5. c #725C3B",
"6. c #4F4640",
"7. c #4D4A41",
"8. c #534D43",
"9. c #5C4E42",
"0. c #575244",
"q. c #5B5343",
"w. c #5D5944",
"e. c #56524B",
"r. c #5C554B",
"t. c #5E5A4C",
"y. c #585751",
"u. c #5F5B52",
"i. c #625442",
"p. c #695541",
"a. c #645A45",
"s. c #6B5A44",
"d. c #61564A",
"f. c #645B4C",
"g. c #6A5C4B",
"h. c #715746",
"j. c #715D44",
"k. c #795D41",
"l. c #725F4A",
"z. c #635C53",
"x. c #6A5E53",
"c. c #665F5A",
"v. c #6D6246",
"b. c #66614C",
"n. c #6B634D",
"m. c #73634D",
"M. c #7A6548",
"N. c #7A654E",
"B. c #666255",
"V. c #6C6354",
"C. c #6E6954",
"Z. c #66635A",
"A. c #6B645A",
"S. c #6E695C",
"D. c #746553",
"F. c #786751",
"G. c #746A55",
"H. c #7B6B55",
"J. c #716759",
"K. c #746C5C",
"L. c #7B6C5A",
"P. c #76755D",
"I. c #7C715C",
"U. c #6C6764",
"Y. c #6E6860",
"T. c #746D63",
"R. c #796E61",
"E. c #757263",
"W. c #7C7364",
"Q. c #7C7965",
"!. c #76736A",
"~. c #7B746B",
"^. c #7D796B",
"/. c #7F7970",
"(. c #89760C",
"). c #927A0D",
"_. c #826D55",
"`. c #866F58",
"'. c #8D7053",
"]. c #83725C",
"[. c #88765B",
"{. c #8B745C",
"}. c #827463",
"|. c #897562",
" X c #847A64",
".X c #8B7B63",
"XX c #817769",
"oX c #847B6A",
"OX c #8C7D6A",
"+X c #927D64",
"@X c #947F6B",
"#X c #827C71",
"$X c #8A7F73",
"%X c #8D850D",
"&X c #9B8A0D",
"*X c #8A8511",
"=X c #888315",
"-X c #958915",
";X c #9B9314",
":X c #9C9318",
">X c #A5940F",
",X c #A89917",
"<X c #B7A816",
"1X c #BDAA26",
"2X c #ACA035",
"3X c #85826E",
"4X c #8C826D",
"5X c #95836B",
"6X c #9B866B",
"7X c #9A846C",
"8X c #8C8372",
"9X c #888676",
"0X c #8B857A",
"qX c #928573",
"wX c #998673",
"eX c #968974",
"rX c #9C8B74",
"tX c #948B7B",
"yX c #998B7A",
"uX c #94927C",
"iX c #9E927F",
"pX c #A18D74",
"aX c #A98F77",
"sX c #A4937C",
"dX c #AB967D",
"fX c #8F8881",
"gX c #958D82",
"hX c #988E80",
"jX c #9C9486",
"kX c #A79886",
"lX c #A09C92",
"zX c #B2A18C",
/* pixels */
"u.G.r.v | [ u.%.A ;.] ` ` ` ;.;.X.S $.a.. o @ O < . @ . . . O r . . . .   . . @ . < @ . = O @ @ @ @ % < & O O o O & % @ d.$.$.G ",
"A.r.t.} z ) B.O.` ` ;.;.D ` 5.o.X.X.j $.  @ - @ O @ O @ 2 r r % O , r r u M O , - r , O & O @ = @ @ > 1 , O 3 o o @ O - g.@.G C ",
"B.F Z...&.) A._ X.3.] S >.` 1.<.` D B X.. @ O @ @ @ @ < X.O O O @ 3 m f J o.O 3 < m 2 O . O O O @ @ > 3 , O @ d = - & - g.D $.Z ",
"f...W.B.A } K.S ) o.;.` >.+.o.>.o.3.{ G o O & @ % = & 8 O.O @ O @ 3 S S j.o.O d < z q O O = , = = O % e O O % - < < = , z.$.9.G ",
"w.a.Z.w.&.} f.A A ` %.;.>.S ] ;.>.+.+.S   @ @ % = % < 8 o.O O O @ e C D ;.o.1 r 8 Z r O @ @ 2 O . % = 0 r - O % - 3 = - e.G 9.X.",
"#.W.tXv } *.G.+.<.' _ 3.+.O.>.+.j.j.O.X.o O @ = = % * 0 { O ; O % < y g o.-.q r e B q O @ @ * @ . - ; y j S   < t & = , r.h.@.f ",
"w.w.n.| &.O.G.2.M.+.d A %.&.#.i.a.{.A i.  % & % % % < 8 ` O @ O % 1 Z f.;._.- 3 % h w X @ O = o . - - r % B . % O 3 = < d.@.p @.",
"&.%.B.#.} a.0.%.v.%.%.i.a.O.b.C.j +X .O.  O & * % % ; 8 ` O O @ , 1 J ' ' 4.3 d 7 k w O @ = * @ X & O O = S   % & r - 3 6.8.o.r.",
"v.a.r.} } } I.` +.;.z ; % O O @  .wXs.g.. @ X ; * o < 8 ` O % X , e f D -.=.f 3 0 N q O O & ; %   - O O @ V X % < r - < r.8.r. .",
"} C.b...#.A m.<.2.2.*.; ; a a a z .XD.#.. o @ O % % * 0 X.O ; @ e M J J o.o.O 3 < d q O O X = X X ; ; q @ V X - < ' O * 9.9.D.A.",
"G.3XB.} O.&.G.<.3.N.i.z k z [ #.F 5X9.$.  @ o O % O % w ` O < @ 8 q d  .k.J < r < M 0 O O O ; o   ; ; w @ _ X 8 < o.O ; 8.d.a.R.",
"^.S.B.} } %.n.<.O.X.N.v.} w.a.&.F +Xq.H.o   o % O O % 7 ` O < O e N -.-.o.4.3 3 < y q O @ o * o   - @ % O ] O < y 3.O ; d.8.Z.oX",
"C.W.A.&.O.&.W.$.<.2.m.0 = = ; 2 g iX#.r.  % j O O % % w O.O 8 @ e Z N D o.-.m 3 < q y +.O o < o X ; % q % ` o ; 3 G O 1 0. .!.z.",
"a.E.A.w.n.#.0X]..XrXn.0 a = = @ g 8X#.f.  y B _ O % % w X.O < @ r m o.o.,.4.@ S O 8 M ) O O ; o   ; 7 d % +.o 7 Z M O , q.F A.z.",
"^.K.Q.q.V.F.K.rXH.H.S.[ 0 z x 2 v W.[ O.X w q O.< < & q X.@ < O 3 u o.-.-.4.< Z O < S { O o ; o   < ; q % ' O ; q S O - J.r.@.z.",
"z.tX X[ V.L.XX Xw.kX..t.0.} S.0.v tXF a.  * h = ; ; @ y o.O ; @ - 8 p 0 4.-.q S o 7 B ) O o ; o X ; ; w % +.O < f * O & gXV...y.",
"L.8X~.I.E.G.8XW.D.m.L.L.J.K.C.Q.[ .Xg.G   o % - y % % w O.O % @ 3 u -.Z h.=.e N O q B C O . % .   < % % - <.O < f C O - T.r. .{ ",
"A.XXtXt.L.J.W.rXOXH.OXV.f.C.C.C.n.3Xq.... @ 7 y * 7 % y X.@ 7 % 3 y ' o.-.1.O N o q B B O X @ X   ; O O % >.O < j C O q q.9.d.9.",
"lXfXtXq.J.}.uXf._.m._.5X$.i.g.H.b. . Xf.O - e - 0 ; @ y o.O % % 8 u 1.` 9.,.1 Z O 2 C G O - < -   < & q % ;.O < f S O ; f.@.C 8.",
"Y.B.S.t.F.OX}.{.a.F.,._.N.s.H.wX%.n.#.A o O @ O 7 = @ y O.O O o t y J k.-.Z u 1 < r M B o = < =   < 2 j A ;.O 3 j S O ; r.@. .g.",
"E.Q.Q.Q.d.V.tXm.N.].5Xs.j.j.$.v._.X.O.} o & X O y & @ h O.% r O j y ] S 5.' & > 3 1 M o.o.O O O   < , f C +.O e j Z O 1 r.q.K.~.",
"9Xu.Q.n.F.D.qX7X_.m.N.M.+X_ 5X].%.{ k { . = % @ < ; @ w O.% < % 8 V V V ' * O < r q x :.+.o = @ - y y e f 8 O e M M O < d.F  .c.",
"E.~.3XV.n.L.R.H.H.N.'._.N.s.<.s.O.<.) A . % O @ y ; % y X.% = % & & & & y q O r 3 y s X.D o.@ @ Z O O @ O O r @ d f o @ d.G d.oX",
"E.u.S.a.m.R.OX].].s.rXm.M.M.N.C.%.O.) k . % d O 7 _ O w O.% @ < @ @ o O . O O m r S M X.:.:.% M Z 8 1 r y 3 3 r < d f O 8. .8.y.",
"C.t.Q.n.n.a.oXH.H.{.; ; @ = = O ; ) z j . % = C 8 y O y +.X O X O @ o O o O O < e p x S D o m M m d f f m d d 3 q , 3 e d...F 6.",
"S.S.t.&.D..XqX].@XL.W.: 0 w 0 k k G.) ) . @ @ @ O o ; 0 o o % X @ @ X B _ X o < d N x ;.X.& u Z u 1 u , 1 C r - f : , , XX9.z.r.",
"K.V.C.w.D.i.A..X+X].k A k a k A z b.) ) O 0 O % * < % @ o o O o O O o q j $.O 3 f r d X.X.u u 3 1 @ % 1 , 1 m < % y , % U.9.6.r.",
"b.0.Q.a.V.J.qXkXg.G.D.V.&.<.b.C.9 C.&.) ,   @ = @ o   < i < < * & O o O r S O 3 O 3 B S @ - , < @ m D N Z m < % O X a - ~.q.r. .",
"n.f.A.C.a.*.~.:.K.L.g.#.[ #.F F w Q.h A     @ = O o i t w b * * & < O O & A O X.O q f , - @ @ @ 3 p.;.@ m M -.O @ @ r q jXF 8.d.",
"n.t.K. XK.P.J.d.m.K.a.2 - ; ; 2 k C.*.z     @ = O * < < j y B V < % % o 8 O.O X.O 3 2 3 , - - @ N J @ 3 , r X.% @ 2 y q d.@.$...",
"E.A.E.*.L.L.8XD.D.F.s.k 7 q 0 2 A ].w.{ = X O = o - q 7 7 b y ] ` > % o O O < ' @ < e 3 < O @ O m N , - < @ J o 1 , 8 q r.@.z.z.",
"^.T.E...R.eXR.K.l.a.D.d } k { ..} oXm.O.O q % @ % % q u +.;.B k.5.' % q < :.O o.@ e r = < @ @ O d D - , 1 @ s.% > . q q z.q.9.z.",
"9XE.t.{ 9.].kXdX@XH.{.q.g.F p.H.F qXf.G . % V % 8 < 3 3 D M M 1.5.u - , f 9.< o.O - < O - % % @ d o., q < % >.=   . y r J.d.r.@.",
"U.Z.oXq.d.D.zX}.l. .@.. .     . @.W.F.}.. & S @ y 8 q y = c y ,.,.8 - X.j y o.$.@ % & @ % O @ O f 1.- f , @ o.  % 3 y p R.~.x.G ",
"/.Y.A.J.q.$.aXzXrXzXm.; - d g p F 5X8.9.u & Z @ < < 3 3 < H D ,.;.r < p.q - s.:.% % 8 @ = & @ O j ;.= M ; & >.. 8 - q r d.d.6.r.",
"!.Z.e.r.@.l.OX:.o.l.pXg.g.H.}.$XW.qXF $X+ m o.@ 3 , r r Z M u 4.;.q 8 3 , i.M :.% % 7 * - - O O S ` = 7 7 % p.= =   e q x.r.r.9.",
"Y.U.y.oX8.9.K.a.L.F.h.}.|.J.wXJ.J.D.x. .  @ N @ 1 < q r S 2 m S X.e 8 < y s.s.:.% O 7 * ; * @ o z B O 7 < % +.%     f d z.G i.e.",
"A.A.E.z.D.D.W.m.l._.|.D.}.d.}.g.g.d.x. .. @ y @ 1 > m u = H Z 1.{.S e 1.d , $.i.% O q < ; < O O A X.% 7 & % A   O r u d J.@.8.H ",
"V.z.z.n.C i.gX$XqXwXyX$XyXjXyXhXhX0X0X0X8 O f @ 3 < m u ,.M ` M.4.M y 4.M 3 p.:.% % w < 7 7 @ O A O.% w - @ O.O q & r d $XT.~.c.",
"{ B.T.O.L.9.].l.i.{.h.H.H.kXI.5XL.x.f.f.  D f % e < 3 3 N V N o.S u < < y p.k.i.% % q < 7 7 O @ _ %.& < = @ O.- % . a d c.J.z.G ",
"Z.E.B.r.*.i.}.{.%.{.G.D._.x.z.m.i.d.z.d.  = ' % q - u 3 ` q j Z o.u q < t <._.<.= O y 2 B 7 @ O O o % 9 i y 8 w 2 q y a B.r.r.g ",
"7.Z.S.H.8.a.oXD.{.5X* - - = = = = J.V.8.u , D & 8 < r q - c C { X.M - i t ` ;.+.= % y 8 8 7 o % % 7 7 z ) %.< 7 w d z 7 x.9.8.r.",
"Z.Z./.oXi.rXkXsXaX`.[.: 2 p p p v oX9.6.  f j < t y i 8 B l B %.] +.; 8 & O.j.<.% @ r 8 q 7 O % & 9 7 B z 3.S @ S @ : ; oXd.u.H ",
"!.U.3XA.G.D.sX$.kXH.0 { { k z k F jXA.F -   O , t r B 8 F B f $.%.% % q j p.% s.% % y w q < O o < M 8 z [ &.s.7 j y ) = oXd.c.Z.",
"#XY.^.w.L.L.8X].n.pXf.g.0.} w.V.7.eXr.9.@ r @ 1 e u q 9 7 w t _ O O 8 _ _ 8 ; +.% % u q q @ * < @ 7 * w y O @ O j 7  .= #Xd.z.U.",
"S.Y.^.B.B.].8XpXH.pXa.w.) 0 a z z 3Xr.f.@ u O 3 8 b < o t k j o O O j X.O % % _ @ % u q Z q ; ; M % * q 8 O % O j ;.y = z.fXg.A.",
"S.S.A.#.#.x.}.|.rXsX..: = = = = v OX3X .o y @ ` q u w   o j % O O 2 S o O % % O % % y 8 S y r < < i 8 > @ % ; j 3.@ = 3 x.d.r.c.",
"3X9X9X7.D.W.eXL.G.{.Q.k 0 h s 2  .jXOX0.@ y = S r u < X O y ; % % B a.w i V O O & % y 1 B 7 < u o y ' S % * j 5.o o f e A.L.d.9.",
"B.a.!.L.S.I.~.J. XOXG.d.[ A } z 7.L.[ ..% j @ Z d b y . @ 8 ; % & k %.j _ o.- @ = @ r 3 S 3 < f o M < @ u u o.  , M B y A.9. .6.",
"V.W.lXK.A. XgXkXwXyXD. Xa.0. .B.z n.q.&.@ i % C d b 8   o w ; @ O < S O % @ @ O & & d 3 M , e < o 7 > y J D % e Z S r , W.r. .9.",
"^.E.uX&.b.L.gXtXyXOXK.  X X   X k uXb.)   8 & M f b 8 . O w 2 O V z $.& % * @ O & % r 3 S < 2 1 . < m M O @ * 3 S 3 < @ e.d.r.z ",
"G.E.E.w.f.J.!.oX@XqXyXa : : 0 p z G.C.O.    & M r M r   O w 7 O 9 9 k % = - @ @ - = u 3 S u r 3 . , m ` O % % b V O @ e e.r.e.G ",
"E.Y.Q.b.C.n.^.pXeXW.kX5XG.W.G.P...Q.K.&.    < f q M j . O < q O ( B &.8 q w S % , = r e D & % - , < C D O @ = r S S M d ~.6.8.Y.",
"^.Z.9Xb.0.3X5XkXzX5XrX+X].m.a.*.4X) ; *.    < y t M = O d q q @ 9 y ) % = = @ $.- @ d 3 S 3 3 3 3 1 u N @ , @ e S S j e T.e.8.r.",
"b.Q.S.&.b.a.W.OXsX+X5X`.H.s.eXv.m.%.%.}     @ X.1 b u O % - % O ; 0 h o % , @ :.% @ r @ f & - , < , < m O @ @ 1 N r y - c.c.c.y.",
"&.!.gXQ.0.%.rXrX$.dX_.A l.j.{.H. Xn.s.h     % V , 8 - O @ & & r r w M O @ @ O J @ O < O r % % = - , < u O @ @ , u o . . U.z.z.u.",
"t.U.3Xr.g.m.XXH.D.+Xl.l.o.l.:.i.%.O.v.A s g.q.OX].E.].A F.]. X^.I. XL.[  XqXZ.t.O.qXC.e.9.I.|.+Xm.F.D.F.}.9XV.f.H.v.*.0.T.T.e.y.",
"Z.Z.Q.P.L.5XOXH.'._.j.j.X.<.X.<.O.O.m.) a q.$.l.w.*.H..Xd.}.].D.].OXm.8XeX.XG.C.i.r.D.B.d.kXa.l.i.s.i.I.iXyX].<.<.O.a.a.~.R. .7.",
"t.S.E.C.K.I.I.H.3 +.p.6X<.+.X.+._ S z A 0  .<.s.l.i.g.].{ 8XoXq.`.f.m.a.s.E.tX0.0.O.#.t.J.jXX.<.i.*.w.%.L.{.*.m.s.i.s.*.z.c.Z.8.",
"!.Z.E.Q.m.n. XS m.1.X.$.X.O.+.%.O.O._ [ a  .n.c.m.<.| z.b.r.O.%.A [.H.w.I.s v G. .Z.| {  .7.| a.8.| [.D.#.z 7.i.i.e.H.a.A.@. .F ",
"} T.S.0.^.a.2X$ & % E U -X7 * % <X*X! Y * * n *X*XR : * % ;XT *X$ X % ~ ,X;X,X$ % % W E -X* * % <X,XW ~ * 9 6 *X*XW 7 * % %XU ).",
"^.S.f.B.I.&.s o ; T P ).  o % R 1X! ;X7 9 n I E ^ - o % ! I T 5 O   P W W %X% o > W (.(.o o % -X1XE ;Xq 9 4 P ^ -X8 % O W U T % ",
"B.A.3X8.3Xm.x w &X<X&X# @ & Q (.T -XX   4 K ;XI w # % T / ^ 7 ; % 4 I >X;XO * w ;X<X>X# o % ~ ).T =Xo o 4 K >XI i % % T / ~ % o ",
"j a.^.7.Q.n.c P L T @ . . -XE %X! @ o # P I W o ; o 6 T I # o = 6 W :XY % O & P L T @ o o =XI %X/ # % # I I W o % o 6 E I # o @ "
};
