/* XPM */
static char *_cf10834793042aead1eac3981dd9735d01IrsSkWBytp8lx[] = {
/* columns rows colors chars-per-pixel */
"64 64 255 2 ",
"   c #FF000000",
".  c #0A0402",
"X  c #0C0A03",
"o  c #040508",
"O  c #0D0B0A",
"+  c #120B03",
"@  c #170806",
"#  c #10110D",
"$  c #15110C",
"%  c #1A1709",
"&  c #1B150B",
"*  c #171813",
"=  c #260603",
"-  c #370706",
";  c #27180B",
":  c #241B0D",
">  c #38180C",
",  c #241D11",
"<  c #291D15",
"1  c #3A1D13",
"2  c #1E2016",
"3  c #24210D",
"4  c #2B210E",
"5  c #39270A",
"6  c #272416",
"7  c #2C2414",
"8  c #342513",
"9  c #352915",
"0  c #3C2B15",
"q  c #372918",
"w  c #3C2D1B",
"e  c #2E381F",
"r  c #3C331A",
"t  c #393518",
"y  c #372B23",
"u  c #3C3425",
"i  c #37312B",
"p  c #490607",
"a  c #570507",
"s  c #5E0002",
"d  c #441108",
"f  c #55170C",
"g  c #5B0D16",
"h  c #481812",
"j  c #5A1813",
"k  c #630003",
"l  c #660707",
"z  c #6D0003",
"x  c #740003",
"c  c #7C0003",
"v  c #770508",
"b  c #67140B",
"n  c #72170B",
"m  c #730B12",
"M  c #651712",
"N  c #46250E",
"B  c #55280F",
"V  c #422D15",
"C  c #462B18",
"Z  c #45341B",
"A  c #48351A",
"S  c #55361B",
"D  c #623A1A",
"F  c #723114",
"G  c #521E23",
"H  c #443421",
"J  c #463727",
"K  c #4C3B24",
"L  c #45332B",
"P  c #4C3C2B",
"I  c #563B27",
"U  c #533C24",
"Y  c #6E3226",
"T  c #683C24",
"R  c #3A4135",
"E  c #50411B",
"W  c #784915",
"Q  c #4C4228",
"!  c #594426",
"~  c #55442C",
"^  c #5A442B",
"/  c #5B4433",
"(  c #5B4A33",
")  c #5A4937",
"_  c #5B5037",
"`  c #624124",
"'  c #67472A",
"]  c #764B2A",
"[  c #714E2F",
"{  c #7C542A",
"}  c #634C34",
"|  c #674C38",
" . c #665237",
".. c #6C553C",
"X. c #755839",
"o. c #7E623D",
"O. c #5A554A",
"+. c #684E42",
"@. c #6C5743",
"#. c #755B46",
"$. c #686A4D",
"%. c #7A6244",
"&. c #7A634B",
"*. c #7C6753",
"=. c #830002",
"-. c #8B0003",
";. c #860A07",
":. c #85010B",
">. c #8C000A",
",. c #940003",
"<. c #9B0004",
"1. c #980906",
"2. c #9B000A",
"3. c #871703",
"4. c #991606",
"5. c #891013",
"6. c #A50003",
"7. c #AB0005",
"8. c #A80309",
"9. c #B80006",
"0. c #B4000A",
"q. c #A71A09",
"w. c #B81B08",
"e. c #B10F16",
"r. c #882709",
"t. c #992907",
"y. c #9A3608",
"u. c #8E2F19",
"i. c #893B17",
"p. c #AD2F0F",
"a. c #B92808",
"s. c #A93908",
"d. c #B73809",
"f. c #88362C",
"g. c #BE2529",
"h. c #C50106",
"j. c #D80007",
"k. c #D3000D",
"l. c #CE0E12",
"z. c #E70009",
"x. c #E90A16",
"c. c #C6390B",
"v. c #CB2E12",
"b. c #F02A18",
"n. c #CE1623",
"m. c #ED0A26",
"M. c #CC2631",
"N. c #F92A32",
"B. c #93470D",
"V. c #965B14",
"C. c #B6450A",
"Z. c #AD4A13",
"A. c #976518",
"S. c #9D741D",
"D. c #AC661A",
"F. c #95552E",
"G. c #875A37",
"H. c #B25832",
"J. c #906B31",
"K. c #AF6C31",
"L. c #C5490C",
"P. c #C8530E",
"I. c #D8560C",
"U. c #CF4A10",
"Y. c #C95712",
"T. c #D55612",
"R. c #E45B0E",
"E. c #E85016",
"W. c #CB6714",
"Q. c #D96517",
"!. c #E56815",
"~. c #F06C16",
"^. c #FA6916",
"/. c #CE6D2A",
"(. c #EE732F",
"). c #8A5645",
"_. c #846C4E",
"`. c #886A4D",
"'. c #966C4D",
"]. c #836B55",
"[. c #866A57",
"{. c #896E5B",
"}. c #86715B",
"|. c #8C735D",
" X c #96785A",
".X c #B37248",
"XX c #AF5A6B",
"oX c #986A6D",
"OX c #8C7362",
"+X c #8F7866",
"@X c #947B64",
"#X c #967B65",
"$X c #A87870",
"%X c #F14F56",
"&X c #CC774F",
"*X c #F2734C",
"=X c #AF8D1C",
"-X c #B6882E",
";X c #DA8F31",
":X c #E98536",
">X c #F58533",
",X c #D0AB3A",
"<X c #AE8C5F",
"1X c #99826A",
"2X c #8B867B",
"3X c #998475",
"4X c #A0866D",
"5X c #A38A6E",
"6X c #A48B71",
"7X c #A98E74",
"8X c #A38A7A",
"9X c #AC9277",
"0X c #CE944F",
"qX c #F08F4F",
"wX c #F1AF4F",
"eX c #D1936B",
"rX c #FD976D",
"tX c #D7A271",
"yX c #FAAB73",
"uX c #DAC445",
"iX c #E6CF4E",
"pX c #EDD176",
"aX c #BE7E87",
"sX c #B79C83",
"dX c #ABA7A2",
"fX c #E7B88A",
"gX c #EBB5B9",
"hX c #E4C7A2",
"jX c #FEC4BA",
"kX c #D2D3CD",
"lX c #FECACB",
"zX c #FAD9CA",
"xX c #EBD3D1",
"cX c #FADDD3",
"vX c #DAE6DA",
"bX c #EDEBDB",
"nX c #FDE4DA",
"mX c #F6DCE1",
"MX c #DDFCEF",
"NX c #E9E5E4",
"BX c #FCEBE9",
"VX c #EBF9ED",
"CX c #F8F5EB",
"ZX c #FDF2EC",
"AX c #F6ECF1",
"SX c #FDEEF5",
"DX c #FDEEFB",
"FX c #ECFAF3",
"GX c #E8F8FA",
"HX c #FF000000",
"JX c #FBF3F5",
"KX c #F2F9F2",
"LX c #F3F4FB",
"PX c #FCF3FC",
"IX c #F8FBFA",
/* pixels */
"HXHXHXHXHXHXHXHXHXHXHXHXHXHXHXHXHXHXHXHXHXHXHXHXHXHXHXHXHXHXHXHXCXf BXHXHXHXHXHXHXHXHXHXHXHXHXHXHXHXHXHXHXHXHXHXHXHXHXHXHXHXHXHX",
"HXHXHXHXHXHXHXHXHXHXHXHXHXHXHXHXHXHXHXHXHXHXHXHXHXHXHXHXHXHXHXHXCXk BXHXHXHXHXHXHXHXHXHXHXHXHXHXHXHXHXHXHXHXHXHXHXHXHXHXHXIXHXHX",
"HXHXHXHXHXHXHXHXHXHXHXHXHXHXHXHXHXHXHXHXHXHXHXHXHXHXHXHXHXHXHXHXHXp BXHXHXHXHXHXHXHXHXHXHXHXHXHXHXHXHXHXHXHXHXHXHXHXHXHXHXHXHXHX",
"HXHXHXHXHXHXHXHXHXHXHXHXHXHXHXHXHXHXHXHXHXHXHXHXHXHXHXHXHXHXGX:.x z cXSXCXHXGXPXHXHXHXHXHXHXHXHXHXHXHXHXHXHXHXHXHXHXHXHXHXHXHXHX",
"HXHXHXHXHXHXHXHXHXHXHXHXHXHXHXHXHXHXHXHXHXHXHXHXHXHXHXKXHXHXh l x :.nXHXKXKXHXCXHXHXHXHXHXHXHXHXHXHXHXHXHXHXHXHXHXHXHXHXHXHXHXHX",
"HXHXHXHXHXHXHXHXHXHXHXHXHXHXHXHXHXHXHXHXHXHXHXHXHXHXHXGXPXmXz >.=.:.a l :.;.M 6 HXIXHXHXHXHXHXHXHXHXHXHXHXHXHXHXHXHXHXHXHXHXHXHX",
"HXHXHXHXHXHXHXHXHXHXHXHXHXHXHXHXHXHXHXHXHXHXHXHXHXHXHXNXAX<.-.6.2.k =.,.j.j.8.1 i ZXHXHXHXHXHXHXHXHXHXHXHXHXHXHXHXHXHXHXHXHXHXHX",
"HXHXHXHXHXHXHXHXHXHXHXHXHXHXHXHXHXHXHXHXHXHXHXHXHXHXHXsXz c >.v.w.-.x =.0.h.9.v c cXHXHXHXHXHXHXHXHXHXHXHXHXHXHXHXHXHXHXHXHXHXHX",
"HXHXHXHXHXHXHXHXHXHXHXHXHXHXHXHXHXHXHXHXHXHXHXHXHXKXkX< p s :.L.C.9.=.c 6.7.9.2.,.HXHXHXHXHXHXHXHXHXHXHXHXHXHXHXHXHXHXHXHXHXHXHX",
"HXHXHXHXHXHXHXHXHXHXHXHXHXHXHXHXHXHXHXHXHXHXHXHXHXAX& : 0 h p C.T.*X6.0.<.-.,.8.n bXHXHXHXHXHXHXHXHXHXHXHXHXHXHXHXHXHXHXHXHXHXHX",
"HXHXHXHXHXHXHXHXHXHXHXHXHXHXHXHXHXHXKXHXKXZXFXPXZXa h p n b n I.!.(.a.9.9.<.<.6.v CXHXHXHXHXHXHXHXHXHXHXHXHXHXHXHXHXHXHXHXHXHXHX",
"HXHXHXHXHXHXHXHXHXHXHXHXHXHXHXHXHXHXHXHXSXHXIXPX1 =.=.,.z.h.L.>X>X:XC.b.z.7.:.,.,.HXHXHXHXHXHXHXHXHXHXHXHXHXHXHXHXHXHXHXHXHXHXHX",
"HXHXHXHXHXHXHXHXHXHXHXHXHXHXHXHXHXHXHXFXPXHXBXY b 9.6.7.h.c.Q.:X:XqXa.l.z.7.,.-.l nXHXHXHXHXHXHXHXHXHXHXIXHXHXHXHXHXHXHXHXHXHXHX",
"HXHXHXHXHXHXHXHXHXHXHXHXHXHXHXHXHXHXHXKXHXBXv 8.7.j.h.9.C.C.(.,X,XrXn.j.z.9.<.-.f R HXHXHXHXHXHXHXHXHXHXHXHXHXHXHXHXHXHXHXHXHXHX",
"HXHXHXHXHXHXHXHXHXHXHXHXHXHXHXHXHXHXKXHXCXI C.,.<.-.,.<.j.w.P.:X,XiXwXwXE.E.v.j.<.l ZXHXHXHXHXHXHXHXHXHXHXHXHXHXHXHXHXHXHXHXHXHX",
"HXHXHXHXHXHXHXHXHXHXHXHXHXHXHXHXHXHXHXPXKX> C.q.2.k =.,.z.l.I.>XqXuXiXiX(.!.v.z.h.;.BXVXHXHXHXHXHXHXHXHXHXHXHXHXHXHXHXHXHXHXHXHX",
"HXHXHXHXHXIXHXHXHXHXHXHXHXHXHXHXHXHXHXHXHX> Y.P.s.k c s.I.I.!.rXwXiXiXiXyX(.R.R.D.B.>.BXPXHXHXHXHXHXHXHXHXHXHXHXHXHXHXHXHXHXHXHX",
"HXHXHXHXHXHXHXHXHXHXHXHXHXHXHXHXHXKXHXSXHXd Y.P.s.3.y.P././.0XtXfXpXpXpXyX:X!.Y.D.A.,.g vXPXDXPXHXPXHXHXHXHXHXHXHXHXHXHXHXHXHXHX",
"HXHXHXHXHXHXHXHXHXHXHXHXHXHXHXHXHXDXGXHXgXl I.P.P.~.(.(.rXfXcXnXbXxXnXzXyXqX>XA.S.S.2.g O.kXkXGXHXFXHXHXHXHXHXHXHXHXHXHXHXHXHXHX",
"HXHXHXHXHXHXHXHXHXHXHXHXHXHXHXHXCXHXcXh i.s.U././.R.Q./..X1X1X1X2X1X3X3X/././.A.A.A.t.e.5.p p p = # HXHXHXHXHXHXHXHXHXHXHXHXHXHX",
"HXHXHXHXHXHXHXHXHXHXHXHXHXSXSXHXHXCXp z d.P.Y.K..XD.H..X$X#X1X#X1X1X1X.X&XK.-XS.S.A.B.w.h.-.c v = $ # VXAXGXHXHXHXHXHXHXHXHXHXHX",
"HXHXHXHXHXHXHXHXHXHXHXHXHXSXHXMXVXa v s.C.C.D.'.`.'..X#X1X6X9X9X9X9X9X9X1X X1X'.'.`.{ u.-.c.a.c x - O O.HXHXHXHXHXHXHXHXHXHXHXHX",
"HXHXHXHXHXHXHXHXHXHXHXHXHXKXDXcX9.=.3.Z.Z.F.'.`.OXOXOX#X1X5X9X7X9X9X9X9X1X#X+XOX|.].).i.v Z.Z.x c a @ @ kXPXHXHXHXHXHXHXHXHXHXHX",
"HXHXHXHXHXHXHXHXHXHXHXHXHXZXPX&Xy.d.B.B.S ~ ].`.OX*.OX#X1X1X6X4X3X6X7X8X3X#X+XOX}.].&.#.I ` I F 7.<.z = o +XHXHXHXHXHXHXHXHXHXHX",
"ZX2XNXAXAXKXHXHXHXHXKXAXVXFXeX4.d.Z.i.D S ( *.].}.{.|.#X1X6X5X6X5X5X5X5X5X1X|.|.}.[.#.#.Q K S B.a.8.=.a - @ HXHXHXHXHXHXAXHXHXKX",
"ZXu $ O HXHXHXHXHXHXHXKXXX5.q.y.d.B B t P ( *.*.{.{.|.#X6X6X6X6X5X7X5X5X5X1X+X|.}.[.&.@.P C A B.Z.s.-.7.<.# HXHXHXHXHXo O O O.P ",
"i J L P i o HXHXAXHXBXHX6.7.t.a.I.N N Z I ^ *.].{.`.|.1X7X7X7X7X7X7X7X7X7X#X+X|.].].%.#.I C r V /.c.<.6.=.@ HXHXHXHXdXO * L P 9 ",
"HXL ) O.L . . X + X nX0.6.8.q.d.W.5 9 r U ^ ].]._.{. X1X9X7X7X7X7X7X7X7X6X1X|.OX{.*.&.@.U 0 9 8 W.U.>.2.:.. . HXIX$ $ X * _ J y ",
"KXHXZXAXvX< P P ~ ) _ ).&.).#.).] 1 9 r  ...#X1X#XOX}.*.&.%.@.&.#.#.#...#.@X1XOX#X#X{.*.( C 0 8 Q.Q.@.X.)..._ ~ Q J P w H T : KX",
"HXKXHXHXHXO.| } } @.@.&.[.*.#.#.( 9 8 Z ^ P ) X.X.%.*.*.*.&. .U I P ..@.[.|.|.).X.../ / Q Z r 4 D.A.@.@.*.@.#.@.) +.| 8 7 q bXHX",
"HXHXHXCXHXkXcX@.~ ~ / +._ +./ _ +.q 8 A H u u I ` ] o.}.|.|.&.w C w `.{.+X|.].{ ] I H y V U A 8 G.O.I +.+.@.| / / / ) # kXkXGXHX",
"HXHXHXHXHXHXHXZX) ~ P H K I I P  .q 8 8 u J M j M C Q ^ P J H ( _ ) P H P ~ ~ A B M a h u 1 7 0 K P I P I u J ~ ..) BXCXKXHXHXHX",
"HXHXHXHXHXHXPXHXbX^ Q r t A Z U  .Z 9 3 H S :.v a 3 w C 7 , 6 $.$.$.3 % ; V r , d z s d e : 2 r 8 V S A A C C / *.HXHXHXHXHXHXHX",
"HXHXHXHXHXHXKXFXcXh n :.N 9 7 q K 2 * E e.e.k.0.,.x p > 8 7 r S K K 0 0 4 > d l =.<.<.<.l.Y L * 7 7 6 9 8 :.>.m C FXHXHXHXHXHXHX",
"HXHXHXHXHXHXHXHXAXg :.6.f < 2 0 9 $ :  .n.m.m.l.2.1.f = < 9 Z 8 w 9 Z q 7 = p ;.q.7.6.9.n.[ | * 3 7 7 , > -.<.c SXKXHXHXHXHXHXHX",
"HXHXHXHXHXHXPXCXvXf.Y.P.3.k y.i.7 w Z  .%X%X%XyXpXwXK.w 1X`.8 .   . 8 U  XU S iXwXpXl.N.%X{ T w 6 - l z v L.x.7.. HXHXHXHXHXHXHX",
"HXHXHXHXHXHXDXKXbXu.w.q.4.r.s.B.: w Z ! f.f.Z.;XuX=X{ _ [ ) $ .     $ 8  .} [ S.=X-X9.e.f.T S Z : 1 r.3.t.T.b.9.$ HXHXHXHXHXHXHX",
"HXHXHXHXHXHXSXKXxXm k.<.1.Z.Z.F 3 0 0 N > 5 i.D.A.W { ].A 7         . + A `.'.F B.B.,.l 6 A 0 C : 5 s.c.U.!.b.h.$ IXHXHXHXHXHXHX",
"HXHXHXHXHXHXSXAXHXq.w.a.a.C.s.F 7 ( ^  .V S ] G.G.{ { ..K q           O w X.X.V.{ { M M A | } ^ ; N r.D.(.*XN.j.v HXHXHXHXHXHXHX",
"HXHXHXHXHXHXGXSXHXv.C.I.~.Q.Z.F 7 %._.].` ` ..o.X.[ ' _ r 9           + 9 ~ } ` X.%.! ` T '.`._.; h y./.*X%Xm.z.z.HXHXHXHXHXHXHX",
"HXHXHXHXHXHXHXHXHX6.q.I.(.:X0XK.7 %._._.A U ..%.o.] [ ( H w           O Z ^  .[ X.o.` S S [.`.`.; B C./.0X*XN.z.9.KXHXHXHXHXHXHX",
"HXHXHXHXHXHXKXSXHX,.2.I.(.:XqX.X6 X.o.X.S S ! ( ' S `  .~ Q 2 y y 6 6 6 Q ' ' S ` ! S S U `.#.X.% B I.;X:XqXN.j.7.FXHXHXHXHXHXHX",
"HXHXHXHXHXHXKXDXHX=.;.C.U.R.:X&X9 [ ] F.] [ 4 % : 8 A  .} ..}.sXsXsX+X&. .! ~ 5 < : 0 S ] G.{ ] X B ^.^.!.T.b.j.:.FXHXHXHXHXHXHX",
"HXHXHXHXHXHXKXDXcXk ,.v.U.R.(..X3 ^ ! ! I K * 3 : 0 E  .} ..o. X X XX.#. . .} t 9 3 7 8 U T ' ! % B ^.^.~.Y.b.0.nXPXHXHXHXHXHXHX",
"HXHXHXHXHXHXVXSXvXg ,.0.v.T.>X.X% 9 9 7 & # . * 3 Q  .o...[ D ` ' ` D ^ ..#.X.! K % X $ $ 7 8 w 5 S ^.!.I.L.9.h SXCXHXHXHXHXHXHX",
"HXHXHXHXHXHXFXHXHXG <.0.,.q.^./.K.; % + + X O & 7  ._.5X6X6X'.|.'. X{.|.5X7X X..~ , + # O $ $ : W i.d.L.p.<.6.HXHXHXHXHXHXHXHXHX",
"HXHXHXHXHXHXHXHXHXxX-.6.<.<.R.T.D.; $ $ X X # : 8 ) #.|.@X@X].*.*.*.].]. X X}. .~ * $ O O O $ & i.s.d.y.t.7.m nXHXHXHXHXHXHXHXHX",
"HXHXHXHXHXHXSXKXAXIXv =.c =.<.9.7.N 6 # # # * w K 4 5 V 8 8 Z 9 V C C w 8 q 9 8 8 w X + $ X $ q B.y.s.1.-.v BXIXPXFXHXHXHXHXHXHX",
"HXHXHXHXHXHXHXHXHXHXBXcX=.2.h.9.7.b B = = = p C A 3 , 7 A S ! 7 7 8 ^ ` A 1 , ; 4 V ; = @ = - B y.s.p.l l SXHXHXHXHXHXHXHXHXHXHX",
"HXHXHXHXHXHXHXHXHXHXGXHX$X9.j.k.I.6.-.s l -.9.F w .   & G..XtXX o + hXyXG.:     % S y.3.k s x L.d.r.-.d < HXHXHXHXHXHXHXHXHXHXHX",
"HXHXHXHXHXHXHXHXHXHXSXKXHXf.0.0.c.q.1.3.k l 5.5 ; @ . O ' J.5X@   X fXtX] & . @ ; w Z.y.4.n 3.C.q.q.4.f NXPXHXHXHXHXHXHXHXHXHXHX",
"HXHXHXHXHXHXHXHXHXHXHXHXHXHXnXc -.p.C.Y.z p S = @ p @ + 5 B D .     X.] V + @ p - 6 qXqX^.R.U.y.<.2.d.IXHXHXHXHXHXHXHXHXHXHXHXHX",
"HXHXHXHXHXHXHXHXHXHXHXHXHXDXFXc k.L.c.0.x c <.g.g.h.p o . X +       + + + . + 0.e.M.x.e.l c <.x.=.- ZXHXKXHXHXHXHXHXHXHXHXHXHXHX",
"HXHXHXHXHXHXHXHXHXHXHXHXHXHXAXcXk.c.v.8.x =.9.N.m.9.p X o                 . = 9.l.N.n.l.x c <.m.k ZXFXHXHXHXHXHXHXHXHXHXHXHXHXHX",
"HXHXHXHXHXHXHXHXHXHXHXHXHXBXGXBXv j.z.z.h.:.S G.] @ < H   .             o u G @ > { $ a 0.k.k.-.nXGXGXHXHXHXHXHXHXHXHXHXHXHXHXHX",
"HXHXHXHXHXHXHXHXHXHXHXHXHXKXHXIX$X,.7.9.7.v W -XJ.5 I } o O , o     < &   / | - s q.a z 6.7.<.$XHXHXFXHXHXHXHXHXHXHXHXHXHXHXHXHX",
"HXHXHXHXHXHXHXHXHXHXHXHXHXHXHXHXPXoXc =.-.3.V.uXuXV.G.#.  $ U O o   _ L o O.).:.h.j.<.-.=.x oXAXHXHXHXHXHXHXHXHXHXHXHXHXHXHXHXHX",
"HXHXHXHXHXHXHXHXHXHXHXHXHXHXHXHXHXHXHXz x s 4 [ ] f F.tX| ~ @.o   . &.).) tX&Xx n 5.- a z HXHXHXHXHXHXHXHXHXHXHXHXHXHXHXHXHXHXHX",
"HXHXHXHXHXHXHXHXHXHXHXHXHXHXHXHXHXHXHXaXk p O J S a F.tXF.'.#.O   . ].'.F.eXeXs h U BXDXZXHXHXHXHXHXHXHXHXHXHXHXHXHXHXHXHXHXHXHX",
"HXHXHXHXHXHXHXHXHXHXHXHXHXHXHXHXHXHXHXIXBX@ 3 L J k B ^ m i.eX[ ! ` tXeXb Y U s h vXHXHXKXHXHXHXHXHXHXHXHXHXHXHXHXHXHXHXHXHXHXHX",
"HXHXHXHXHXHXHXHXHXHXHXHXHXHXHXHXHXHXHXHXHXX 3 i L a d > p r.rXH.H.H.fX&Xk h d a C GXAXHXHXHXHXHXHXHXHXHXHXHXHXHXHXHXHXHXHXHXHXHX",
"HXHXHXHXHXHXHXHXHXHXHXHXHXHXHXHXHXHXHXHXHXCXkX< ; r f x v =.2.l g z 8.1.c k a H NXHXHXHXHXHXHXHXHXHXHXHXHXHXHXHXHXHXHXHXHXHXHXHX",
"HXHXHXHXHXHXHXHXHXHXHXHXHXHXHXHXHXHXHXHXHXAXNX6 ; Z B g M M M f g h n M f f f kXHXHXHXHXHXHXHXHXHXHXHXHXHXHXHXHXHXHXHXHXHXHXHXHX",
"HXHXHXHXHXHXHXHXHXHXHXHXHXHXHXHXHXHXHXHXHXKXFXCX: U A r t t A A K A A A t t BXKXHXHXHXHXHXHXHXHXHXHXHXHXHXHXHXHXHXHXHXHXHXHXHXHX"
};
