/* XPM */
static char *c03ceb99a5ce4d498a1a38e7da11b847Zd9CvgQsSBTfeePJ[] = {
/* columns rows colors chars-per-pixel */
"64 64 141 2 ",
"   c #020302",
".  c #060905",
"X  c #0A0C06",
"o  c #060709",
"O  c #070B09",
"+  c #0B0D0A",
"@  c #0D1006",
"#  c #0E110B",
"$  c #141806",
"%  c #12150C",
"&  c #151A0E",
"*  c #191D0E",
"=  c #0C0B11",
"-  c #0E1011",
";  c #131610",
":  c #161B11",
">  c #1A1E11",
",  c #1C210E",
"<  c #1D2213",
"1  c #1E2914",
"2  c #1F2319",
"3  c #1F2918",
"4  c #222E0E",
"5  c #212515",
"6  c #232B16",
"7  c #292E16",
"8  c #222619",
"9  c #252B1A",
"0  c #292E1B",
"q  c #263115",
"w  c #293216",
"e  c #293917",
"r  c #26321A",
"t  c #2B331B",
"y  c #2D391C",
"u  c #303B15",
"i  c #31361C",
"p  c #323B1D",
"a  c #3A3D1D",
"s  c #2D3421",
"d  c #2E3A22",
"f  c #323622",
"g  c #333B22",
"h  c #383E23",
"j  c #373C28",
"k  c #383D29",
"l  c #34411D",
"z  c #39441C",
"x  c #3C481F",
"c  c #364223",
"v  c #3A4324",
"b  c #334B21",
"n  c #3C4A24",
"m  c #3C432A",
"M  c #3D4A2A",
"N  c #3E512B",
"B  c #404727",
"V  c #434C26",
"C  c #40462C",
"Z  c #434C2C",
"A  c #4D4D2E",
"S  c #445425",
"D  c #44522C",
"F  c #4A542D",
"G  c #455A2C",
"H  c #4D5A2D",
"J  c #535F2F",
"K  c #464D32",
"L  c #454E35",
"P  c #4B4E33",
"I  c #484D3B",
"U  c #455431",
"Y  c #475035",
"T  c #445235",
"R  c #4A5132",
"E  c #4B5731",
"W  c #4A5035",
"Q  c #4C5334",
"!  c #4D5735",
"~  c #4A5932",
"^  c #4D5A32",
"/  c #4D5338",
"(  c #4E553B",
")  c #4D5F38",
"_  c #555C34",
"`  c #525A38",
"'  c #525D3B",
"]  c #555D3A",
"[  c #565D3A",
"{  c #5B5E38",
"}  c #46602F",
"|  c #4D622B",
" . c #4C6934",
".. c #536434",
"X. c #5A6134",
"o. c #5C6C36",
"O. c #536039",
"+. c #566738",
"@. c #576A3B",
"#. c #556C3A",
"$. c #5B6C3B",
"%. c #5D7232",
"&. c #606B3A",
"*. c #667C37",
"=. c #62763C",
"-. c #67763E",
";. c #67793C",
":. c #6D7C3E",
">. c #717B3F",
",. c #545B42",
"<. c #555C41",
"1. c #536042",
"2. c #596343",
"3. c #5A6246",
"4. c #5F6A47",
"5. c #626C45",
"6. c #616C47",
"7. c #636B49",
"8. c #616D4A",
"9. c #627645",
"0. c #677B45",
"q. c #697847",
"w. c #6E7A46",
"e. c #6F7F44",
"r. c #69764D",
"t. c #6D7B49",
"y. c #6F794B",
"u. c #717C4C",
"i. c #6B7253",
"p. c #6C823E",
"a. c #6D8340",
"s. c #6B8049",
"d. c #6E804E",
"f. c #748E46",
"g. c #71864C",
"h. c #778D48",
"j. c #7C9041",
"k. c #798B51",
"l. c #778A5A",
"z. c #778A5C",
"x. c #89A258",
/* pixels */
"v s : : 9 - ; 9 9 6 & : 9 + 5 % > 6 t : 7 # & 8 t , & 5 9 % t 0 n s > : 9 + 8 9 7 g 1 & < o > & > 6 9 > 9 > ; 2 > 5 : > i + f a ",
"r . v V s a 9 6 t . p c 9 > 8 ; &   9 i h s 8 > : . 9 n F v 8 < j X p v g g t 9 M   y v 6 < 9 & :   9 f f 9 9 : *   t z ! v 9 6 ",
"q 2 n 1.3.] s + q % G a.e.V 9 o & 2 0 L L F f . : 5 j V u.L m   y 5 m 4.r.t.j . 0 & n =.u.V t o : 8 0 P ! F f o > 8 i Z 2.m g o ",
"0 > z e.^ L k + < < H #.0.q.0 + : > > n C k C + > , m R +.B m + 9 & v -.@.<.m + : > n E =.d.i + > > > F R j C & , 8 V I _ C j + ",
"* . 0 Y 6.! >   % + v g.l./ Z . t + s ` ] k C   5 X A k.t.K f o & . 9 K 8.! > O % + f t.l.R n . f + 0 ' W g m o 8 > J k.u.K m . ",
"> <   + K     # 3 8   + C     + * 5   o m     & 5 >   + k     & > >   + Z     # 6 5   + m     % 8 f   X m     % s :   o m     : ",
"> 9 O f F & A # < 0 + 0 h # ' & % % o i h ; K % t 5 o i k + f % 2 9 o i _ % ] % 6 9 o 0 v + ..> : % o v   : V & g 8 + 9 f + g & ",
"9 X y w 0 k   > 6 + V t 0 m   3 < % J : t F   > 5 + m 7 5 f   & 6 + s 7 t m   8 6 + D t t K   1 9 % V 2 y !   5 d # V i 5 h . < ",
", q V 7.{ V & < & t 5 u.7.W # * t p F $.R S & 6 7 & i K M Z % & < < m ^ &.V & 5 : y 2 9.6.F # < y p k ..D v & f v * f V K n ; > ",
"& t 2 5 H % & t g , > 9 n & 6 < t 9 > 5 ^ > & & : : > % s : : & % 6 > 8 H % > t V 5 : 9 B & 5 & 9 0 & 0 S 6 % < 6 < : > s > > > ",
"v r % t B % i 6 , 0 & p y % & & h 9 % 0 m % < 5 : < + & i ; < % c 6 % 0 g % 7 0 a g : 0 i & & & p 0 % 0 B > 5 i t 0 % : g # 9 % ",
"1 e < # + > 6 9 & w > + + * < t 9 9 0 # + & 7 * * > & % X > < , > t , + X * 6 d 1 t 7 @ + > & < 0 6 5 # o & t * y > > % X > 3 3 ",
"1 d 9 9 < a ; < * * 6 6 < 5 % < 5 0 & > 7 5 5 7 % > * 7 < & 9 < < 9 9 3 ; t < < s 1 y , 5 0 % & t 0 : > t < 5 w % < , 7 6 > 9 6 ",
"t s r 1 3 g > 6 * v 7 t t t < t , < & , ; 5 ; $ ; > $ f < % < 9 3 1 6 6 8 p < 5 , g q 1 r g * 0 < 6 > 5 * 5 & * : 6 & 0 7 & 9 d ",
"r l l M M g , 6 6 5 6 > y < 6 y % 5 % i 5 , ; * : 0 > > & < > , 6 r r g n g < 6 t 6 9 > y < < 5 % 6 > c 0 5 1 2 > p > * 2 1 < q ",
"d r r N d * 1 5 < & 9 * < > < & 9 & * > > * ; * & 8 0 % < ^ < Y 6 1 < d 9 > < 6 6 > < & 2 & , % < > > > > * % , , * > % < ^ 1 ..",
"- O - ; # O # O @ + # # o + + + + X X + . X . X + + # # % + # % @ O + # @ # @ o + X + + X + # + o X O + O + + . O + X # # o & % ",
"s.N r r : b < l m g 3 g l -.t d 6 t y 9 6 q 0 l S q 7 v _ t.a h.@.n < 1 ; t < 6 c c < i q ..t q r y y 6 r w n d F w 4 p A o.g.x.",
"e M l : < < : , f 6 < 8 V > % < r < 6 3 < 5 6 8 6 5 D i y m i c 9 t 6 ; * * & * t 9 : 5 v * % , < 1 8 < 3 5 < > 6 6 7 7 5 h K M ",
"N s 3 : # c , 2 > 9 % 2 < 3 < * < r * 0 g 6 6 5 V < 0 6 5 t 3 B g 6 & > + e < > > 5 + 5 & 6 2 * * y * 5 p 6 5 5 v , 5 5 8 9 p p.",
"d l 3 N r 3 < & * < > & 2 e t 3 c 6 g 9 9 6 9 y 8 < i t 6 7 & < e 9 < g 3 * , & > > & % < i y 3 n r y < s 6 6 w t < i 5 5 6 * 8 ",
"> 3 b : r < , # & > ; 9 0 & i , 6 9 y 1 t m w t < > 0 f 6 g U i & 6 r $ 5 > & # % : & < 6 : 7 < 8 s y < 9 s n w 3 % 6 t 6 f ^ g ",
"r r r < 3 r 3 : > 0 * < 2 < 6 t D y y r t t 6 6 p 6 6 9 & 1 > 6 6 1 3 > > 8 6 : > s > > > 5 < d c M r r h s t 6 V y 6 9 % 9 6 p ",
"9 r l y r % < < & 5 5 % < * < < t d v 5 6 p < w 0 t t y < t 0 A < < 6 q 3 % * > : 5 < # > : * < 6 M N 9 e p < q r m v y 5 i d $.",
"d s r s y 3 < % : 3 < > N < < : r ..3 2 f t 9 c s 6 6 3 i 6 7 V q 5 9 9 g < < & > 9 , > N , 9 ; t 0.5 5 m t d m s 1 , 3 M t v H ",
"n b ) r y r < 3 < < 3 c * 6 > r t 6 M V n 6 w 2 q 9 < t p 5 * a D t M 3 y t 2 9 < 9 6 t , s < 6 t 9 V n  .d e 9 6 9 3 c n 0 5 n ",
"q b U ; < , 9 6 s 9 < g D r , > < 9 6 H 6 4 0 7 y y 6 % _ 5 < 6 q s U % 3 % s q f s t M M e < : < 9 5 V 5 q g t t 7 v & ] t t t ",
"M M } n & > > < > 5 6 t v < & % 9 V < $ i 6 9 6 0 t 0 H 9 0 < 6 y f n g & 3 < & 9 e 6 y c < 2 % < y & * l e M r t 9 h +.9 r 6 < ",
"v M M < 6 < 0 > < < v 9 y r & & d # 5 & 5 5 6 m 6 g 5 z < v p * c p y < 3 < y > 3 p y N g 6 * & 9 # 5 2 1 8 6 v t v t n > t a 2 ",
"V r t t * 3 q d t 6 y 5 9 t & 9 5 3 > 7 * 5 6 t 7 r : m < 9 7 p M 6 < 6 & r c 6 y c f S < q * < s 2 , 0 5 9 t 9 g 5 : M < 0 p q ",
"9 < t y < l t < 3 < c % ; : > 9 : < i > > < 7 7 , g 5 & * d w & 6 1 9 p 1 ^ r < 9 r c % & ; < 2 < < h 5 < 9 d r 5 m 1 , , v p * ",
"3 6 y 5 y g r 9 > * 6 6 & & & & & > 5 < % & < * d & v y , 6 y 5 9 , d 1 t d 6 5 1 1 6 l & < < & & 6 9 5 & > 6 < l * c t < q w 5 ",
"% # X X # # o X # # - @ + X # + X + % o # + o + + + + % % o % # % # X X + + + + + # # # # X + + + X % o % o + + # # X % # + # % ",
"S p.*.N M f.$.n p.%. .D 6 < Z 9 7 % i 5 6 6 t f 6 8 F z V S 0 n u o.:.M p ;...D o.v S p 5 9 h 7 t % i < f 5 p f < 2 M z ..| 4 z ",
"w 9 q 9 6 c 6 5 9 % p y n 1 < < & 5 : > 5 6 > i > d * > * 2 > > 9 9 5 6 9 c 5 e 6 > e b v r < > % < % * 2 t 5 h < y < < 6 8 6 > ",
"t < 6 f r > 6 % < 1 y 9 e r # * > 5 + 6 > # 9 8 9 D 3 6 6 & > 6 t 5 * i < 2 5 > > t e 9 6 9 % & * 2 % < > & 5 0 5 a 6 < < & < 5 ",
"* & % * 5 6 + # # > 3 6 3 3 < 1 g 6 2 < > & * & 6 > V g 5 5 5 ; & & % & & 6 + ; # 6 2 1 3 > > > 6 3 > 2 & & * & 6 5 m i 6 5 : : ",
"& 3 3 * 0 5 < : 9 9 * < < r r 1 < m y < > : 5 y 0 9 9 * & 5 & 7 : 5 & & 9 9 8 5 t m 5 3 & 3 1 > > i 7 < < & < 6 7 5 5 % > 5 & > ",
": 5 < g v v 6 & > : 2 3 , < 6 9 % & 9 6 1 3 0 e 7 > 2 0 > % & & > > > h g y q 9 6 < 3 < % * e 5 % % 6 9 < 9 * 6 g : > 6 : % > & ",
"5 * $ 5 * 5 5 3 < 6 > y , 9 # , < v c # 9 t t t 6 8 5 > > & > * 9 * & 9 , * g 9 9 6 > 6 > 2 & 6 < _ d + 6 y 6 6 t 5 5 & & > & > ",
"& 6 6 9 5 6 5 , > 0 ; Y 6 9 , > 0 g t d 9 6 m i i : 5 5 & 9 < & 1 9 5 9 5 , 7 , , 2 ; h 7 0 > < w t r 6 6 7 7 7 p * > 5 & > > & ",
"% 9 y 0 i * * i y < > E t 6 t * 6 0 t t M t , 2 5 > i % 5 6 > 3 & w g i h , 5 i m 6 5 i , 5 < 5 i t 0 t m k > * 7 5 7 % & 5 : : ",
"w 5 5 & 0 5 p 9 7 5 t 6 * < * & t 5 5 9 6 n < g 8 7 9 : 8 6 5 % n 6 , > 6 , w 9 7 f f 5 5 5 * & D 9 5 5 7 i , i 9 6 9 % > w > % ",
"& 3 * > * 5 i s % < , < < , > > 6 t 5 6 > * 6 , 9 > 5 0 < 5 2 3 3 q , > & 5 5 i < 6 6 > 5 > > 5 9 y 5 5 > & 5 & 9 : 5 6 & 5 > > ",
"& < 5 5 * h 5 & 6 & 6 7 > * % & < 6 : 1 e 9 < 9 % > , i < < 6 7 < r > > & i > < 5 & 5 , < > ; & 6 7 : > 5 , 5 t & > , 0 7 > > * ",
"6 2 5 < 9 g > > & < 4 6 9 , % * & > < 3 < r % * & 5 , f y $ 2 < 1 3 6 < > p > < & g 5 5 t 6 $ * & * : > > 0 ; * % 5 $ i 9 > : > ",
"8 2 t g M t < 5 , * 6 : 5 % & 5 % > & t < < 6 8 * y < , 2 < > < 6 3 r f t t : > 7 < * & w , > , & < & i 8 5 > * : t & 5 > < > 5 ",
"6 < & y 5 * 5 < < % 9 % % & % % : * % , < < # * * * < # 2 ^ > V 9 < * e 8 : 5 5 5 % 5 * & & > & > > & & > : % , * & 5 % 5 Z * t ",
"+ @ . # + + + o + . o + . . X + . . @ # o @ + X o + + + % X # % X X + # + + # + %   X X X X X + o + + + . + X O + o + + # X + + ",
"H f , < & l < 6 i 7 6 8 6 x 7 p < t n c q l g c D p 4 p { w._ j.o.l * 5 & y , 6 V u , 0 , v < v 6 y c 9 w t V V H p 6 m { $.z >.",
"< 9 5 * & : & & 7 > $ & i & % & ; < 8 6 , 1 9 > 9 8 h 9 9 V h y q y 5 * , * & > 5 7 & > f > % < < , 5 5 6 5 5 > 6 5 i 5 5 p p i ",
"v < & & # t * : % : % > & , * % ; r , 6 9 9 3 < 7 , 5 1 1 d 6 %.a < * & + p < < % 5 % , & : > > & 5 * t g * 5 5 v * 6 5 5 9 0 V ",
"7 < , y 3 > * $ + & % % ; 7 t & 6 6 M 6 6 5 5 0 9 > 7 5 5 7 * < r 9 * h 5 & < * % > > & > 7 9 > y < c 9 5 9 5 0 9 & i 5 8 7 * > ",
"$ * 8 & 1 > & # % % % 2 : & 9 & < s c q 6 5 v t 5 : 7 9 5 p m 6 % < t % 5 : * + % & % 5 , & 0 & 8 9 t , 5 i w t : % 9 5 5 i f 7 ",
"< * < & & 2 * & & > & & & < > 2 9 g t 6 7 i 6 6 m f y 6 % 8 9 0 6 < 1 & : : 5 : & 5 & , & > * 0 9 t 6 3 0 5 5 4 i 2 6 5 & 5 5 i ",
"< $ 2 < 5 % & & & & , + & & * & 8 9 G 8 t g < t 0 y t 6 6 i 9 F 3 * < < < % ; > % * 5 + & & & > 5 q v 6 6 5 * 5 9 i t 6 5 7 9 v ",
"6 > 5 8 t * * & & 7 < & t % > % 0 $.5 6 t 6 e y s > < : A 7 6 a 6 < 2 * 8 * > & * 3 3 & i > : & 9 _ & 5 t 5 f 9 5 * 5 > i , 0 B ",
"0 8 M 2 y 6 8 0 5 > < y % < & < 6 6 G ..V 6 7 , 9 1 < t l 7 < v g 8 M 6 r 5 2 3 < 6 & y : > > 5 9 5 i B a 8 i : > 8 5 0 a 7 , i ",
"6 6 v % < % 0 9 h 5 6 c 9 > > ; < t y { 5 4 t f g 6 6 * ..6 6 9 w 1 Z % < $ t 6 m 9 , 0 M 6 < : 5 t , V 5 5 9 0 5 i i @ P 7 0 6 ",
"% # % + o + + o o + + + + X o o + % + X # # % + # X # % + X + + % # % # + o O O O + + + % o + o + % O X + X % + % + + % + + + + ",
"# g 9 + + > 8 + + f 8 % + t > + + : 8 = # 9 8 ; # f 3 & + h 8 # # f 3 + + > 8 # + j 5 % # s 8 o + % 8 + o f > ; # h 5 & X f 8 # ",
"& 1.P > o ,.K : # P K 5 + i.9 & + ( C : # / C : # <.> 3   i.K < # K h & O 3.W > % W L : + i.f & + I j & . ,.k : o <.> < + 7.Z * ",
"% < Z > + f s # + k Z + + 8 s ; + s P ; # 2 Z & ; f f ; + K K % # f m 2 # j g : % 5 / o % 8 k : + f P & X m C : + C i + X h v & ",
"& & o : > = X ; > # + > % ; + o & + + % # % O ; : + + : % % + % : = # > < + O : : & . 8 % - o + % + + # + % + & ; ; % > & = X & "
};
