/* XPM */
static char *_54772b8a4a84f25ca5f58bb3485d972VjAmHyYwnum5MnhA[] = {
/* columns rows colors chars-per-pixel */
"64 64 250 2 ",
"   c #040402",
".  c #0A0502",
"X  c #0A0A05",
"o  c #080709",
"O  c #0C0C0B",
"+  c #170804",
"@  c #1B0C03",
"#  c #120D0C",
"$  c #0E100B",
"%  c #1B1606",
"&  c #12110E",
"*  c #1C150C",
"=  c #100E11",
"-  c #0E1011",
";  c #141412",
":  c #191514",
">  c #1B1B15",
",  c #161819",
"<  c #1C1C1B",
"1  c #28090B",
"2  c #251808",
"3  c #32100D",
"4  c #241C15",
"5  c #2B1A17",
"6  c #221D1C",
"7  c #361819",
"8  c #1D271A",
"9  c #1D211C",
"0  c #22220E",
"q  c #2C2717",
"w  c #23221D",
"e  c #2B241C",
"r  c #362919",
"t  c #383019",
"y  c #211E21",
"u  c #351C20",
"i  c #1D2121",
"p  c #242423",
"a  c #2A2625",
"s  c #252A25",
"d  c #2B2A25",
"f  c #25262A",
"g  c #252C29",
"h  c #2D2D2B",
"j  c #342422",
"k  c #3B2223",
"l  c #332B24",
"z  c #3B2F21",
"x  c #332E2C",
"c  c #3A2C2B",
"v  c #2E312D",
"b  c #2A392B",
"n  c #353225",
"m  c #3B3524",
"M  c #32332D",
"N  c #3C352C",
"B  c #393A28",
"V  c #3B3A2B",
"C  c #2D2F33",
"Z  c #352F32",
"A  c #2E3231",
"S  c #2F3831",
"D  c #343433",
"F  c #3A3534",
"G  c #353934",
"H  c #3A3A35",
"J  c #363639",
"K  c #363A39",
"L  c #3C3C3A",
"P  c #4B1416",
"I  c #471817",
"U  c #462819",
"Y  c #463F1B",
"T  c #5B3C14",
"R  c #633C18",
"E  c #4D1D26",
"W  c #521D24",
"Q  c #452726",
"!  c #55272D",
"~  c #47382D",
"^  c #573929",
"/  c #453333",
"(  c #433C35",
")  c #4B3836",
"_  c #423E3B",
"`  c #533838",
"'  c #643028",
"]  c #69373D",
"[  c #3D4235",
"{  c #3D413C",
"}  c #574E0D",
"|  c #4D4317",
" . c #584918",
".. c #624715",
"X. c #724815",
"o. c #47442B",
"O. c #5B4422",
"+. c #564826",
"@. c #5A532B",
"#. c #454335",
"$. c #4A4935",
"%. c #42423D",
"&. c #49453B",
"*. c #4B4A3C",
"=. c #524C3B",
"-. c #584838",
";. c #585539",
":. c #64562C",
">. c #6F522C",
",. c #665839",
"<. c #7B6E3E",
"1. c #3D3D41",
"2. c #433E41",
"3. c #483F42",
"4. c #5B3E43",
"5. c #653D42",
"6. c #3D4441",
"7. c #444442",
"8. c #4A4543",
"9. c #454943",
"0. c #4A4A45",
"q. c #45464A",
"w. c #4B454B",
"e. c #464B4A",
"r. c #4C4C4B",
"t. c #534343",
"y. c #524D45",
"u. c #594A45",
"i. c #514D4B",
"p. c #5A4C4B",
"a. c #4E5144",
"s. c #46534B",
"d. c #4E514C",
"f. c #545244",
"g. c #5A5443",
"h. c #52524D",
"j. c #5A544C",
"k. c #565C4D",
"l. c #5B5A4C",
"z. c #4D4E52",
"x. c #534E51",
"c. c #534B58",
"v. c #4C5451",
"b. c #4B5557",
"n. c #545452",
"m. c #5A5553",
"M. c #555954",
"N. c #5A5A55",
"B. c #56565A",
"V. c #59575A",
"C. c #555A5A",
"Z. c #5C5C5B",
"A. c #664546",
"S. c #655747",
"D. c #645B4A",
"F. c #73544E",
"G. c #625454",
"H. c #635B54",
"J. c #6A5E56",
"K. c #625D5A",
"L. c #765A59",
"P. c #5F6454",
"I. c #5E615C",
"U. c #67634A",
"Y. c #7A6644",
"T. c #6A6756",
"R. c #62625D",
"E. c #6B645C",
"W. c #746858",
"Q. c #7C7354",
"!. c #575A62",
"~. c #5C5D62",
"^. c #625D63",
"/. c #6A5D64",
"(. c #5C6462",
"). c #596864",
"_. c #556270",
"`. c #646463",
"'. c #6B6562",
"]. c #666A64",
"[. c #6A6A65",
"{. c #656569",
"}. c #6B6C6A",
"|. c #68686C",
" X c #756665",
".X c #726D6C",
"XX c #6E716E",
"oX c #767867",
"OX c #71716D",
"+X c #7C726C",
"@X c #656E75",
"#X c #6D6D72",
"$X c #736F75",
"%X c #6C7272",
"&X c #747373",
"*X c #757777",
"=X c #797573",
"-X c #797976",
";X c #7A7A7B",
":X c #91562B",
">X c #906C39",
",X c #A37239",
"<X c #8B544F",
"1X c #8B7949",
"2X c #967A48",
"3X c #867455",
"4X c #A5794D",
"5X c #94696A",
"6X c #8D7267",
"7X c #857E77",
"8X c #948452",
"9X c #A88442",
"0X c #B58846",
"qX c #AE9055",
"wX c #9B8766",
"eX c #8A877B",
"rX c #999478",
"tX c #AA926B",
"yX c #B8AA75",
"uX c #CC954E",
"iX c #C79F66",
"pX c #CBA566",
"aX c #7E7D81",
"sX c #867C82",
"dX c #7D8683",
"fX c #828383",
"gX c #8A8887",
"hX c #8A8B8A",
"jX c #958C87",
"kX c #8C928F",
"lX c #96948A",
"zX c #8E8B92",
"xX c #8F9495",
"cX c #939393",
"vX c #989796",
"bX c #9A9B95",
"nX c #9C9D9D",
"mX c #A7938A",
"MX c #A89C98",
"NX c #9CA39A",
"BX c #A1A29E",
"VX c #ACA69F",
"CX c #B6A296",
"ZX c #999EA3",
"AX c #A29CA5",
"SX c #A3A4A4",
"DX c #ABA8A7",
"FX c #AAB0B0",
"GX c #B5B6B3",
"HX c #C6C7C8",
/* pixels */
"n.~.~.~.~.!.|.aX;X$X&X#X|.*X#X#X#Xh.`.}.n.%.f.N.&X[.h.m.Z.Z.h.h.Z.R.w.L M.Z.R.N.[.r.[.}.}.Z.}.V.i..Xm.N.}.E.E.`.$X|.-Xw.aX$X~.&X",
"{.*X^.^.{.#Xw.w.7.K q.2.J L |.J }.N.}.OXN.%.9.M.r.r.%.M E.R.I.N.h.> w M h.J.I.[.}.N.&X.X-XL F M [.Z.7XG.E E ] E 4.i.@Xe.@XV.{.$X",
"~.|.$X!.q.!.V.K 7.D 8.7.7.2.^.G }.n.`.}.C.0.h.'.[.I.L F R.].}.m./ c c c ) ` / ~ k m.`.`..X< h h .XV.$Xp./ 7 U j t.i.`.w.^.~.{.#X",
"!.B.B.n.L `.r.G 7.M 9.7.9.r.[.J w.G G L N.7.0.0.%.H i.c [.`.[.+Xp./ c ` 4./ ` ` / _ n.n.7.r.B.fX`.V.`.t.E P ' P Q n.v.r.q.w.B.|.",
"!.!.#X~.r.}.n.%.d.H n.M _ n.B.L {.`.#X*XR.r.C.-X-X[.m.3. XL. XA.i.8._ m.p.i.8._ y.K.n.{.Z.7.^.-X`.Z.dX X5 1 3 5 t.r.C.w.|.&XaX{.",
"@Xb.J B.7.R.N.L r.H L d %.Z.].H `.}.&X;X-Xr.{.7.N.y. X/ W P ' I L.V %.M g h L d 8.p '._ H 8.V.*XK.Z.aX Xj Q ` j 8.n.`.z.&XJ V.B.",
"aX2.z.w.i.M.r.: G < w & & & V.> I.Z.sXr.x.B.L 6.L L r.d.W.'.'.[.i.Z.8.n.D K G r.7.V.K.}.D 0.^.n.r./.%XXXx u u 7 J.^.}.n.x.K 8.|.",
": O     O o o O X   o o o o   O X o O O     O o . # @ * # O O > ,   ;   #   O   O   O .   X O X . # O o o     o o - o o o O $ # ",
"n N { %.7.r.h D K 7.0.r.K r.h.7.N.#X&X].~.n.n.Z.V.g.@.q x L h H J h h J p p a h K D h h h A A d e ~ D h p a C J J e.2.D J w.%.n ",
"N %.G %.D ~.7.7.n.8.n.0.B.h.7.Z.C.D h a h p p f 6 r q q < s s p < h 9._ i.n.(.a R.O ; ; - ; - .X&.( 7.7.M.7.2./.x.{.V.M D 6.{ V ",
"m O O %.M w.D 0.r.7.7.9.r.7.L R.s ].o & O   o O o X X . .   O   O p 8.D h.M.M.{ n.H O # O - G K.~ J.4 j l 8.C.n.L N.h.d { < & $.",
"V L 7.%.M 7.D n.0.Z.w.H j.&.*Xp : w.r.R.Z.G %.*.%.#.o.B V %.7.K h.M 2.G n.d.m.%.9.M w.C.h._ G C.-.n @ + 2 e 7Xq.q.B.r.d K L H o.",
"N H L %.M r.h i.n.h r.H E.&.d < p w.h.I.M.L %.L M V [ t m G G v 0.h 9.J i.r.n.r.h.G w.Z.r.9.M m.^ e =.^ 1 -.8.q.9.B.i.M G L { #.",
"m _ %.%.h 7.h n.'.d h.( p.~ I.A _ r.i.N.N.%.L [ %.( o.t [ 9.%.7.h.D 7.h n.w.h.M.0.G r.M.n.w.G R.S.n p ^ ^ + ~ F n.B.8.d L 2.%.#.",
"M d v 7.Z q.L C.7.h `.y.y.J.h.D %.0.i.T.N.H q.0.a.a.o.$.[ N.`.z.h.M 7.h r.n.r.h.0.M r.Z.M.q.L R.,.V 8 6 Q R 2 N m.9.7.D L p d *.",
"#.K 9.7.h `.G `.8.h.R.h 4 ) N.h L 0.h.E.M.*.{ 0.9.f.$.;.t I.w.B.N.G 0.M r.h.h.n.7.G h.K.C.r.H K.S.H M < > t -.r %.B.%.N L %.L *.",
"[ 9.D w.M `.G }.n.9.J : x p.N.C %.r.N.E.N.7.L h.%.f.$.f.t s.7.C.N.D w.D x.h.m.7.0.G n.Z.Z.h.%.K.U.V t.B 8 8 n -.j.K._ %.F &.H #.",
"V %.7.9.h Z.D `.N.h 6 K x m.I.D L 0.r.N.d.{ 7.D h.0.*.=.n d L `.R.v 7.h r.n.n._ 0.F B.B.Z.0.x =.D.H 0.O. .8 h V 0.x.&.H H 0.*.%.",
"L L { 7.M [.h `.x < 7.%.M K.K.h ; r.; h > O 1.n.%.h.*.*.e M 9.B.M.h 7.x r.0.C.L h.G n.M.M.=.n ;.g.V $.| } $.w 9 L N.%.h %.0.{ G ",
"H H L 7.v d.h d.< G Z.%.l n.Z.h %.*.%.7.9.G L q.9.h.a.*.#.M h v.C.h { h 0.r.Z.L h.G M.I.E.$.t ~ D.F &.} } $.K.i h I.%.M { %.L H ",
"{ L 8.L s N.v w.h 7.C.%.l M.}.b.d.0.h.r.B._ 7.q.0.0.%.#.H h.R.N.M.M H h 0.0.C.L h.G C.h.h.#.B q D.M 0.} } ;.Z.L D ].7.H L { 0.G ",
"K w.r.7.J `.G 9.v 7.Z.%.h i.I.G M.L n.`.`.r.# p ; # X X 9 w ; 6 $ H [ v 7.r.`.&.M.G C.d.*.B n =.r v $.} } $.R.d.G [.h.G V n.h.K ",
"G 7._ 7.D `.L 9.x r.`.%.d d.`.D n.9.C.Z.x..XsX&X*X*.*.b.H $.*.r U d %.M d.d.Z.7.n.G Z.I.M.%.V P.d.G #.+.} | [.s.L OXw.H L d.8.G ",
"H L K H D n.G 7.H 7.`.K d N.`.C z.L d.B.2.vXZXkXM.#.$.9.d.f.R.O.T D %.v w.r.K.L i.D Z.M.h.%.v W.d.G *. .| @.I.h.L *X8.G L 7.7.F ",
"D G L K D `.H 7.h 7.DXcXf Z.I.n.cXK hXSX*X9.C.v.d eX7XgX{ k.l.O...d 7.h r.r.n.K M.D n.M.r.0.M [.d.M #.@.| o.T.0.H `.i.F H 7.L J ",
"F h p 7.h h.G 2.h D 9.nXvX0.].HXFXcXZXGXFXr.N x 9.eXjX/ [ k.P.| T d { v 0.d.h.L r.D n.r.n.0.G }.0.D $.@.@.,.D.8.H .X7.D L h D D ",
"H r._ 7.h B.H 7.D G h w.%.d.q.7.r.e.M.C.M.( ! ` 7.*.( F [ h.P.O.T s [ v 0.r.h.{ d.M n.Z.d.r.G }.d.M *.@. ...^ &.( K.i.h _ F K.K ",
"H q.7._ M `.L 7.M G D %.d.0.d.Z.(.e.{.s.C.r 7 E 8.0.d Z { h.k.O...s { D 0.i.n.%.Z.h r.Z.r.r.D M.h.n #.O.T R -.j.N E.j.x L K r.H ",
"D C.r.L H _ h r.h D G { i.< > n.# = i C.].K.Q r y.f.H v 1.h.~. . .h 1.Z r.e.d.9.N.h L R.n.d.v I.;.n $.+.|  .S.B.F E._ F D w.Z.7.",
"K 8.L K D n.G 7.x D F 7.9.w.( G.k 7 a %Xv.d.l x a.y.%.x %.M.~.+...g 7.h a h r.0.d.M 0.`.r.r.v C.=.v *.@.+.;.;.a.F '.y.x D 7.r.G ",
"L 2.F 7.h n.M 7.K V.OXC.J I.G n.4 Q a |.C.- - O s d.&.H { b.~.R X.s 7.H D M M h n.d %.`.n.w.v (.=.v %.+.^ @.k.2.M .X8.a J L n.L ",
"D G D 7.h C.F w.J `.[.9.F (.%.OX+ Q M }.C.v x.D M n.%.H kXhXvX:X:X*X7.L a D M G `.h NXBXcXhXH `.g.n eX1X8XtXeXxXd E.8.d L G %.x ",
"H s p 7.M n.K r.O O - . a #Xw./.r Q v `.M.D n.H D K.7.Z.Z.(.r.O.>.I.6.,         R.h.I.[.OXw.&X|.D.P.T.+.,.U.oXx.`.E.M.d %.d G H ",
"_ 7.V.7.L `.0.n.D D H ).).*Xc.%X7 k A ].R.F n.d.M `.e.v.B.w.3.a.0.v._ }.K g.N ^.&Xy.0.Z.N.d.M.&Xg.%.k.[ { q.N.D.r.I.0.d %.w.~.7.",
"0.Z.N.n.L n.L N.F 7.H V.R.G.c.b.> 7 D }.Z.S R.h.G Z.e.K , , ; % % S 6.I.R.T.y.[.R.x & ; , , M &XT.N > ; , w w 6 %.}.d.d h.`.&X9.",
"L n.n.B.F `.7.r.L r.H V.=X7 3 1 W Q D I.].M Z.Z.G V.r.A z.b.F T  .g 8.}.M.T.R..X[.M 0.h.9.0.D ;XU.M P.U.Y.U.+XL.H XXI.M 7.R.}.L ",
"7.7.r.N.G K.7.n.}.fXL E.L.+ + 1 @ j C Z.N.F `.`.M n.0.H xXZXhX4X9X@X&.].v [ H *.[.v gXBXOXbXp &XT.v vXtX1X6XmXrXG I.0.H 8.%.[.L ",
"J r.7.n.F r.q.K *X`.Z.].'.) ` ! W Q x Z.M.A Z.`.M h.7.MXxXxXgX,X9XZX#.T.i X X h.M.[.kXSXgXhX*X$XT.P.jX0XqX3XmXmX*XM.{ F t.k.n.D ",
"L K K q.L B.7.}.&X}.*XN.'.g d j a j h V.r.F R.`.v N.[.j.k.~.P.>.:._.h.R.0.y.a.a.h.gXfXbXeXNXhX`.T.bXlXqX2XrXCXCXDX).r.( u.%.%.M ",
"K = = n.D n.r.`.`.Z.C.H.`.&Xs.].}.=XK.Z.0.M R.R.M r.V.K.v.N.2.:.a.P.B.N.9.K.h.d.h.I.m.].I.I.n.P.P.h.f.>. .o.W.@.R.R.*.x j.9 ; K ",
"L Z L 7.aX|.`.`.}.V.B.m.R.`.9.Z.{.Z.I.`.r.M C.K.h 0.M.h.s.k._ -.f.B.h.h.&.h._ l h }.&X-X&X&Xh.0.n.k.f.>. .o.G.+.h.[.E..XF ( B.G ",
"7.L 7.9.B.`.`.r.7.L 7.%.h.7.f h a D h r.7.v M.R.d w.n.v.d.d.L ;.i.v.h.h.8.K.8.x x _ 7.%.7.L L R.h.h.h.:.Y $.A.` f.N.0.y.( &.0.H ",
"Z J F w.`.7.9.K _ J h r.h L M n.B.Z.J r.t.c L. Xj r.n.M.d.n.L j.n.n.B.i.r.M.%.7.7.%.n.C.M.L 9.D h d d t q n c j n j.i.'.F _ 8.H ",
"G q.L 9.^.3.`.Z.n.C.h.r.M.V.r.n.9.n.K 9.m.h 3 7 l i.n.C.n.~.k.m.B.N.n.N.0.%.%.I.h.6 O > O L   d.0.n.a.S.o.f.D.f.j.K.8.E.( 0.h.6.",
"L J 7.2.B.L ^.w.Z.h.q.%.r.N.7.C.x.i.K 9.d.d k.].b s.G # O o $ O O O 7.M.N.L 9.N.n.; : : ; O : w.B.p w q 0 q r d p d 0.H.F 7.n.9.",
"K A J 9.B.r.M.R.r.9.K _ n.L i.r.n.x.L w.n.j 7 r N 0.n.< O ; & O X w 7.r.h.7.7.$.r.F O & - ; h x.R.G   @ 3 t   X 2 ( r.Z.%.F 6.G ",
"F < f 7.Z.r.`.Z.N.r.7.L Z.r.%.n.Z.w.K L M.x A.t.c r.9.G 0.w.@.#.a.f - O ; - & & & > 0.Z.h.D h r.n.G 2 ,XuX2 : ,.0X-.8.V.G a p 7.",
"J K F L Z.C.~.Z.n.8.2.n.Z.9.h.C.M.d.v 6.v.u 1 5 c 8.6.g 9.C.[ g.a., w ; , < > > * > 7.r.9.%.p 9.M.L >XpX5 > >.uX4Xf.0.N.A 7.r.F ",
"J F h 7.Z.Z.`.~.i.8.d.r.7.D h.7.q.H F i.d.v I.Z.h r.7.v a.w.;.,.&. Xg.f.'.k.i.g.S.V M.r.N.H d 0.N.G o.r N d ,.O.l B.9.V.L D %.K ",
"L G p r.B.`.Z.`.Z.9.L a w.Z.h M.D 9.K 9.a.M m.C.h 0.7.h h.C.U.U.q D.;.Q.R.0.n.D.;.o.I.Z.`.H p 0.h.M L 7.V.( n.y.Z.E.3.c.%.F K F ",
"F x f 7.S.5X5X XZ.7.K.d.9.h.B.< r.7.C.6.9./ <X<Xc 7.7.h C.N.k.U.-.j.:.U.h.8.'.E.U.*.].`.}.F x ( R.H 8.w.C.n.`.B.G.L.<XG._ D G K ",
"C h a 8.Q Q ! + m.n.j.8.h.h.R.Z.n.%.K.{ d.h w.m.s 7.7.v h.k.k.f.f.8.:.D.r.F j.( -.&.`.V.{.eXe 0.R.D h.n.C.N.[.Z.u.1 ] # _ h G K ",
"D h a w./ 5.] ` H.l f.n g.V %.G n.7.m.{ q.7.m.V.M 6.L h r.n.N.a.n.n.+.l.r.r.V.y.f.7.^.fXhX=XVX0.N.M r.n.h.r.P.h.p.5.5.c i.D D G ",
"D Z p 9.8..   p P.G f.( =.m M J r.d m.7.7.vXgXdXD 6._ x n.n.{ a.z.n.+.l.M.k.0.j.j.7XhX&XbX=X&.0.B.G r.r.n.n.N.f.L . 5 7.r.d G L ",
"J x h L i.n.M.i.B.H 0.G =.~ _ w.i.K M.7.n.GXSXcXh _ 7.D nXZXNXDXAXzX3XlXkXbXcXDXjXjXGXT.f.=.*.f.N.M r.d.n.r.7.M.I.Z.7.S r.a L L ",
"J d O r.B.^.K.Z.^.M h.H =.m 7.M.R.7.I.q.7.7.9.R.HXL d.SXnXSXSXDXDXMXtXCXDXBXcXVXjXm.[.&.~ ;.$.y.N.H N.Z.^.z.`.B.Z.&Xr.Z.x.> K 7.",
"L w.r., y 6 < < w w , w * 2 4 6 w 6 p : s i p w p < < y i 6 < p y f 5 r p 9 i < e 5 9 9 w * : > p y 5 q e w y < p w a > f [.*X%.",
"O vXMXGXSXDXnXNXzXzXNXBXwX,.jXvXvXNXAXvXcXvXBXbXfXcXSXnXnXvXnXvXZXvXwXmXhXjXvXAXeXvXZXMXgXhXfXfXcXmXwXU.Q.lXBXzXSXDXgXGXGXDXFX> ",
"^.1.y p < y 9.p a e x N 5 r e F N ( F B M L n n w.h.h.i.M.n.B.C.M.h.-.j.h.M.M.R.7 r z N h r r q D M r q r M / h %.q.< < h < r.n.",
"B.w.K.G.'.G.q.d.U.1X6 * U >X1X: O Y.:.O = @ Q.U.M.d.z.!.B.A Z.L B.{ k.&.R.H N.N.S.wX@.q : wXyXr w ,.Y.tX. o 1XuXW.m.G.'.`.+Xn.M.",
"s.M.< u.* z w.n.W.t ; T pXuX2 q Q.qX| # * iXtXS.B.7.w.v.q.v n.G r.M %.G 0.G 0.0.j.S.2 5 @.8XwXq @ qX<.% * 2 9X>XE.^.l @ T.5 K.(.",
"p.F.I <X3 Q y.~.q.n.z uXpX2 9 8X1X6X; @ qXyX].~.7.O           o .     . X X   : =.K.c.T.@.Y.% > yX6X: : 2 wXU.W.s.E.Q P <XP L.j.",
"x.G.A.6X-.F.h.# 9.N.f.S.g.`.[.T.p.'.q.R.T.T.`.9.; 8.[.R.M.eX-X;X}.*X'.N.n.*X0.X 0.h.}.W.U.G.Z.m.6XK.'.`.E.;. XR.> i.S.A.5XF.J.7.",
"Z v d M M H a J G H H N d A G v D s s A C p G w # > d p w p 6 p > w > > w 6 w d O p a a p f 8 s i a M h v e v A x a H H { x b D "
};
