/* XPM */
static char *_4fd37f7cbb44185b972d2440b5ef1e4NNyUyYRrxFJY0qP3[] = {
/* columns rows colors chars-per-pixel */
"64 64 255 2 ",
"   c #000000",
".  c #0A0400",
"X  c #170502",
"o  c #0A1203",
"O  c #171405",
"+  c #1B1A13",
"@  c #250602",
"#  c #370601",
"$  c #251504",
"%  c #36170A",
"&  c #2D1A15",
"*  c #1B201A",
"=  c #382517",
"-  c #302818",
";  c #292722",
":  c #382C27",
">  c #2C3026",
",  c #3A342A",
"<  c #3D3934",
"1  c #4D0B02",
"2  c #491507",
"3  c #551608",
"4  c #54140A",
"5  c #5C160D",
"6  c #5C190E",
"7  c #4A1B14",
"8  c #571A14",
"9  c #5B1C13",
"0  c #64170C",
"q  c #631A0E",
"w  c #731C0F",
"e  c #621D13",
"r  c #6B1E15",
"t  c #691E19",
"y  c #761E13",
"u  c #55240C",
"i  c #4B2819",
"p  c #5A2317",
"a  c #5D231A",
"s  c #642216",
"d  c #6B2315",
"f  c #6A2B15",
"g  c #63241A",
"h  c #6C241B",
"j  c #642B1D",
"k  c #6B2A1C",
"l  c #742415",
"z  c #7B2415",
"x  c #742A16",
"c  c #7B2A17",
"v  c #73251A",
"b  c #7A2619",
"n  c #742B1B",
"m  c #702F19",
"M  c #7B2C1B",
"N  c #74321D",
"B  c #7C321E",
"V  c #4F1F20",
"C  c #592827",
"Z  c #443628",
"A  c #51372D",
"S  c #632722",
"D  c #642D21",
"F  c #6C2D22",
"G  c #722724",
"H  c #752D22",
"J  c #7B2E23",
"K  c #6C3323",
"L  c #683629",
"P  c #743324",
"I  c #7C3323",
"U  c #783A25",
"Y  c #74352A",
"T  c #7B352A",
"R  c #743A2C",
"E  c #7B3B2C",
"W  c #683832",
"Q  c #743B32",
"!  c #763A34",
"~  c #7B3C32",
"^  c #484638",
"/  c #534B3D",
"(  c #78442D",
")  c #674639",
"_  c #7C4235",
"`  c #78453A",
"'  c #6E3F40",
"]  c #494944",
"[  c #544946",
"{  c #4E5349",
"}  c #54554B",
"|  c #58574B",
" . c #5A5B55",
".. c #6A4B48",
"X. c #754A47",
"o. c #695346",
"O. c #785449",
"+. c #665C57",
"@. c #6D5F5E",
"#. c #7A5A54",
"$. c #666459",
"%. c #78645A",
"&. c #706D58",
"*. c #6A6965",
"=. c #776A65",
"-. c #6E736B",
";. c #73726C",
":. c #797569",
">. c #7A7973",
",. c #832717",
"<. c #832B1B",
"1. c #892D1C",
"2. c #83321D",
"3. c #8C351C",
"4. c #973A1D",
"5. c #A33F1F",
"6. c #862F21",
"7. c #833422",
"8. c #8C3523",
"9. c #853925",
"0. c #8B3B25",
"q. c #83352A",
"w. c #843C2B",
"e. c #8C3D2A",
"r. c #973824",
"t. c #943B25",
"y. c #943D2B",
"u. c #9A3D2A",
"i. c #833E31",
"p. c #8B3D32",
"a. c #983F31",
"s. c #A33D27",
"d. c #97411F",
"f. c #8D4326",
"g. c #85432C",
"h. c #8C422C",
"j. c #9B4326",
"k. c #94432C",
"l. c #9B442D",
"z. c #844234",
"x. c #8B4434",
"c. c #8B4935",
"v. c #84453A",
"b. c #8B4539",
"n. c #844A3C",
"m. c #8C4B3C",
"M. c #944433",
"N. c #9B4532",
"B. c #944A34",
"V. c #9C4B35",
"C. c #964639",
"Z. c #944C3C",
"A. c #9D4D3C",
"S. c #8C523B",
"D. c #94513B",
"F. c #9B513D",
"G. c #A34324",
"H. c #A2442C",
"J. c #A94A2B",
"K. c #B34F2D",
"L. c #A74835",
"P. c #A34C35",
"I. c #AB4C34",
"U. c #A44E3B",
"Y. c #B44F32",
"T. c #A85337",
"R. c #A4523C",
"E. c #AC523C",
"W. c #B45334",
"Q. c #BB5334",
"!. c #B2533C",
"~. c #B7583A",
"^. c #BC5B3C",
"/. c #C55A39",
"(. c #C35C3C",
"). c #C9623E",
"_. c #874C42",
"`. c #984E42",
"'. c #895449",
"]. c #945243",
"[. c #9C5344",
"{. c #995949",
"}. c #855853",
"|. c #985B53",
" X c #A14F41",
".X c #A45343",
"XX c #AB5543",
"oX c #AC5A44",
"OX c #A55948",
"+X c #A85B4E",
"@X c #AC5C4C",
"#X c #B35B44",
"$X c #BC5B43",
"%X c #B55B48",
"&X c #8A6754",
"*X c #86655A",
"=X c #996456",
"-X c #A8624A",
";X c #B6634A",
":X c #BC634C",
">X c #AB6353",
",X c #A76759",
"<X c #B56453",
"1X c #BC6552",
"2X c #BA6956",
"3X c #BC6A5B",
"4X c #B6765C",
"5X c #9B5D62",
"6X c #896967",
"7X c #9B6766",
"8X c #88776C",
"9X c #99756A",
"0X c #857B77",
"qX c #917777",
"wX c #A66965",
"eX c #B76E62",
"rX c #AD7664",
"tX c #B77567",
"yX c #A97175",
"uX c #C65E44",
"iX c #CC6444",
"pX c #C6644A",
"aX c #D66848",
"sX c #D46B4C",
"dX c #D7744E",
"fX c #C66A55",
"gX c #D76D52",
"hX c #C7745C",
"jX c #D97657",
"kX c #E37B58",
"lX c #C97766",
"zX c #D97B64",
"xX c #C67E72",
"cX c #E27C60",
"vX c #7F847B",
"bX c #868279",
"nX c #948878",
"mX c #B38474",
"MX c #DD805B",
"NX c #E4835D",
"BX c #CD8970",
"VX c #8C8984",
"CX c #968B84",
"ZX c #96958B",
"AX c #908B90",
"SX c #999893",
"DX c #B1958B",
"FX c #A59A96",
"GX c #9DA49C",
"HX c #ACA59C",
"JX c #B4B1AC",
"KX c #CF948E",
"LX c #CCADAC",
"PX c #C5BDC3",
"IX c #CAC7CA",
/* pixels */
"7.1.1.<.e.c.G.2.V.P.j.l.G.t.x.v.%X7.8.3.8.u.9.U Z.` n._ z.B.].v._.i._.a.e.y.p.r.s.s.C. XXX XN.`. X X`.a.$.8 a s % F D F D } 8.6.",
"3.3.3.3.4.3.8.A E.J.3 N.G.L.~ n.1X8.7.t.r.t.k.g.c.B._ m.b.x.x.Z.C.v._.r.a.p.a.a.a.s.C.XXa.a.C.C.[.`._.`.>.j k N P Y ! R K ] t.a.",
"B 7.I 3.8.0.e.f W.E.U.XX!.I.v.m.1Xr.<.t.r.6.k.w.c.Z._ c.B.b.x.C.x.( v.u.r.p.M.H.a.a.a.+XXX`. X`..X.X`. XbXk k G g Y Y Y R , 1.r.",
" .] Z ; ] [ ]  .o + O Z $ o + ^ ] ; > ; &X^ & , , < + Z +.} =.+.< 8XbX[ [ Z X @ @ V & S . . X %   . & C CX    . $ & i C D *.` i.",
"k.k.f.} OXD..X=XU..XXXoX;.h n b J I 7.p.p.] m.e.U.A.C.XXoX,X0X`.r.L.s.a.a.a.L.W 5X|.|.5X{.,X|.{.=X7XwX|.5X5XyX|.yX`.' ! ! |.|.7X",
"V.U.l.| F.[.OX-X.XB.B.0.>.r y v l H n e.}.| 1X:X:XXX;X1X1XfX+.XXs.s.L.J.u.a.^.= wX<X<X3XeXeX4X>X+X`.C. X`.A.m.M.p.J i.q.6.b.p.p.",
"V.T.P.-.oX[.>X-XXXE.XXE. .r h l b M M e.|.*.iX:X1X1X2XfXfX}.0XL.Y.Q.Y.Q.#X~.Y.` yXeX3XfXeXfX3X>X|.XX X`.`. XU. XC. Xp.b.r.a.a.a.",
"P.P.V.bXOX@X>X>XXXB.oXR.>.l M z n 6.6.p._.0X;X;X:X1X1XpX<XpX0XI.Y.Q.Y.Q.Y.W.!.) wXwX<X<X3X<X<X@X>X%X Xa.U.C.C.C.a. Xv.q.a.a.u.r.",
"&     SXX #   X @ . . ` 8X: ; + >     & + &.L L % $ 7 i D u FX@ 2   u Y P w.j =.*X#.X.` ) '.S.,XX.@ }.X.! i.v.i.i.p.! S U e.e.e.",
"*X&X#.i &XL R }.X.X.X.X.X.K ( ) nXBX>X>X4XfXBXBXBXKXmXmX4X=XrXtX=XmXCXVX%.0X+.#.'.}.rXnX'.yX9XnX6X9X6XDXSXqXCXDXqXqXDXqXVXFXnXDX",
"N b v b I b <.V.d v l y r z b M j NXdXMXkXdXdXNXNXNXsXsXsXaXjXgXgXgXgXY F H J 7.T e.x.b.zXzXhX3XlXhXhXhX>.J 1.6.6.1.1.r._.fXNXNX",
"B b l l I <.q.a.l l z z l z b <.A MXdXjXdXsXdXjXNXNXsXsXdXiXgXaXiXgXgXY H F G J q.T U p.zXjXlX3XlXlXhXhX;.1.1.<.<.1.8.r.b.sXNXzX",
"I x l 1.n n q.C.r d l l l w l l }.jXdXjXjXdXjXjXNXNXdXdXaXsXgX;XaXgXgXY T J b b 1.1.t.].lXzXlX2XhXlX1X2X:.q.J I 6.q.8.8.x.fXjXjX",
", > , : o O     = & .         = < ; o     * > ^     o       $     A Z ,     O       X / A = Z O...= i O  .      X @ % % 7 W =XS.",
"g.k.f.{ }.=X{.=X|.{.=X{.$.{.].A.f.m.Z.`.n.VX#.].].n.].` [.g.SXhXtXpX%X:X<X-XBXnXo.7X&XnXc.m.[.V.'.` R W ! n.` O.}.#.L W O.O.X.X.",
"oXXXoX$.R.OXl.E.V.F.@X%X>.l.M.H..XL.XXXX[.-.C.k.l.V.P.P.H.P.8XgXgXgXgXgXdXjXcXzX[.[.lXpXfX;XhX1XhXw.z.U 7.0.T T ! i.v h t g h K ",
"#X#X#X .h.B.k.V.V.k.I.~.-.l. X+X>X@X<Xa.U.0XC.a.l.N.N.H.N.N.:.jXjXsXsXgXsXjXjXsX+X=X%XfXfXM.:X2XtXq.q.q.T J q.q.Y z.e h t F t G ",
"#X;X;X .0.l.4.t.t.u.L.I.>.z.M.E.L.XX XI.XXVXN.u.t.H.I.I.y.L.>.gXsXiXgXgXiXiXkXiX-X|.,XfX1X>XfXtXtX! p.p.p.T y.q.Y p.t t t t r t ",
"%X;XoX>.j.l.B.h.N.k.E.!.{ E.`.V.I.,X+XOX-X*.N.C.f.k.b.N.y.Z.=.dXgXpXsXsXpXpXgXfX{.].{.hXfX2X:XtXeXi.w.E ~ ~ ! T Y P e e h r r t ",
"{.T.OXG.V.-XOX%X) =.W A 4 q b x J pX$X$X;X#XtXhXtXKXrX4X4X{.{.,X,X|.>X|.rX,X,X,XeXrX[.x.) ].{.#._.,X<X{.GX7XX.}.}.#.) *X6X;.Q _.",
"$X/.(.uX;X$X<X2Xp k w y y ,.,.b U iXaX).aXaXaXaXzXzX/.Y.e.N.#Xg.L B.W.eXfX#XXXoX.X#XXX3Xm.a.p.C.a.`.`.`.HXX.q.T T T ~ T i.@.p.~ ",
"%X^./.^.(.;XB.hX3 k y z y b ,.<.B aXaXaX).aXaXaXjXzXK.Y.G.pX^.H.~.f.E.BX-XXXXXU.B.B.XX@XR 7.e.y.a.a.C.p.*.|.T J T J J T E +.8.q.",
"%X$X$X$XpX$X<X2X7 j y z ,.b b J g.sXaX).aX).aX).hXNXW.^.^.~..X~.#XW./.xX{..X.XA.C.[.`.A.K b.C. X+X+Xa. XVX|.Y Y ! G G F ! } e.6.",
"$X$X$XpXuX$X<XhX2 F y y y y z 6.T sXdXaXaXaXaXaXjXjX^.;X~.:XpX%XT.;X(.rX;XoXoXoXE.@X{.[.'.i.i.Y _.`._.b.SX_.! ~ ~ T ! Y ! Z v.m.",
"P.!.~.-.n.S.{.m.R R v.` -.,X,XxXtX=X|.`.z. .1 2 # 1 # # # # >.uX(.pXuX$XXXOX%XOX{.@X%X#XU.h.;XOX=Xt S h 8 e 9 9 8 6XwXO.eXeXeXyX",
"1X1XfXvXc.[.,X=X_.v.~ _ -.m.5X,X].].b.x.p.JXg 8 8 S D F S W *.gXsXfXuXfX1X%XeX Xz.#XE.XX#X!.$X#X;XG h S J F t h a =.].+X{.{.{.,X",
"E.pXpXZX( g._ c.S.{.m.`.SXM.V.R.V.XXP.,XC.CXg e 8 8 9 a 9 8 *.aXfXuX%X3X3X3XlXfXXXI.E.L.E.I.R.XX:Xt t y v t r r t C  X`.]..X[.[.",
"E.^.;XvXP U w.g.n.].D.D.VXb.C.C.z.x.e.OXe.VX9 e e 8 8 8 8 8 -.gXiXpX%XfX3XeXlXeXE.L.H.H.I.I.!.T.$Xh t v G y G G G W x.M. X`.[.[.",
";X2.P., S j j S R _ m.n.>.~ m.n.R W ~ ! z.@.a g e 8 S S g S ;.aXiXuX%XfX+XfXlX3XI.H.N.XXN.P.P.E.oX8 9 r G t y v F g _.n.OX].OXv.",
"R f.B.U h.Y _ x.  C C S S S 9 a s z.8.8.8.H c <.6.q.p.e.T Y Y ! p.i.p.i.p.v.v.! ! ! ~ v.-XF.-Xc.P.T.k.U #.X.X.W O.|.].%.W SX.X%X",
"U U U g k I I m i 8 9 9 s j H D h E 8.M ,.<.6.2.<.J 8.q.! ! ! ! ! ! }.G G ! G ! Y L i.p.f.oXT.T.N.e.x.s.X.[.L.Y.J.I.H.N.H.0XB..X",
"P k j n P H b.h.2 8 3 8 9 j 8 C V q.1.b z y l ,.1.8.p.G ~ q.I n.H ! `.! i.b.Y ! Y ~ ! b.XXR.N.{.<X-Xh.h...U.s.J.s.s.u.s.H.=.k.x.",
"N K 9.B 0.B R Z.2 8 8 7 p D D W D w.c <.,.,.<.<.1.8.J J ! J U E T i.|.Q T v.E T Y Y P b.U.t.u.x.T.#X;XA.+.U.L.H.G.s.u.u.u.+.gXXX",
"f.9.g.D w.z.z.c.# p 8 9 j a a C C T ! H v <.c I T 6.q.E P ~ ~ _ i.q.].P P T H F k P T _.y.P.N.L.l.u.l.A.[ <XN.u.y.u.y.B.M.{ l.L.",
"bX-.$.$.} ^ { / JX>.{ ^ -.$.*.AX-.IXGXIXPXGXPXHXJXPXHX} :.HX .bX:.;.8X] ZX>.HXHXFXCXVXbX+.Z Z , > ^ , +  .[ i & : $ X Z =.; O Z ",
"9.Z.Z.&.f s l b 0 0 0 w bXY Y I W _ b <.n.-.7Xl.u.k.e.h.C.|.g.B.OXL.I.T.R..X1X-XOXT.@X>XB.x.m.E w.W.Q.^.Q.uX(.uX(.1XN.y.u.z.w.C.",
"2.2.f.vXl l l M z z M l >.l <.d l c M <._ IX'.Z.A.N.N.V.E.>XF.5.J.G.G.J.J.G.J.OXN.l.k.N.<X.X].w.9.!./.uX/././.uX/.hXC.N.N.F.b.C.",
"g.B U >.z x l I l l H ,.>.d z l l x z b n.LXv.B.U.T.R.V.E.#XP.u.5.G.5.G.J.G.j.B.A.M.h.A.V.U._.C.p.(.Y./.Y.W./.uX(.uX`.k.N.N.h.[.",
"f.V.F.$.d k d n k j Y D *.l l v x s l z v.{ |.tXk.Z.Z.F.OX|.DXP.j.4.f.s.G.j.j.f.>X@X X XA.x.b.Y A./.u.Y.J./.(./.aX^.[.l.k.M.N.XX",
",  .*.-.< { o.] ] } > | $.} [  .< }  .:.| *.=.{ VX>.bX>.ZX$.{ [ ^ $.;.&./ ^ | ^  . .8X$. .$., <  .-.0X0X@.*.} *.$.$.$ 2 A i = i ",
"9 q e q e p 8 9 8 8 9 0 5 0 5 5 3 x 7.7.h h v n v h P T H H n I 2.9.1.7.I J y.N I I 7.J p e 9 q 5 8 6 5 *.a g j k k D S j bXH F ",
"d d d d s e p d 9 2 5 5 5 5 0 2 3 1.<.w.M <.z b z v 9.~ d z b M 1.,.1.z I k k.n n b J T a t e t 0 e 0 8 CXg D D F D F Y F -.b G ",
"6 6 9 8 6 6 r q 4 5 5 0 5 q 0 8 1 3.t.a.8.9.P 2.6.b H i.v v l <.,.3.2.x b n v x <.H n N R v l v r v d y AXj j D K L F D G HXe v ",
"d w d s d l d l # 3 1 3 1 1 4 2 3 1.b e.H 7.v M M n e.M P P M P z 9.<.c k h k k k h v P W v b d s t r h GXj F F a F F F K JX1 DX",
"} PX>.>.} ;.&.*.+.{ +.8XZX0X0XFXbX0X>.] ;.>.>.=.>.nX-.$.} *.^ $.]  .*.&.^ *.$.8X=.$.| :.bX .&.CX| bX&.nXHXFX:.+.} $.;.8X0XSXAX:.",
"g a v 0XU n k P K R T U 0Xl.H.4.r.0.n c <.VXT 1.9.8.e.0.8.e.U K.~.(./.$XW.J.H.oXk.P.g.V.e.f.V.k.g.l.B.F.V.H.l.P.E.J.2.,.b <.,.7.",
"9 e e qXU Y R w.z.U E U CXH.J.s.l.H.I.K.J.:.~ 7.0.y.k.y.e.E ! Q.J.I.W.T.Q.3.N.B.T.XX#XT.R.l.P.u.Z.E.T.oXoXP.!.E.#X#X2.8.8.2.2.8.",
"d h t %.9.R.A..X.XZ.`.b.CX8.s.4.3.4.4.H.5.%.U P 8.B 2.I I H P /.).).^.W./.Q.P.V.T.E.#XU.V.T.E.N.[.E.$XT.W.L..X#X#X#X8.t.8.0.8.9.",
"9 s j ..N _ c.m.B.b.g.z.=.N.4.8.t.N.t.0.u.&.R k h x n f q.P C.^.iXK.W.K.W.K.V.R.oXoXF.D.V.F.h.B.8.oXXX!.!.T.R.oXR.!.B 0.9.U 3.t.",
"O.#.6X6X) O.=.*X+.0X6XO.X.#.O.:.8XAX%.%.#.*.=.=.#.%.bX;.>.< >.0X:.+.$.+.VX$.$.;.-.VXHXbX:.;.-.CXVXbXvXVXCX-.bX .bXVX;.0X$.>.$.+.",
"E f.m.0.k.f.V.h.+.c c.U h.F.oX[.-X| 7.w.U x.0.f.B r.1 e 5 3 5 p P q 3 V.F.T.V.F.U g.f.f.3 h.T H d P w.( -.3.4.j.j.j.J.T.y.bXH Y ",
"B {.-X2Xm.Z.{..X$.f m _ P h.P D.g.#.q.P H N M I 9.e.h y l e t v k m h B.f.9.E h.h.U F.F.2 _ _ R P P U ].0XW.c.f.e.j.g.k.P CX6.H ",
"h.c.].h.[.F.D.U nXD K x.Y n n U m.) x x <.<.2.z b B u t d g e e g h v [.I 7.K R [.OX( f.3 a s K Y F P j ZX0.B B.B k.k.U.H.JXs s ",
"n N U w.g.g.f P $.m s k d e f 7.g.) x 2.7.I y.3.k.N u g q 9 9 u g s 9 D.d B g.h.9.x qXg.i p g R U _ L m GX4.B k.I l.u.~.Y.=.s s ",
"Q L ~ ! ) X.X.#.#...) ` ) ....) ) 7X*X*X#.+ X.X._.O.wX<X=XX.X.|.&X%.#.&X*X9X9X%.8X8X%.*X*X9XnXnXJXmX,X=X6XyXLXmXDXmX8XtXrXhX1X2X",
"B.e.i.U Y E H h.N I D.e.X.k.OXoX>XR.OX@X].#.].x.B.]._.~ A.@XZ.l w z.k k k P -XP K R K K D u u j j J.J.G.~.W.Q.^.Q.Q.>X`.R.k.t.t.",
"c I U n f B B 2.9.9.k.k.p V.B.PXR.V.LXeXF.K Z.F.].m.oXc.OXoXD.<.M 9.T c I m g.f K K D K K f f K ( 3.3.4.d.4.j.3.G.K.F.k.l.k.H.I.",
"x n N s x B B 2.w.0.B.f.B T.R.3XoXF.KX].Z.W C.V.Z.{.[.m.-XoXD.N b [ A n k ( g.c.K j D L i ( A j S.2.3.d.d.2.f.J.G.K.T.V.P.j.G.l.",
"N l x f l f z 2.c 2.c 2.x B.l.N.T.f.N.m x._ x.D.B..XE.B.B.F.c.f d g n v s g E.k.( L ) L K j D j ,Xf.V.f.f.f.9.j.f.J.d.j.V.k.e.k.",
"O o O + - < o o o O .   - O - O , $ $ Z Z : X % $ @ ^ - i ^ i # 2 # 2 7 3 3 d . % * - O i i i D K f.f.k.f.>XP.A.J.N 2 Z O.- O : ",
"j 4 3 7 s 3 6 3 ^ x.c c h.k r 3 3 A B c z n N P 6 6 $.U T Y k j s q 6 =.N U n n h.U c.f , K k P D._ N ( _.i g t IXR 9.x.B.{ ,.l ",
"2 1 2 3 3 3 3 3 - g.b x B d d 6 6 L D.x d e s r 9 9 =.B 2.<.N x s s 6 | B b e.c 2.c.K f < Z.U E B.c.f.U OX% 5 e e p j s _ bXk m ",
"2 4 3 3 6 3 3 6 o k B N 9 g e 5 6 A N s d s j p q 5 *.8.9.U P n f j s ;.V.U 7.c f.oX( N A Z.K 9.( c.F.B.g.< 9 0 e e s d `.ZXd s ",
"7 4 2 6 3 3 3 8 > 7 e p n 8 7 9 p , g f s q q 6 q 8 >.j R K K R R a a $.N n x l x k.( j *.Z.K k h.j x s L +.5 9 4 6 6 e ~ bXx l "
};
