/* XPM */
static char *_13842ae3d324ea49c15974e0200427cco9ejJAVIfCqgJLM[] = {
/* columns rows colors chars-per-pixel */
"64 64 49 1 ",
"  c black",
". c gray3",
"X c #0B0B0B",
"o c #120D08",
"O c #17120B",
"+ c #101B0B",
"@ c #101010",
"# c #151515",
"$ c gray10",
"% c #1D1D1D",
"& c #201B0D",
"* c #193512",
"= c #262110",
"- c #302312",
"; c #332715",
": c #3A2A15",
"> c #2A311D",
", c #232323",
"< c #2A2A2A",
"1 c #2D2D2D",
"2 c #303820",
"3 c #373F26",
"4 c gray20",
"5 c #373737",
"6 c #3A3A3A",
"7 c #3E3E3E",
"8 c #413018",
"9 c #4C341B",
"0 c #413023",
"q c #453326",
"w c #42462D",
"e c #544230",
"r c #495137",
"t c #54593E",
"y c #634D3A",
"u c gray27",
"i c #494949",
"p c #505050",
"a c gray36",
"s c #6F5845",
"d c #5C6145",
"f c #686D50",
"g c #646464",
"h c #896C58",
"j c #8D745C",
"k c #967D64",
"l c #B1977D",
"z c #818181",
"x c gray79",
/* pixels */
"################################################################",
"7Orttdt6@1r2wddtw7,rttwtw@tr@wddfwo,3trwtwOt>@2ddfro,32r3twOs>;2",
"t233wrwrXt232td3wt#3rwtwwXt232tdww2#3r3trwOt333ttwt23333wrwOt333",
"wr>rwdt7 >w322dw%wt>3wtt2 ww32>dt%4t>33ta2ow>3w>tt=4w>w3fa>op>3w",
"71wrrpwuX23tw>d4w71wtrdwwXw3tw&drwr12trdrw>w4tw&tr=r22trdrp>74ww",
"d23w3rtr@w3w3wd1wd6333ttw@w343rdww2633ttdw>w&4wrdwr2w3wttdr>w&4w",
"#@%o@@##X$o@@$X@$#o%X@##@X@oX@$Xo$%o$Xo#$@@@@X@$@o#%X$@o@$$@X@o@",
"dw3wdrr3wtXwrd233dr3fdrrwwtXwrr2r3dr3frrfwwtrwrr2r2dt3rrwfrwrr3r",
"rw3wwrr2ft$2sr0w=rw3wwrr3fr$wsw03=ww2wwrw33rwwtww3rww2wwwww3wwwt",
"rr2rrdr2rw;wrdr3wrr2wrrrwrt;rrrrrwrr2wrrrwrttr0rrrwrr2wrwrrrrtw0",
"rr2wtrw2rr>wrrrwdrd23trwrrd>2rrrrddd23wr2rddr2wrrrrdr2wwr2rdrr2w",
"rr3rtrd;rr;rrwrdwrr3rtrdwrr;wrrrtwrr3rrrdwrrrwrrrt2rr3trwd3rrrwr",
"123d6wf3#:t>35ttt1>3t6tft#%t135ttt1>rttttt>%i1w53tt1%rit5tt>%i6w",
"O2=w3r2w@=rrrwrrdO>=w3r2w@=rrrwrrdO>wwrr2w<=wrrwwrrO:w2rr2w<=wwr",
"=2r2trdr@-8wrrw4w=:rwtrdr@=8rrfw,w=:wwrrrr>=wrrfw,r=-wwrwrd>Owwr",
"=O22rt3r@<:2wrw2r==2wrt3w@=:2wtwdr==>wwtww,=:22trdw==>rwdwr,O:w2",
"=;>wfrrfX>$3drrr4=;>wfrrdX>%wdrru4-;Owdrrd$>Owdrruw->Owdrrr$-Owd",
"O2=wdtwr@2=wrdrrrOw=wdrwr@2=2rdrrr$wOwtrdr>2>2rddrr$2O3trdt>>>wr",
"r$$r>2ww@42>2>372r@$r>2wwX52-2>3w2=@$r222w>4w-5>rw7=$$2242r>ww:5",
"7rtrrw@rrwtrdtwtd77trrr@tr4ttdswrd;7rrtr1tr4dtdsdrt;rrdtd1rr2dtd",
"wwrwrr@tr02r3w=wrwwrwrr@trw2r3w=rrwwrwrr>trwrrww2rrwwrwrr>rrrrww",
"3wwrwwXtwrdrww2tr32wrwwXrwwdrww2rr623rww$rwwwrtw,rr6w3www$rwwwrt",
"ww3dw3@rw5wdrr3tww33rw2@iw0wdr33rwr3wrr20ir0rdw3wrrrrwrrw0rrrrtw",
"trrrdworrrrrdw2drtrrrd3orrrrrdw2rrwrrrr3>rrrtrdw3rdwrrtrw>rrrtrd",
">>>>>> >><>>$>>>1>>>>>> <>>>>$>>;1>>>>>>><>>>>>>>;>>,>>>>>>>>>>>",
"=td3rwddr3ddwrddw=tdrrwddr2dtwddrw>t>r2wddd2dtwddrd>w>r2ddrd$ddw",
"2e%t2f2d2tdwOdfs22r%w2d2h2rdwOdff2,r#w=drhdrfwwdff0,t#7=drsd4fww",
"=rwt;ddw=wfw%rdrr=dwr;rdw=ufw%wdrr2d>r2rrw2urwrwfr22r>d2rrr22rwr",
"er5dwdd2wrr>52d=wer5twddwwrr25fd2w0r$twdfw2rr2dfd2w0t$rwwfr2rr2d",
"tdwtfdf3dyddtrrd2trwrfwfwdtdrtwr,2tr,rwwfwdttrdwd,2tr,rwrf2ddtrd",
"#############################@##################################",
"7&13wdtwX:=,rtttr7#1twwtrXt=Xrttpr #2ttwdrOsdddr2rd @2dtwdwOt&+w",
"t>>>rttw d2r2rdw3t=>3rrtw r232tdt3w=23wrtw$tdww4rw2w225wwtr$w332",
"t<>r3tt7 3>w22d>>t3><3tt4 d>w2wd0>=32<2td4ordrr&www=w252dd>od1r2",
"twr3wtr7X,3wr3dw5twr3wdr2X53qr&dt5ww33rdw2>tdrpO2rww23wrtw3>t2pr",
"t4rwttrt@3333tt>wt2rwttrr@23w3rtrw22rwrttr>tdpXOgrd23rrrttq>5>33",
"2Od=wrww@u$2,2wrw2wd2wwww@u$2,$w2wrw<24w,w>dd@wp ddr=<r42,w>wO24",
"drrddrrwdrorwtwwwdrrddwrwdrowwrwrwdrrddwdwtyr@lk@rddrrrdwdwtrw2r",
"wwwwwrw2fto2dwww2wwwwwww3frowdww32rw2www23rdd+@+@ddrt2rww2wrwr3r",
"trwwrrr3ww$rrdw3rtrwwrwrrwr$wrdw3rwrww3wwrrrr@;$@trwtww3wwwrrw2w",
"rt2wwtw2rt>22rrrrrt2rwdwrrt>w2rrdrrtwrrdwrtrr% $4dwrtwwrrw3twr22",
"rrwwttr0rr>wtrttrrrwwtrr3rr>2tttrrrr3wtrt3tww$xp$>=rr3tttt3trr3r",
"@$$$$$$$X$O#$%$$$@$$$$$$$X#O$$$$$$$$$$=$$$@ry@@$%>%$$$==$$$O$$$%",
"O=2wwr2f@$rrwwwwdO82wwt2d@-rrwdwrdO8wwrt3d>wdrz%w;=O-wwrr3w>-rrr",
"&>2rwdrw@=0wwr3rr&>2wwrrw@-0wwd3rr=>rwwrrwOwrr2t>2==:r3wrrdOO2wd",
"=-3wrd2r@$82wrrww==3rrd2d@:8wwfr5w:=2rrdrd>2rd22w,,:=>wrrrr>,8rr",
"==2wtrrd@-$wtrrw2==2wtrrd@0$wtrrw25==wtrwd>wrdwwtwO65=wtrwd>-$3r",
"O>=wdtrd@223rrdrrO>=wdrrr@>23rrdrr@>%wrrrr>0r2dtdd2+>$rrrrr>>;wd",
"22=rdwww@2%2rwwrw22=wdrwr@0%>rwwrw22$wrrrr>=wwtddr>22$3rwrr>2>:r",
"$@@$o@o$##o@$o#@o$o@$o$o@#$o@$@#@o$oX$o$#@$$#@$XXoX$$X@o@#X$##@$",
"6wwrwrXrdw2tww2rr5wwwwrXddw2rww2tr3wdwrr,ttwrrwwwtr3wd2rr,ttwr3w",
"ww3wwworrrrrww2trww3rwworrrrdwr2tr3wwr2w$rwrrdrr>di3wwr2w$rwwrrr",
"33rdww@ww22drr3rd3wrrw2@3w22drw3rdrwrr321ww2rdrwwrrrrrw3w1rwwrrr",
"rwrrdw@rdwrrdwwrrrwrrdw@rdrrddwwrrtwwrrw>rrrrddw2rrtrwrrw>rrrrrd",
"rrtrrrXrrrrrrrwrrrrrrrrXwrrrrrtwrrtrrrrr>wwrrrrdwrrtrrrrt>rwrrrr",
"=tddffdd32d2fffrf&dddffdd3*ddfhfdf>t>tdfdd2*dtdjfdf>r>rdfdf2@ddd",
",rut2fwrrtdr2dfd2,ruw2dwfrwdr2dfd22r$wwddfdwdrsdfd32r$2wrdfd2dts",
"2d=drddwuddw=rsf=2r=drddwu,dr=dsd=2r>d2ddw2,rr2dfd22r>r2dd222rw2",
"2ww1=frr4rwrOtrr22rwr=fr<4ewwO3rr22r,rwfr1,qrw=3wr22r,wwdr2,rrr=",
"rr2tddswrttdtrd22rd>rd2swrttrtwdO3rt$r32swdddrdwfO3rt$r3wswdddrd",
">>>>>%%O@>>>>O>>32>2>>>%%@>>%>%>%3<>$>>>>%O>>%>%%%><>$%>%>>O>>>>",
"7&;7ttts@927r3drdwo;ttwtr@i2>rwddd O2ttwir#i>>rwrdw X2ttwp5#t>Xr",
"q1&rtdtwX6323fad3q5$rtwtwXt3=3dat3@52rtwdwop&=3ddtw@222t2twodO;3",
"t233ttrrXt3r2rd6wt>33trr3X7332wdww=>33wrr3Owr33wtwr=23>wrr3#rr33"
};
