/* XPM */
static char *_d99649e27fc4ee3b48745919d4dbd3eFkzwUekJ5hKsePZT[] = {
/* columns rows colors chars-per-pixel */
"64 64 72 1 ",
"  c #FF000000",
". c #0D0606",
"X c #120909",
"o c #170B0B",
"O c #1E0C0C",
"+ c #180F11",
"@ c #250D0D",
"# c #2C140E",
"$ c #2D0F11",
"% c #221111",
"& c #221517",
"* c #2C1617",
"= c #371410",
"- c #371317",
"; c #361B16",
": c #281E20",
"> c #362020",
", c #34292D",
"< c #441214",
"1 c #41191A",
"2 c #4E191D",
"3 c #5E1419",
"4 c #462015",
"5 c #562616",
"6 c #6C3017",
"7 c #6B1D23",
"8 c #442523",
"9 c #5D2123",
"0 c #502925",
"q c #5E302A",
"w c #463535",
"e c #6E2C2B",
"r c #7F2227",
"t c #683B34",
"y c #7C3532",
"u c #445F27",
"i c #77462A",
"p c #7B463D",
"a c #534243",
"s c #5F5353",
"d c #7F5749",
"f c #726769",
"g c #8F3D19",
"h c #932A2E",
"j c #8F3D38",
"k c #AB3B3C",
"l c #B25522",
"z c #D16D2C",
"x c #934D40",
"c c #945A4F",
"v c #A9534C",
"b c #9F6759",
"n c #B6675E",
"m c #A67E6B",
"M c #D05352",
"N c #C77D6A",
"B c #669739",
"V c #F58C34",
"C c #F6B560",
"Z c #81D443",
"A c #878082",
"S c #9F9A96",
"D c #B3B0AF",
"F c #CE9380",
"G c #DCAB98",
"H c #F7E19B",
"J c #C8C8C7",
"K c #DADADA",
"L c #EAEAEA",
"P c #F0F1F1",
"I c #F6F9F9",
"U c white",
/* pixels */
"                                                                ",
"                                                                ",
"                                 I#4                            ",
"                                swwd0p                          ",
"             c                D wwq1221                         ",
"             t8             I, fS,.%-t=>I                       ",
"              o IP   oP    wDs+& ff511%;7O                      ",
"              * .   %X  s s,*+w%awa882-1-1             x        ",
"               ..  X +D&X2%+X,f&XfJ98q<<-=K bS        dm        ",
"               &.   .sfoa,%% ,+-wf>52712q-s dt%     bqiJ        ",
"         c     .. w0+.K >;&&+soaX>e-8-14y.>+%A2$w;;;55i         ",
"        4iX  A Jw wwff.i> .+,so&:&>1-X92-1.>%:7$#*=;q5          ",
"        5#.*ww4A sb1  q6# + &o+X%ehh=*o1<< X<.:946@#4           ",
"         %p,fw; fq+. >%54.+&.%o%*%2e80>8w1..f&.*2298<<          ",
"          p;s+X ,q. O8=O2..-*o .XXk2$$31.2  << .072-*-< Pg      ",
"         o%i0%..w .XO@7<=OX1%.oo4=2txyXroO .o>5  $91-;i@#g      ",
"         & 666%w,   $$73<-XXo>%X  B0oy072..2X#r<  91816*1P      ",
"         ++.56;X:s..i@rr32@$oO  BZZZ 2e<e@.=O0q2 .O1*X-%q   Sb  ",
"   P     +o&o5*wa-. i4khh738@X.. BZB>1ey2XX<7Mr; +e9-&X%#g55iD  ",
"   ;t   P+&:O#;-O@. j;3hk7$#.::-qqdjy=2e$.$<hkh. %77>%w:qi;i    ",
"   D4;X s+&o%;0O@O% 62*26y=$*8&tccvFFnjy .3 ggh .$h72q%@pe1P    ",
"    .##  O+o@@=@$=@ XoOyeO2*00*mFFFHFNn9Oe2exje. 2rr22;4qP      ",
"      .  +&%*&$;$=X .#64y029%2%nFcFmvjvp2=xy=61X *yM739q0       ",
"       D :*&-$1p+.   5zg691;@ovy77r1jhhy0<@@gz@e2.Oy7q2#4       ",
"        Xo-%==9OXO   4 zg;$%y;=nrq7<ik6M1XX5gz%5@9o-yyF;5       ",
"      s%o,%$#8o.+X.+.X Vg5X.#.g=j6.@Nhg6*.@6gV O5N0.qe79P       ",
"       +:OX=8OX*=;X.+.5C =&#=@6@#gX4g5 6OO@5V;.g#Fy *yye        ",
"       O&*%1$X->r=#oX +Vz:+i.;5 O  VzNw%%O=im..O<ey%.p9%P       ",
"       *%%%-o*qo@;g++   C+.6 +g6oV. 6&Xzo@iF+ q*j9vt.e9@;f      ",
"       &+X%%o0 @;5$OX.  XdOO4.=4.g9%6X  eH< .O1@g17e.8q9;P      ",
"       .+oo+X;oO;o*=OXX.X.1X4oj;h#4k<rr99@%o.c8 45=y.q<qP       ",
"      %  o-@.X#X5o6;21;O.%+o=%e$9jjrMhje2*-1cxy 61j0.y<x        ",
"       So.&;&=OX .$Oq1q@$X*02%y9jy7vnvnmbbxFNv3;i<@=-x-#        ",
"        .+o%t8$@+XO%;8qqtp0tx0yxvxnxNNNnNvvnnnn1q5e937;f        ",
"        P+;&>%%$$O1O=9;tt0889yejvxvxvvnvkpvxnv%7eee27<          ",
"          &%O$+-1--1@.29p0*088997jjxxbnvyxjrrqpjexjd<f          ",
"           &#+$@2-3O$$*eq9yq*9pe9>1qbyvyxjt912eGc9ypqo          ",
"            %*.+$@--$$1e3yjxd&.dttqeyqpj9Xj9r99r93xF            ",
"            SXX%Oo@X--@#$ryettocbqtp9ee77e7r73372qc             ",
"             .Xo>O3O@.%o@;O>8>*btdcpqt93*773722dt1<             ",
"             I.oa3Xoo=1$<#88;%pntctpyq==-2X y8291trI            ",
"              XXO1.O#$=#;>>o+Oqbtbpctqt-5-o o928>-9P            ",
"              I>.O%.XO@-**o*%*8p;npdte0211oXX728&8I             ",
"                wX%XXoo$;%O&*>qpmnbbqe025$XoX+qw&w              ",
"                  .X.O  .Oo%>q0qtmbcpeO@*XX.XoqO&f              ",
"                  XoOo   .OO>1poddbxt.X%+I   o*%w8              ",
"                  Io%%OP  oO>0p@dbptOS+ s    o$***              ",
"                   .O+1*a  o&8t.mctq PXo     %%:+t              ",
"                   I+.8*@    *8>dtqP   .     .o@%w              ",
"                    a-$*.s    PPK      X     AO*$               ",
"                      .- o            X+     sO$-               ",
"                      X-$D            &.      O8                ",
"                       *,@            I%     %of                ",
"                       %:              #I  P$+o                 ",
"                       .+             I;K   **%                 ",
"                        =P            J*I  o*8+                 ",
"                        P X           +   I0O%I                 ",
"                                      P   .0*8                  ",
"                                     S    1o>;                  ",
"                                    K= f.O..@O                  ",
"                                    .Xooo.OXo                   ",
"                                     .X.XOXa                    ",
"                                       J,J                      ",
"                                                                "
};
