/* XPM */
static char *_558464fc25949a88df17b96e85025faga3bx8LWf86josWi[] = {
/* columns rows colors chars-per-pixel */
"64 64 79 1 ",
"  c None",
". c black",
"X c #120D09",
"o c #17120B",
"O c #330000",
"+ c #201B0D",
"@ c #262110",
"# c #302312",
"$ c #3A2A15",
"% c #373737",
"& c #480001",
"* c #530001",
"= c #5E0001",
"- c #53030B",
"; c #5F1F01",
": c #6A0001",
"> c #760002",
", c #721702",
"< c #413018",
"1 c #4C341B",
"2 c #57371D",
"3 c #7F2002",
"4 c #73320A",
"5 c #413023",
"6 c #453327",
"7 c #483720",
"8 c #4C3A2A",
"9 c #633E20",
"0 c #544230",
"q c #5B4534",
"w c #6B4124",
"e c #734527",
"r c #7B4C2A",
"t c #634D3A",
"y c #67503E",
"u c #6F583B",
"i c #6F5845",
"p c #7C6442",
"a c #786049",
"s c #870002",
"d c #940003",
"f c #A10003",
"g c #AF0004",
"h c #BD0004",
"j c #952D03",
"k c #9D3103",
"l c #A63404",
"z c #B43B04",
"x c #CB0005",
"c c #D90005",
"v c #E80006",
"b c #FB0007",
"n c #FB0019",
"m c #884811",
"M c #BD420B",
"N c #88502D",
"B c #915831",
"V c #9A5B34",
"C c #A25F37",
"Z c #CB4A0D",
"A c #D5510F",
"S c #E35910",
"D c #ED5D14",
"F c #FC6917",
"G c #FC7B2E",
"H c #806850",
"J c #896C58",
"K c #8D7050",
"L c #8D745C",
"P c #967D64",
"I c #C26F42",
"U c #CDAF34",
"Y c #9F856C",
"T c #A88E74",
"R c #B1977D",
"E c #FD914A",
"W c #F39A68",
"Q c #E6D646",
"! c #FEC4A4",
/* pixels */
"                                                                ",
"                                                                ",
"                                                                ",
"                                                                ",
"                                                                ",
"                                                                ",
"                              c                                 ",
"                              c  c                              ",
"                              f                                 ",
"                            sfA>> *                             ",
"                           ssfA>>**                             ",
"                           ssfA>>**                             ",
"                        sss jkMMM**:                            ",
"                        sss :jzjjf:: ff                         ",
"                       ssssggsjffcf::ff                         ",
"                       sz::g:sgcccfc:cc:                        ",
"                     :::gffgsskkkgbcfcc::                       ",
"                   ::::fgggcbckzzgxhsZZf:                       ",
"                   ::::fgggcbckzzgxhsZZf:                       ",
"                     :dffsshxMzDDcvddzzA:                       ",
"                      d:sdddvZDUUMvchssz>:                      ",
"                  x  dgddllcvDUQQZhvddd:>:>                     ",
"                  xssdMdhZZvbGQQQDZvlhhdf:>hh                   ",
"                dhhsszDdxDDvnDEEEDDMZxxdgzshh                   ",
"                dhlZZlMddGGbnSFFFSDADddzhlDhhh                  ",
"                dhlZZlMddGGbnSFFFSDADddzhlDhhh                  ",
"                fhZzzfdgdEEvAASSSAAAUddzgxzDDh                  ",
"     0          shDddbddHGGZFRRRRRFDQHHdxbdllh           0      ",
"     000      ggssvgg<gLYTTRRRRRRRRRTYYwgbxMMsf       0000      ",
"      00qqqtaKggf:dbbgaLPYYTRRRRRRRTYPPLagZDD:fHKKatqq000       ",
"       0qqqtaKHHaiiDDciJLPPYTTTTTTTYPLLJiZDiiiaHKKatqq00        ",
"          ttyaJJPHiqqAtiaJJLPYYYYYPLJaaitqqiiHPJaaytt           ",
"          ttyaJJPHiqqAtiaJJLPYYYYYPLJaaitqqiiHPJaaytt           ",
"           qqqttyqy$$880tiiaHJKKKJHaitt088$yyqytqqqq            ",
"              ,,33,,,568qttyyiiiiiyytqq865,,,33,                ",
"                @@=>>#<<6880qtttttq0866<<#>==@@@                ",
"              ::d<>==ow11111222222211111wod>><k:                ",
"                zzzffor99www9222229ww999rofllMd                 ",
"                gA:**oNeerreeeeeeeeereeeNo&ddk>                 ",
"                gA:**oNeerreeeeeeeeereeeNo&ddk>                 ",
"                 A*oo@NCCNNNNNNNNNNNNCCCN@o&&M:                 ",
"              ::*f@<<N+++$$11eeeee11$++++N<@@A:                 ",
"                *c*$$N&4;XXXXX###XXXX;;4&N$**c                  ",
"                 *>@@e&;mQQgX+V22+XgQmm;&e@>>f                  ",
"                 *@##u=:gcc-2r+@@$r-cgg:=u#@@*                  ",
"                  @@@rpBrrr2w@.@@@$wrrrBpr@@@                   ",
"                  @@@rpBrrr2w@.@@@$wrrrBpr@@@                   ",
"                  @++9##$##+7++22+7+#$$##9+@@                   ",
"                  h::e1$@++#12rBB21#+@@$1edcc                   ",
"                  fhhOXX+@@111911911@++XOsM                     ",
"                   ccccd@##1BeBeeBer#@@dccg                     ",
"                     fzZN22lNW...WNl2NNZz:                      ",
"                      *2$llZ.......ZM$$2o                       ",
"                      *2$llZ.......ZM$$2o                       ",
"                      o<*==!.......!=**<o                       ",
"                      oo9==I=W===W=I=99oo                       ",
"                       @%<<=>f===f>=<%%@                        ",
"                        @11<<11111<<1@@                         ",
"                           19errre91                            ",
"                                                                ",
"                                                                ",
"                                                                ",
"                                                                ",
"                                                                "
};
