/* XPM */
static char *ca82aaa49f4f4fee9d0ff312ec7c2558epLDKkYwisspQymY[] = {
/* columns rows colors chars-per-pixel */
"64 64 226 2 ",
"   c #000000",
".  c #090702",
"X  c #0D0B04",
"o  c #0D0D0A",
"O  c #110E06",
"+  c #100F0B",
"@  c #151404",
"#  c #1A1507",
"$  c #13120D",
"%  c #1C1A0E",
"&  c #161511",
"*  c #191713",
"=  c #1C1B15",
"-  c #1F1D1A",
";  c #221E15",
":  c #211E19",
">  c #2C250D",
",  c #363404",
"<  c #242216",
"1  c #2B2316",
"2  c #2C2812",
"3  c #25221B",
"4  c #2A241C",
"5  c #2A2A1C",
"6  c #31271A",
"7  c #362C19",
"8  c #352B1C",
"9  c #262521",
"0  c #2A2721",
"q  c #2D2B23",
"w  c #2D2C2A",
"e  c #322D24",
"r  c #3B2E21",
"t  c #322F29",
"y  c #2E3120",
"u  c #343325",
"i  c #3B3324",
"p  c #363926",
"a  c #3C3927",
"s  c #35332B",
"d  c #3A352C",
"f  c #373828",
"g  c #3C3B2C",
"h  c #363531",
"j  c #393631",
"k  c #3C3A33",
"l  c #3B3B35",
"z  c #493C1B",
"x  c #423525",
"c  c #433927",
"v  c #4B3B27",
"b  c #453729",
"n  c #433C2C",
"m  c #4A3D2C",
"M  c #503F2C",
"N  c #423D33",
"B  c #4A3E31",
"V  c #413F39",
"C  c #3E412E",
"Z  c #3F4036",
"A  c #554708",
"S  c #54540E",
"D  c #5B550B",
"F  c #5C5708",
"G  c #4F4C10",
"H  c #6B5B06",
"J  c #645B0B",
"K  c #6A6508",
"L  c #6C650B",
"P  c #776908",
"I  c #726C0B",
"U  c #7C730C",
"Y  c #6A6714",
"T  c #6C6514",
"R  c #716813",
"E  c #7B7515",
"W  c #43422E",
"Q  c #4B412E",
"!  c #53432E",
"~  c #5B482F",
"^  c #454334",
"/  c #4C4434",
"(  c #454936",
")  c #4D4A36",
"_  c #45433B",
"`  c #4B453B",
"'  c #4D4A3B",
"]  c #534533",
"[  c #594434",
"{  c #544A35",
"}  c #5B4B35",
"|  c #534739",
" . c #544C3B",
".. c #5A4D3B",
"X. c #4F543C",
"o. c #5E5137",
"O. c #54523D",
"+. c #5C523C",
"@. c #614D34",
"#. c #614F3B",
"$. c #625237",
"%. c #63533D",
"&. c #69563E",
"*. c #6B593F",
"=. c #715A3B",
"-. c #494741",
";. c #484743",
":. c #4D4B43",
">. c #544E42",
",. c #5B4F41",
"<. c #514E4A",
"1. c #4F5042",
"2. c #555343",
"3. c #5C5343",
"4. c #5D5944",
"5. c #55524B",
"6. c #5C554A",
"7. c #5D5A4C",
"8. c #5A5856",
"9. c #5B5A56",
"0. c #625543",
"q. c #695743",
"w. c #645A45",
"e. c #6B5B44",
"r. c #625649",
"t. c #645C4B",
"y. c #6B5D4B",
"u. c #715E45",
"i. c #705E4A",
"p. c #645D52",
"a. c #6B5E51",
"s. c #645F5A",
"d. c #5E624B",
"f. c #5D6452",
"g. c #6D6146",
"h. c #63614B",
"j. c #65674A",
"k. c #6C624D",
"l. c #746146",
"z. c #7A6143",
"x. c #73634D",
"c. c #7A664D",
"v. c #75694F",
"b. c #79684F",
"n. c #656153",
"m. c #6D6353",
"M. c #656A52",
"N. c #6D6A54",
"B. c #63625D",
"V. c #6D655A",
"C. c #6D6B5D",
"Z. c #736553",
"A. c #796652",
"S. c #746953",
"D. c #7B6B54",
"F. c #73675A",
"G. c #746A5B",
"H. c #7B6D5B",
"J. c #6D745C",
"K. c #76735C",
"L. c #7D725D",
"P. c #5F6062",
"I. c #6E6B62",
"U. c #6A6968",
"Y. c #736D62",
"T. c #7C6F61",
"R. c #6E7563",
"E. c #757265",
"W. c #7C7263",
"Q. c #797667",
"!. c #7B756B",
"~. c #7D7A6D",
"^. c #7E7870",
"/. c #817A0C",
"(. c #8C7C09",
"). c #806B4F",
"_. c #816D55",
"`. c #816E5B",
"'. c #84735C",
"]. c #8B745B",
"[. c #88775B",
"{. c #827462",
"}. c #8A7762",
"|. c #847964",
" X c #8B7A64",
".X c #81766B",
"XX c #847B6C",
"oX c #8A7C6B",
"OX c #917D67",
"+X c #837E72",
"@X c #897F74",
"#X c #8A840D",
"$X c #8D850E",
"%X c #93880E",
"&X c #90920F",
"*X c #878617",
"=X c #8B8711",
"-X c #958A15",
";X c #9D9314",
":X c #A39517",
">X c #B09B17",
",X c #B7A917",
"<X c #9E9422",
"1X c #B3A123",
"2X c #8C816C",
"3X c #94826C",
"4X c #868273",
"5X c #8C8373",
"6X c #8B8872",
"7X c #8C857A",
"8X c #938572",
"9X c #968776",
"0X c #958973",
"qX c #9A8B74",
"wX c #938A7C",
"eX c #9A8D7B",
"rX c #9E907D",
"tX c #948D82",
"yX c #9A8F82",
"uX c #9B9386",
"iX c #9E978B",
"pX c #A29482",
"aX c #A59A8A",
"sX c #A79B8A",
"dX c #ADA392",
"fX c #BBB2A3",
/* pixels */
"0.`.,.y.F.y.0.%.m ] k._ d m..X+XV.a.T.oXr.0.n / n s s j l l l _ t h Z d 5 e y y 5 p p C ^ 4.N w.yX3./   Z...%.&.v c.x v ~ M v 8 ",
"A.i...a.0.i.y.q.] N V...e n.uXXXY.F.| oXq.D. .m n u j l l V l j l h g u q 5 0 ;.C p g C W n.t.A.{.y.F.  x.} e.l.! v ~ =.~ v x 7 ",
"A.r.Z.A.`.w.x.#...6.m./ j p.7X5Xa.V.0.D...0.c N ) n q _ l V <.h l t i u p y p * C y C C O.k. .m.A.D.].  k.} #.[ z.b @.~ @.v v 6 ",
"A.0.].}.0.A.}...] B m. .N T.T.oXm.8Xy.y.w.#.{ m ] a h :.j l l V t k s a 5 < = y y p W X.W n +.qXY.x.t.  %.q.v @.@.M x M @.M v ; ",
"A.H.x.{.{.y.t./ / N S.w.` r.Y.{.{.H.A.t.q.q.{ c ] a N N s s d t w ( y p q y 5 y p p p ) i / w.rXe.Z.A.  x.] ] $.o.Q $.Q M v v 7 ",
"0. XqXw.r.H.A.w.e...t.0.N y.W.{.oX8Xy.Z.x.y.] { o.` u e N d V _ h h g q y y y y y p g X.p W O.k.#.3.i.  e.x.q.6 } ! } $.M @.x 1 ",
"%.4.] 2.k.Z.b.x._...I.` k m.T.Y.0.|.>.D.].D.%./ { ` i ` 0 u _ t d :.C C y 5 y y p 5 u p a W O.%.q.| x.  i.u.u.n k.+.g.w.q.i x 6 ",
"e.%.) w...W.| 0.S.| t. .d 3.p.{.m.{.,.w.c.w.[.+./ ' p i j w _ _ k l y C C 5 C y 5 y a W p ^ O.2XA.w.x.  A.#.#.0.OX|.w.D.v.8 @.1 ",
"v.g.Q {  .w.S...o.{ m.3.f Q N.oXm.2Xk.D.S.0.W N.N.^ g N s w w ;.:.s g p f y 5 p u p y h f ^ ^  .y.0...  0.q.r }.; o & & o e } < ",
"{ o.O.O.+.) x.e.e...F...d d t.m.I.p.H.)  .4.Q n.^ ) ) _ l s d k s l ' f C y s 5 y y u C W W ) ..t.0.y.  A.{ r.oXq - = - - < } 7 ",
"l.v.O.+.w.x.e.e.i.e.m.2.j t.p.E.G.N.' :.` h. .g O.) ^ ^ ^ _ l s 1.l ^ C g p p 3 y q 5 s a ^ ^ 2./ 3.6.  ..Z. .t.t.k ; u a e ~ 5 ",
"g.g.{ O.w.v.q.%.#.B G./ 0 G.B._ I.4.>.J.n.1.7.7.7.' l j ` _ 5.' ( s C s h 2.g :.q y g ( ^ ^ ^ ^ 3.s.N   | w.Z.a.'.w.k.4.h.n o.i ",
"g.v.O.+.0.k.x...#.| E.c N p.p.8.` V.d 5.:.:.j 1._ 2.7.^ ' _ 1.1._ l Z C C ( P.l u w s k w a d ^ ` N 6.  >.Z...oX- & - - = d %.1 ",
"w.g...h.e.w.L.c. X{.p.| 0 n.Y.V.7.V._ 6.' 2._ 5.' f.j _ ^ n.f h 8.Z Z s l ;.s y y 5 t u d q j 0 s >.`   ^ ..x.{.0 * 3 0 * i l.e ",
"'.Z.w.t.t.S.0.'.A.r.V./ j +X:.;.` :.t _ _ _ 6.n.5.5.:.' h l ^ _ <.s g s ;.w p f w q u s s 8.s d N l _   |.^ `.F._ :.0 i q N %.r ",
"y.pXi.w.a.H.Z.A...5X5Xr.s V.m.7.2.V.N 4.k >.` ) 2.d.V.' :.g l e Z l C q l ` h Z s l l _ s 0 s s h l <.  tXr.0.6.r.3.n.4.r.^ 0.n ",
"{.5X`.}.G.H.A.y.y.:.pXF.t oX5X4XwXt.w.^ ^ ^ ....0.w.d 2.n.s ^ j s N ' q < 4 l l t e t t : s 0 4 t ;.w   | {. .2XsXL.m.Z.L.` q.i ",
"A.oXyXF.H.x.i.'.`.6.XXF.w A.oXoXH.k.+.) ] x._ N / ^ w.C.B.;.h l :._ l q <.;.q _ <.N :.` d s 0 t k h 5.  4.{ e.2XZ.F.t.W.'.4._.| ",
"dXtXpXy.H.].`.| A...T.H.0 y.a.{.S./ ].&.%.e.Q n e 8 8 8.^ ;.d d ;._ j s s ;.n 8.0 w V t 0 d s d 5.l ;.  h.y.w.g. .= 0.[ #.[ r m ",
"H.F.y.A.`. Xr.A.0...p.Z.d i.`.qX4.x.+.n m v x i c _ _ _ C _ _ _ ;.k w ;.w ;.;.<.h 6.V P.V b _ 8.w 5.8.  W k.+. .{ $.[ &.%.#.[ q.",
"oXOX!.eX`.y. X,.q. .@X,.i y.{ x.[.] { { v r 7 7 0 V p.U.` 5.` k N N 9.V ;.t t s 8.0 w t e q 3 8.s 8.q   e k.&.%.n e.o.z.#.&.c.i.",
"eXt.Z.'.A.A.D.A.t.] T...^ m |.'.+.! c ! $.i 7 ! x p.d e N N <.j <.d j t 0 k ;.t 4 0 0 0 q w t e ;.w t   { ^  .O.q.l.q.#.&.~ M u.",
"|.'.D.x.x.e... .0./ W.>.i 0.O.3...%.{ ! n Q x i c N N d l 5.s k V s.l e l t N w 0 0 d t 8.0 t d t _ d   y.x.3.&.qXl.].u.#.[ u.`.",
"A.3.+.%.w.t.{ ] O.n XX .i n.t.t.+.) Q m / / Q x i B d e d h l l V <.j d t V h s 0 e d h U.8.h s 0 s d   e w.o.+.{ e.e.c.#.[ [ #.",
"w.^ ..+.{ ) / Q  .) N.m.- / ' d Z./ d c / g g N Q y.s n _ 5.s h ;.V h t N t j k N d s ;.= w _ 3 s 8.s   u B { + & o - $ $ $ m ] ",
"` ^ i n ) o.Q / w.Q m.E.N 6.6.' ^ ' N ' ' j e n d ^ g N k s >.u t t ^ j h U.h t e q _ e k _ w 9 s 9 s   ` d t.k.3 - = * 4 0 `.| ",
"..n a c ) c n / g.) N.2.t 6.2.:.V l ^ ^ ' d s k j ^ / ^ g l _ d h t e t j q t w u 8.s l 8.s 0 y y s (   _ w.^ 1 w q g 5 ^ t y.{ ",
"W i a a n ! { e./ / V.N k t.;.>.` >.O.` _ w s d ` j s N d ` :.e e t ;.k j l e u w ;.j d :.( 0 5 * s d    .K.+.h.4.+. .) +.n A.B ",
"{ i a Q Q c } x 0. .5XV.s                                                                               ^ t.m G.d 0 W d N i 0.n ",
"{ a a { ) ! c m 0.O.p.| d  . .a...N  .n n ^ N g n N m ^ ] j d w t ` ^ u s j w s j p ( s q 3 d f u 0 p   J.' { E.$ o $ * + u q.i ",
"] Q a c $.%.%...t.2.oXm.` Z.r.n ..3.../ ` / g  .j d { Q / ! j r s _ ^ ^ f C f C f.( _ q C p N s g s )   ) | 0.W.3 = = 5 4 m c.] ",
"q./ v i $.l.$.+.%.` 6Xr.e r.i. Xx.4.i.{ 0.Q n n < d ] q.! #.n B 3 _ O.( f C ( 2.X.y 1.C f.g p N C 5 4.  D.8Xw.|.N u m B | : ).} ",
"e.%.8 x ! q.c.D.`.r.6.r.b A.q.,.i.c.%./ { )  .| B B ] } 4 v i 5._ q  .O.O.j.) O.M.C W C X.C C C C d.h.  e.2.0.>.y.e.^ %.l.i ].] ",
"o.{ $.] ] %.}.q.0.t T.,.N Z.]...0.} c.].o.+.&.} $.q.&.] } M N Q j e w.h.4Xd.( d.J.d.) C % ) C O.O.+.4.  V.y.A.oX.     .   N ].[ ",
"0.} B #.] v ).OX}.@XT.A.b F.q.i.%.u.....l.%./ ^ c.e.%. X*...a ! ,.5 ..N.X.4.^ M.5 M.4.C R.C ( j.4.f )   W.@Xt.oX3 * & * : 6 ].&.",
"D.0.b ] m w.0.m m ,.@Xp.N q.3.q.].i.n 3Xo.H.e.%.q.i c.c.} x m v Q ` ..C.K.O.j.X.~.j.C u p X.) W X.2. .  ,. .qXW.oXZ.N q.i.q.OX@.",
"i.r.B _.[ | r...i.,.F.w.n 3.A.3.q.#.q./ ..x. Xk.q.b.D.@.u.r v x./ / 0.7.2.^ E.2.M.) X.f p O.x W V.+Xt.  p.,.q.0.b r.0.i.q.q.u.q.",
"y.a.a.i.i.y.y.r.w.0.{.q.x ..0.] ..] q./ q.4.' k.D.N D.q.}.y.&.w.m { /  .f O.( ( g O.d.) W g n O.+.e.`    .4.B ] [ #.#.y.A.A.0.m ",
"'.a.r.i.b w.Z.| a.B F.B e .X!.E.!.XX  +X7X5X~.7X5X!.!.!.yXpX.XoX7X^.E.tXY.E.!.E.V.^.E.B.Q.Y.~.Y.E.!.E.  7X!.Y.!..X9XyXpXyXtXyXV.",
"r.y.A...c.0.3.0.r.r.F.[ q c.} %.#.N   H.>.6.V.H.6.k.H. .` ,.[ i.t.B w.7.6. .2.N.4.t.` 7.O.) x / ^ o.4.  0.^  .0.y.}.B c.a.{.F.` ",
"F.F.0.r...3.0.x...5.Z.| e { m ] m {   m.W.XXG.6.0.p. .0.r...m | y.i.[  . .| t.F.5X2./ >.4./ ] $.Q +.+.  | Q k.^ B M Z.x.Z.a.a.V ",
">.t...x.| 0.0.0.H.c.H.| e #./ ]  .y.  p.G.XXG.m.V.7.n.{ ;.w.i.{ &.t.[.r...2.2.q.sX}.W.Z.r.2.0...o.v.7.  n O.w.& * * * * & & 6.r.",
"F.6.w.H.| '.'.H.oX0.H.8.q b.l.m D.2.  6.5X!.XXS.W.r.3.0.| i.q.] ].'.Z.' 4.0. .+.aXE.0.Z.3.+. .v.+.&.D.  Z.w.o.S.: - * 0 t 4 .X0.",
"G.y.k.+.w. .c.n 8X` oX3.i 0.n t.e.p.  .XiX7XuXtXyX+XXX^.t c.i._.].y.oXsX+X+XY.wXfXdXsXyXuXG.+.+.) W /   S.x.0.i 0 0 : B g s +Xs.",
"E.w.4.} 4.w.+.w.0.V.T.m e  Xv.e.S.3.  V.8XV.y.oXr.Z.0.>.6.].u.&.q.w.q.x...+.D.w.0.3Xy.8X{.XXw.+.Q x.x.  0.x.k./ ^ +. .' 4.j XXI.",
"W.h.w.4. .g.+.k.3.V.wXm.' K.o.w.y.:.  .X4XF...A.}.w.e.,.` i.M q.c.q.| >.+.x.e.3X X}.0.m.m.0.A.+.} Q {   e.e...3.n ^ u ' d _ 4XoX",
"W.m.) ^ / 4...+.H.W.~.d ^ ].4 1 |.:.  m.V.3XH.}.i.r.q.@.t.,.u.&.&.l. .XXe.x._.].3X].0.0.m.4.} $.{ W e.  +.+.0.m.& o + * o l .XY.",
"wX0Xv.+.4.e.w.+.3.>.T.3.i qX) g.x.S.  S.a.qX].3.D.i.M q.,.}.).u.$.0.....D.x.[.].q.%.Z.t.0. .x.&.Q { {   0.e...y.d 3 = 3 N :..X6.",
"XXV.t.h.4.k.+.| m.4.W.) w  Xv.a c /   F.4.}.'. Xy.q...| ` #.#.q.} q.n ..! } l.c.] 0.e.w.w. .{ ! o./ ^   Q w.w.e.4.d u ^ ' ;.H. .",
"XX0XeXS.w.h.w.S.H.3.sXO.u '.N...] /   t e e e i r 0 : : ,.u.].q...u...4 4 ; 4 4 e r e q 3 +.} Q W o.D.  O.w.e.^ D.g.j.Q.t.5.Y.3.",
"pXwX2X) 3.k.m.4.N.O.m.3.t r  .w.t.N.  V.V.[.0.{ %.q.u.[  ...e.$.%.0.q.w.[.] b.$.A.D.0.wXm. .! n ) ] N    .O.O.e..     .   9 E.<.",
"7X5XK.k.4.h. .O.m.2.XXv.3 0.a } ..]   G.F.c.Z.[.e.*...&.` 0.9Xq.l.q.2.e.e.n $.} q._.t.5X4.w.n Q k.{ 0.  O.W / j.* - 0 : 0 w T.N ",
"wX2XXXt.y.2./ 4.m._ W.e.q / 8 +.$.+.  W.0.t.x.u.q.} ] } 3.y.].%...L. .V.e. .oX].'.'.L.h. .k.{ n ] Q ..  / ^ / K.w.k.N.n.p.I.Y.p.",
"uX!.9XZ. .Q.4.S.2XO.6Xy.s %.v n G.d   XXG.r.qXt.qXb.{ ..e.x.0.t.] Z.m.4 _.e.l.q.v.0XK.K.) d k.c n / g   ) i g { O.x.S.S.F.m.5.>.",
"eX8Xn.m.k.w.) w.XXO.{.0.e { x.! o.]   t t t e e 4 n 3 3 ,.i. X+.0.w.r.d e N e q s N d 0 3 f { r r  . .  4.^ h.S.O.w.0.A.Z.Z.V.>.",
"W.9XpXqX4. .A.N./ {.W.r 0 } $.} A.>.  ` r.t.t./ ..x.....3.o...%.+.w.g.v._.].b.H.0X_ 5Xm.e.Q i i Q 8 [   w.e.e.k.].D.m.i.,.a.0.p.",
"XX^.wX}.Z.x.r.r.7.7.F...4 } m Q ! ]   ,.y.8Xp.0X+.%./ %.t.{ q.#.g.x.3.>.A.3.Z.3.3Xk.|.7.+.n } $.v c g.  e. .D.0...e.oX}.y.}.>.` ",
"F.V.a.|.A.OXn.a.A.t.Y...3 ! x ! m j   / 2.' e... .0.+.e.>.l.e... .D.`  .0.0.'.y.8XW.5XE._ n } $.m c  .  w.t.0.u.w.0.t...A.H.B ..",
"Y.V.m.Z.y.H.0.m.3 i V.{.0 ! x c m m   ,...,.m.x.i.e.} ..] m ] s D.t.' y. .'.A.'.rX XtXF.t.+.] &.o.m q.  ^ ....y.} { ..A.y.i.e.m ",
"a.,.p.G.r.t.Z.g k.3.V.| 3 N Q ^ n g   | N 0._ _ ` x.5./ !.x.D.i.n S.n 0.n '.D.0.L.s l S.` N Q j Q $.m   { Q | #. .] [ e.[ q.B N ",
"$ o + T ,X;X-X@ $ $ Y.G.0 * = $ >X=XH T % 2 2 =X#XI 5 $ + -XL :X@ o o Y :X,X-X$ + % L F &X= 1 $ :X=XL /.# < > ;X:XL ; $ $ -XJ /.",
"+   G L I =X+ X % P Y.>.9 X % J <XL ;X< G 2 D I ;X; o o P /.(.# o   R I I $X@ X > I F U . X $ H <X(.,X8 1 > /.T I * + + (.J H O ",
"o , P $XU o * 3 /.&XT.` t = S K P ;XO . % D ,XJ < X $ K -X-X# $ o A U &XU o < 5 /.&X#X$ + $ S K (.1XO . > A ;XF < O + H /.T # o ",
", U *XG o + * S , L 6.N 9 /.J $XE $ o # A P I . $ . A L J + o $ J R *XG $ $ 1 S , Y $ . + /.J %XE o O @ S F I . $ o z J D # o + "
};
