/* XPM */
static char *c0ae84d2af1a4dfbb502abeee88d647c01rBmbfnKKsX0a2w[] = {
/* columns rows colors chars-per-pixel */
"64 64 215 2 ",
"   c #101010",
".  c #131111",
"X  c #131211",
"o  c #111112",
"O  c #131313",
"+  c #141112",
"@  c #171112",
"#  c gray9",
"$  c #191110",
"%  c #1B1613",
"&  c #1C1714",
"*  c #1E1917",
"=  c #1E1B19",
"-  c #1A1D18",
";  c #1C1C1B",
":  c #211111",
">  c #221713",
",  c #251513",
"<  c #221914",
"1  c #271914",
"2  c #241B16",
"3  c #231C17",
"4  c #2C1C13",
"5  c #281C15",
"6  c #291F17",
"7  c #311B15",
"8  c #2D2116",
"9  c #232319",
"0  c #23201C",
"q  c #23211F",
"w  c #2B2119",
"e  c #28201B",
"r  c #29231C",
"t  c #302317",
"y  c #362116",
"u  c #372519",
"i  c #342719",
"p  c #372619",
"a  c #30241C",
"s  c #32261E",
"d  c #39251C",
"f  c #38291D",
"g  c #3F2B1F",
"h  c #212021",
"j  c #222221",
"k  c #202222",
"l  c gray15",
"z  c #292522",
"x  c #2E2521",
"c  c #2D2620",
"v  c #2B2724",
"b  c #282827",
"n  c #2D2E2C",
"m  c #2D2D2E",
"M  c #2E2D2E",
"N  c #2C2E2E",
"B  c gray18",
"V  c #3F2422",
"C  c #302823",
"Z  c #312C27",
"A  c #352C26",
"S  c #342E26",
"D  c #3F2B22",
"F  c #382C23",
"G  c #392E23",
"H  c #3D2E20",
"J  c #312E2A",
"K  c #383028",
"L  c #3A332E",
"P  c #3E322E",
"I  c #353235",
"U  c #333435",
"Y  c #373735",
"T  c #343537",
"R  c #393532",
"E  c #3D3E3D",
"W  c #3D3C3E",
"Q  c #3D3E3E",
"!  c #411715",
"~  c #441D18",
"^  c #531D17",
"/  c #412219",
"(  c #42241C",
")  c #412818",
"_  c #4A2E1B",
"`  c #4D291F",
"'  c #58241D",
"]  c #4A301E",
"[  c #462422",
"{  c #402E20",
"}  c #482B21",
"|  c #412C2E",
" . c #5B2823",
".. c #5C2F22",
"X. c #423023",
"o. c #473227",
"O. c #453526",
"+. c #483223",
"@. c #4A3525",
"#. c #403228",
"$. c #42352A",
"%. c #4C3929",
"&. c #553023",
"*. c #533127",
"=. c #5B3027",
"-. c #5C3524",
";. c #543823",
":. c #52322F",
">. c #5F3729",
",. c #513C2A",
"<. c #513C2E",
"1. c #543E2C",
"2. c #403830",
"3. c #453E33",
"4. c #473C35",
"5. c #443C37",
"6. c #4B3C30",
"7. c #4C3E31",
"8. c #423E3A",
"9. c #553A35",
"0. c #6A3D2B",
"q. c #5C4025",
"w. c #5C422A",
"e. c #40403E",
"r. c #4A4138",
"t. c #4F473C",
"y. c #564230",
"u. c #5B4431",
"i. c #5E4733",
"p. c #5B4535",
"a. c #584734",
"s. c #544538",
"d. c #56473A",
"f. c #51453E",
"g. c #5E4B38",
"h. c #76442C",
"j. c #664C33",
"k. c #664D3A",
"l. c #654F3E",
"z. c #724730",
"x. c #734F3A",
"c. c #61513C",
"v. c #6A513C",
"b. c #6E553C",
"n. c #7D5538",
"m. c #4D4540",
"M. c #4C4744",
"N. c #494947",
"B. c #544B41",
"V. c #5E4D41",
"C. c #5B4F47",
"Z. c #584F49",
"A. c #5F5142",
"S. c #5B5145",
"D. c #56514D",
"F. c #5F544B",
"G. c #535351",
"H. c #5F5954",
"J. c #5B5C59",
"K. c #5D5C58",
"L. c gray36",
"P. c #6B4F4E",
"I. c #685441",
"U. c #6E5842",
"Y. c #6D5947",
"T. c #6C5C45",
"R. c #67594B",
"E. c #625C4F",
"W. c #6A5C4D",
"Q. c #725C44",
"!. c #785840",
"~. c #785F44",
"^. c #715D4B",
"/. c #655951",
"(. c #685D54",
"). c #75664F",
"_. c #78614B",
"`. c #7F6249",
"'. c #7E684D",
"]. c #6D6659",
"[. c #6B625D",
"{. c #6E625C",
"}. c #776251",
"|. c #716154",
" X c #736656",
".X c #7B6954",
"XX c #71675D",
"oX c #7E6E59",
"OX c #7F6D5D",
"+X c #676766",
"@X c #6B6661",
"#X c #6F6F6E",
"$X c #756E62",
"%X c #7C6E60",
"&X c #736E6B",
"*X c #7D7268",
"=X c #7E7871",
"-X c #7F7D7C",
";X c #896C4C",
":X c #806C53",
">X c #836F56",
",X c #897356",
"<X c #82725D",
"1X c #8F7C5D",
"2X c #867862",
"3X c #8F806D",
"4X c #958160",
"5X c #978569",
"6X c #99896F",
"7X c #8C847B",
"8X c #948974",
"9X c #988D7C",
"0X c #8C8882",
"qX c #8A8A89",
"wX c #979390",
/* pixels */
"{ f v C R t w H s C S C Z C G s X.C S L A F G G C D z b N k j l B b b l T b k { v f J C f S S f B B B Z n J n H v X.8 i g 5 s i ",
"X.b.XX:X~.n.U.T.&X>X*X<X=X=X@XY A @X2X-X#X#X#X#X2X#X#X+X+X+XN.B T G.+X+X+X+XG.L.#X+XXX$X,X*XV.o.B ^.2X,XXX.X%X<X=X'.`._.T.'.a.) ",
"%.k.b.I.j.j.y.Q.f.k.k.v.I.g.c.8.B L./.j.G.G.+XL.G.L.L.N.+XN.W B T N.N.N.N.G.e.G.N.$.M.K.j.N.B.w.b g.:X.Xy.s.R.g.I.v.T.g._.%.a.f ",
"p %.l.w.u.w.d.r.+.,.a.%.y.$.X.s J 8.g.O.e.R G.G.8.I.L.e.G.N.W b b W 8.T W W W T C o.%.#.@.R $.C p { u.B.r.P s.@.r.y.j.u.j.j.y.G ",
"f X.+.@.{ %.%.%.$.#.) r.<.P t w c T R @.B T M.N.4.I.y.T W T B l l B B I l B T l R p J R S N ] j C J $.#.8 S %.G P k.3.y.+.X.i i ",
"t 2 > 5 5 2 8 5 5 ; * - < < * t j ; 5 5 - ; ; ; # 3 & ; # # h h h ; - h k ; k ; < 5 3 ; ; ; 3 r h < < < > 2 * * > 5 > - < & < r ",
"t H f G H X.g X.] G c G c g s B J v c i J B B C x F G B B B l B M l b M m B B B B G b J Z B f X.G s p s J z J f C G H ] g g f u ",
"H ^.2X5X4X;X,X'.oX,X2X2X=X7XK.J L @X<X1X&X+X+X+X[.@XK.#XG.+XB B b N.+X#X#X+X+X#XG.3X2X=X7X&Xm.g F '.,X=X&X=X/.&XW._.b.1Xb.;X<.G ",
"{ }.Q.v.v._.d.c.E.OX{.L.+XL.#XW %.+X+X XL.L.G.D.M.G.N.L.G.N.N.l B L.G.N.N.G.T G.G.^.+X].XXL.W #.X.s.S.+X+X/.(.c.F._.s.j.v.j.c.c ",
"G g.c.}.U.y.,.f.g.k.Y.l.@XG.G.Y t.m.D.g.L.E G.m.Y W e.G.N.N.e.B B R 8.L.N.N.T N.d.C.K.S.K.N.f.G r.u.d.N./.# Y.Y.a.s.a.Q.( Y.g.f ",
") c.v._.v.,.8.w.g.V.U.c.L.d.M.R E N.G.v.L.W T e.J T R G.W e.B b B B W G.6.| N e.8.8.N.r.G.M.i.v L $.K.G.<.%.p.V.W y.g.R.l.~.g.t ",
"%.g.k.U.v.g.k.l.i.J.c.A.G.8.8.Y %.W N.P N.N.N.N.W W m G.W W B l N W 8.G.M.e.Y e.W s.N.G.D.5.r.J H %.R m.:Xw.6.R.d.g.,.K.k.@.%.p ",
"%.j.c.# g.v.i.l.w.g.g.V.@X%.M.S R N.e.@.e.e.G.W Y W B e.T e.B z B R 8.8.8.8.Y N.W T N.W D.%.J J F r.8.e.u.y.c.a.y.s.{ C g.I.%.w ",
"r.%.G.v.a.g.w.w.w.k.k.y.G.d.r.j m.e.e.5.8.e.N.e.T N.Y R B B T j T G d.8.J e.e.N.W W G.N.G.N.Y r 6.,.G.e.L.w.R.d.<.v.l.6 u.g N.i ",
"o.g.%.j.i.a.s.B.g.u.I.s.Y.r.Z.S r.m.W l.M.8.Y B E B b e.Y T B j B R F R R e.e.T N.Y N.W N.8.R b #.R R N.w.<.d.d.g.%.{ I.a.V.w.C ",
",.%.%.I.<.i.I.Z.s.s.i.<.g.t.8.G 6.8.Y 6.s.e.B T Y T T e.B U N j B l C m.J Y N.W W E N.W Y E R c o.G N.8.M.a.d.#.k.d.p.g.i.a.y.w ",
"{ j.@.v.y.d.%.u.j.W a.y.I.d.d.f R R 2.Y 2.R R Y T e.B T R N.N h N Y N M.Y W N.Y N.B E T Y R R b d B R e.N.5.2.R 6.y.u.N.%.v.) 8 ",
"<.{ { a.{ m.,.@.w.J g.8.6.d.V.s 5.r.M.N.8.Y 8.B Y J B N T ; e.h B j l U l N I Y B B B J I Y R 0 r Y E V.e.$.%.J ) 1.y.B.y.$.g.8 ",
"%.f +.u.+.R ;.%.,.e.l.i.B.%.<.i 6.r.N.Y R R W E R R B R Y W b N B l b N.v N B B T K %.Y J.R J w R N.a.g G G O.N.%.,.i.m.<.g.,.8 ",
"o.y.8.y.y.o.{ r.{ 6.t.D.E.r.%.w H 8.r.e.L B M.E B R b v Z Y N h B B B Y U l B T R $.N.E G.8.X.w n X.y.f 8.%.d.w.9.,.,.y.y.F.%.8 ",
"t f H o.) H S S X.H H %.G f G ; j { P $.f r G S b b j q v v h k h h k l ; j b b v J s C N r Z 3 9 f c H G f G { $.) t d @.%.8 < ",
"t 8 2 w 6 3 8 w b w 5 8 6 5 5 c 5 5 2 2 3 ; t w 0 ; ; ; ; ; h k B k ; k ; ; j 6 z w w 5 0 5 w s v 9 5 5 < < 5 w r > ; < < > 8 5 ",
"{ m.a.H %.j.,.{ A %.<.y.R.,.@.6.e.%.8.r.M.d.G.N.8.e.8.8.M.T 8.e.T e.T T I W W I J Y 8.R 2.9.4.5.Y J P 5.R 2.P P R %.2.$.4.2.O.y.",
"@.M.3 l m v v j 0 c C r.(.@XD.o # 2.D.:.8.K.D.J 8.G.G.J.g.I G.Y e.G.e.N.N.N.e.E I R e.8.G.M.8.x e.B P e.v e.S L C J B 4.G C G { ",
";.r.B l b Y b B B B v b D.p L.o (.| g.$ /.$ Y.$ B.+ A.o d.@ G.@ T W L.W l e.T 8.7.Y e.$.{ J ; h R w / ) / ) d l +._ } 8 4 ) p G ",
"@.r.l B B B U B B U B l G.N.#X  y.O g., %.+ y.+ <.  r.  e.o B.@ N.W N W l I J H K R #.r * G C q R 8 f F j b j 6 f 5 _ u 8 ) ) t ",
"O.R H.J r.R /.7XY b /.B e.G.N.G.G.+ G.$ R.o l.$ a.X X.  $.$ d.@ b B U j h J T A M b { 3 a v x 2 J r s f h G B w s p f u p f t i ",
"H f 3 o.i X.$.9.c %.H %.| R N B S P R y.W R _ 4.B.%.%.p w ( R B b k j ; 6 t S s v A w ; r v j 2 & j w $.#.6 B $.L w x 8 { %.o.c ",
"C w t f p t c f f t x v h c v l 5 w c f 3 c F H H f 6 q F w s 3 k k k N h s f G Z l V v p p s c 6 t C C v c J F c s 8 p d 8 f S ",
"H ,.k.v.v.c.T.c.I.S.L.G.G.L.M.J #.d.F.D.}.L.+XD./.g.p.I.g.y.R s Z T N.G.L.N.L.N.G.H.c.B.M.M.8.n o.s.j.j.I.R.+XS.I.I.a.g.j.<.;.p ",
"H 2X1X1X1X,X,X1X2X7X2X=X2X7X-X$.%.<X=X2X2XqXqX=X%X>XoX~.}.=XK.J C +X-X#X2XL.@X2X2X-X7X2X2X-X+XR W 2X;X5Xb.3XqX=X&X;X'.@X_.,Xb.g ",
"p i.^.k.j.<.j.k.I.v.^.R.Y.p.v.J G /.I.I.L.L.L.G.S.I.g.s.8.8.8.J b W N.e.e.8.N.N.8.m.R.D.N.E M.I F s.s.I.S.B.D.g.i.i.1.G S %.%.) ",
"C ) R.j.v.j.y.%.H u.u.X.S.M.a.j J N.M./.8.Z.G.m.o.v.5.J %.5.B h b b M.m.N.R 4.8.8.4.d.M.M.M.e.r H r.,.S.D.k.V.,.a.v.%.<.g.y.G w ",
"t < 8 8 { r w f c f w s C c s ; j ; B B l N B l H R h b k ; ; h m ; h h b j b b l f r v J B b 3 8 ; c s c v v s S { s p C p < w ",
"f 5 w w w y 8 8 t t t d s r w C J h r r h b m k s 3 ; j j ; ; N b h h h j b k v C 6 r w t w a i F 6 t r r t t u w w < 5 w 5 5 i ",
"H X.@.o._ %.R %.@.2.$.%.O.O.b B M M e.e.8.8.e.e.J R b B K Y N N m T T R M Y Y e.Y $.O.r.@.#.f ( A R O.6.,.@.;.K J ] p H X.+.g g ",
"@..X5X6X5X2X9X6X2XqX8X7X8X8XI.B 8.2XqXqXqXwXqX2X9X0XqXqXqX2XJ.l I -X-XwX0XqX0XqX-X0X8X5XqX2XG.G r.%X2XwX5X6X6X5X9X5X4X0X6X4Xn.G ",
"j.Q._.v._.i.^./.+X&XY.|.R.Y.|.A G.L.L.#XL.K.L.N.V.8.W G.D.D.G.l G.L.+X+X+XL.(.D.3 |.B.V.G.L.+XH B./.g.R.a.Q.j.y.1.c.H T._.T.v.i ",
"6.T.D.+.g.d.a.D.{.Y.d.$.J.s./.c W G.L.L.G.K.L.N.S.N.E N.o.G 5.b N.G.G.m b h j h 3 z k 6 N N.P.c +.<.I./.D.y.g.I.i.<.u.u.U.k.E i ",
"y.y.%.o.%.d.d./.O.y.A.H.I.J.a.A T W L.L.G.D.G.L.G.B.m.K.y.d.8.0 W G.# k 0.-.O h.h.F *.*.[ k Y H #.V.k.V.$.c.r.c.I.v.i.j.T.c.k.w ",
",.k.%.j.v.g.i.(.R.F.R.v.s.H.w.f e.G.G.G.L.+XN.L./.e.Y D.S.%.Y b W L.z $ ` ; @ q { 2 # [ $ c 8.o.5.d.k.v.B.D.V.I.R.d.o.v.y.u.y.t ",
"w.%.i.}.Y.I.R.I.s.G.I.U.y.W.v.f 4.N.@XD.G.+XL.G.Q t.$.v.r.B.r.b e.W B & j '   6  .# ^ ; 1 J 6.c %.r.V.r.M.@XB.V.I.Y.%.G.6 p.I.d ",
"y.l.y.v.X.G.i.I.I.R k.S.%.d.r.s 6.I.R.W G.L.L.W E D.%.I.r.a.E j N.L.h B &.[ # z.!.#.{ V t C a.r 4.r.l.%.U.R.l.Y ,.k.i.H.g.V.u.6 ",
",.y.<.y.v.t.O.i.@.W c.6.d.u.Z f 6.v S N.L././.N.e.9.r.m.D.E e.k W N.N > } } 5 n.!.*.} } 2 s K f 5.w.u.$ g.I.s.Y l.k.y.D.Y.I.i.p ",
"a.%.E v.T.j.w.%.i.6.6.# N.6.f.f %.B.I.8./.D.G.T 2.B 5.N.Y W W B I N h # 0.-.3 x.;X( } ` 2 2 ) t y.y.v.y.J./.Z.p.I.I.I.v.c.B.d.w ",
"y.y.6.# d.y.6.%.@.k.k.V.B.5.r.f 5.s.R.5.C./.8.E %.c r.r./.N.Y j Y # h > -.>.* *.0.~ ` *.w 0 r.s 5.,.c.g.R.R.4.<.x %.i.u.I.g.I.8 ",
"+.,.y.g.%.u.P %.m.i.u.1.u.G %.F @.i.I.G.D.G.M.%.F g e.N.e.e.W j e.8.h < -.-.+ -...V D ` 7 9 G i $.r.c.l.R.I.d.k.V.s.V.a.i.w.k.w ",
"X.G %.a.%.g G o.$.<.y.u.y.%.,.p $.d.4.B.B N 8.r.l.e.m.N.b W R b N.5.B r =.p + ) *.[ g &.> z 9.8 6.m.#.M.p.8.V.V.V.y.B.a.,.l.o.p ",
"v.<.,.w.,.L O.u.,.t.%.%.O.r t.c O.6.G G.D.N.S.d.k.N.N.E Y E T q N.g.n > ~   @ - 5 ! # / O q r r O.y.i.s.d.f %.d.k.j.j.d.y.y.y.p ",
"s P %.y.i.b H +.%.% y.f.A.$.W.f $.u.%.W M.E # r.F.N.e.e.W W l b E W z $ w w X r H < t s < q 9.) J $.k.y.k.H O.L.Y.a.g.%.,.u.6.p ",
"+.<.5.r.L %.X.<.i.%.y.g.s.,.9.s Y y.g.E e.R I.g.N.N.+ J e.T N v W v W   < % s & 6 ; 3 < & L #.f g G g.K r.E M.Y.i.u.,.@.<.3 6.{ ",
"%.u 2.1.u.y.#.X.w.%.u.y.P X.%.b $.d.m.R R R g.K.N.e.@.Y N.N.T k 0 J N.#.] P 9.$.N.P %.L %.$.$.C Y #.I.1.r.@.w.^.V.,.,.y.i.y.%.6 ",
"+.,.] %.%.i.%.%.d.+.+.a.d.H t.b T 6.(.k.G.8.+.r.W N.8 @.Y T B h b R e.M.s.g.s.<.B.d.d.g.g.Y e.s Z L g.y.i.9.H @.u.1.G F <.<.,.t ",
"+.,.+.j.y.o.+.%.y.,.%.a.y.] g s $.%.s.6.I.#.i 6.N.e.5 P 8.I J k B T E N.T 9.a.$.G.W s.s.%.E K r S $.a.5.s.X.f y.#.%.f r p.o.O.t ",
"f u f +.g ) <.%.O.$.g %.+.M.J r J 3.y.i.M.l J 6.B l p S l l 3 k b b Y D.G ( 6.$.r.U R s.r.U G j 8 R %.%.%.f 8 %.{ F F %.o.{ f p ",
"< > * 1 5 9 5 2 8 ; G w w < < < , 2 6 8 j ; < 3 ; ; < & ; ; # ; # ; ; w ; 2 w 2 w ; l w p ; 2 < % < t 5 3 5 < 5 5 > < - 8 < % 5 ",
"2 5 5 2 < 5 5 8 r 5 8 w 8 5 w 0 2 5 w w h h w r k k 8 q j - h j ; ; w 3 3 3 3 8 c q 8 w 8 q 8 8 5 8 8 8 0 w 8 8 5 4 5 5 8 > 8 8 ",
"p p t w p p p i f i H #.c J C c J s S G B J f l J k 3 3 b 0 h 0 b B r 0 C c C t b i f S i S t p f i H g b ) f p t t w 8 p 8 w w ",
"j.l.v.c.k.j.s.<.W.v.R.t.K.r.<.e.H.J.N.A.G.L.g./.N.D.i.u.D.N.D.E W E | r.d.5.M.%.G.a.Y E d.6.N.W E a.<.o.I.H.B.I.d.v.d.k.Y.Y.I.|.",
"<.i.I.g.} k.u.V.Q.k.J.D.m.R.g.,.M.K.W.R.L.[.a.B./.D.r.m.R.8.N.W U Y a.6.i a.6.y.D.<.m.e.w.8.8.M.5.a.%.6.B.R.a.i.k.I.<.1.Q.w.k.o.",
"H a.y.1.1.k.M.c.l.r.S.N.N.g.y.i.K i.F.k.D.G.B.D.N.G.d.g.N.R N.N.W e.R X.@.y.%.w.J r.e.N.w.e.n r.$.%.%.y.i.v.i.d.D.g.g.u.g.y.y.I.",
"o.1.o.{ %.%.u.v.u.8.o.r.f.%.a.) W Y g.f.K.M.t.S.D.L.f.%.E 8.R W R R Y #.o.+.<.8.e.@.n e.%.L E r.r.w.#.6.j.i.i.B.A.Q.g.N.i.k.y.g.",
"<.H <.o.u.l.c.R.I.t.s.D.3.r.s.5.3.V.B.9.G.M.a.F.M.v.d.X.r.r.B Y B b J O.$.%.<.r.e.O.Y e.n n P J O.,.@.+.w.#.@.%.g.d.i.o.y.k.g.i.",
"t ) R <.u.a.%.g.g.y.B.%.N.%.5.Z 3.M.r.G 8.N.R d.S.m.e.e.B ; B B B Y f S S e.f e.N.i Y P $.s n R 9.1.{ o.Y y.f B.y.s.8 @.H H 8.o."
};
