/* XPM */
static char *_2f7db2316ca4cf1cbeb4d04e25544f30zf2TjM2M45lsNlE[] = {
/* columns rows colors chars-per-pixel */
"64 64 2 1 ",
"  c #800002",
". c white",
/* pixels */
"                                                                ",
"                                                                ",
"                                                                ",
"   .............................  ............................  ",
"   .                           .  .                          .  ",
"   .                           .  .                          .  ",
"   .                           .  .                          .  ",
"   .                           .  .                          .  ",
"   .                           .  .                          .  ",
"   .                           .  .                          .  ",
"   .                           .  .                          .  ",
"   .                           .  .                          .  ",
"   .                           .  .                          .  ",
"   .                           .  .                          .  ",
"   .                           .  .                          .  ",
"   .............................  ............................  ",
"                                                                ",
"                                                                ",
"   .............................  ............................  ",
"   .                           .  .                          .  ",
"   .                           .  .                          .  ",
"   .                           .  .                          .  ",
"   .                           .  .                          .  ",
"   .                           .  .                          .  ",
"   .                           .  .                          .  ",
"   .                           .  .                          .  ",
"   .                           .  .                          .  ",
"   .                           .  .                          .  ",
"   .                           .  .                          .  ",
"   .                           .  .                          .  ",
"   .............................  ............................  ",
"                                                                ",
"                                                                ",
"   .............................  ............................  ",
"   .                           .  .                          .  ",
"   .                           .  .                          .  ",
"   .                           .  .                          .  ",
"   .                           .  .                          .  ",
"   .                           .  .                          .  ",
"   .                           .  .                          .  ",
"   .                           .  .                          .  ",
"   .                           .  .                          .  ",
"   .                           .  .                          .  ",
"   .                           .  .                          .  ",
"   .                           .  .                          .  ",
"   .............................  ............................  ",
"                                                                ",
"                                                                ",
"   .............................  ............................  ",
"   .                           .  .                          .  ",
"   .                           .  .                          .  ",
"   .                           .  .                          .  ",
"   .                           .  .                          .  ",
"   .                           .  .                          .  ",
"   .                           .  .                          .  ",
"   .                           .  .                          .  ",
"   .                           .  .                          .  ",
"   .                           .  .                          .  ",
"   .                           .  .                          .  ",
"   .                           .  .                          .  ",
"   .............................  ............................  ",
"                                                                ",
"                                                                ",
"                                                                "
};
