/* XPM */
static char *_e8fc360e2f0481fb6c83a4f45c7d86eginjjQxeRP9BY8DF[] = {
/* columns rows colors chars-per-pixel */
"64 64 149 2 ",
"   c gray4",
".  c #0F0B0A",
"X  c #0D0E0B",
"o  c #09090F",
"O  c #1C0B09",
"+  c #11100B",
"@  c #13140F",
"#  c #1C120B",
"$  c #16190A",
"%  c #17180F",
"&  c #100B10",
"*  c #1A1610",
"=  c #1D1E14",
"-  c #141C1D",
";  c #28130F",
":  c #3A110B",
">  c #361C0A",
",  c #361F12",
"<  c #372A0A",
"1  c #232517",
"2  c #282013",
"3  c #282616",
"4  c #222218",
"5  c #27231A",
"6  c #232418",
"7  c #292A1B",
"8  c #362A14",
"9  c #352119",
"0  c #352C1B",
"q  c #2C2D26",
"w  c #2F3120",
"e  c #2F3126",
"r  c #333522",
"t  c #383B26",
"y  c #441C0A",
"u  c #57110B",
"i  c #441F1B",
"p  c #541E1B",
"a  c #62130A",
"s  c #640E12",
"d  c #7C0A10",
"f  c #641C1C",
"g  c #7D1F1F",
"h  c #442B0A",
"j  c #5C250F",
"k  c #5C3E0F",
"l  c #442A14",
"z  c #432C1C",
"x  c #52291D",
"c  c #443613",
"v  c #44381E",
"b  c #52391D",
"n  c #79200E",
"m  c #7A3E0D",
"M  c #64281D",
"N  c #62381D",
"B  c #452D25",
"V  c #542D26",
"C  c #443C25",
"Z  c #533927",
"A  c #403D35",
"S  c #583C33",
"D  c #633728",
"F  c #7D2C34",
"G  c #3C4029",
"H  c #54441E",
"J  c #7B560F",
"K  c #62471E",
"L  c #665210",
"P  c #64521F",
"I  c #494020",
"U  c #43482C",
"Y  c #4B4E2F",
"T  c #5A4F21",
"R  c #534728",
"E  c #54502D",
"W  c #484C31",
"Q  c #554732",
"!  c #4B5032",
"~  c #515634",
"^  c #624728",
"/  c #774121",
"(  c #695E21",
")  c #62532A",
"_  c #695F2D",
"`  c #795823",
"'  c #634434",
"]  c #625833",
"[  c #59603A",
"{  c #5F653C",
"}  c #746537",
"|  c #766F3B",
" . c #504A47",
".. c #636A40",
"X. c #697043",
"o. c #707947",
"O. c #930311",
"+. c #9B0D1B",
"@. c #851019",
"#. c #991B12",
"$. c #983F0D",
"%. c #9B1D21",
"&. c #9B3A25",
"*. c #883434",
"=. c #BD2025",
"-. c #BF332C",
";. c #A42A31",
":. c #E63D12",
">. c #CA3F38",
",. c #99550E",
"<. c #877010",
"1. c #9B7113",
"2. c #965C24",
"3. c #835635",
"4. c #876F28",
"5. c #9E722A",
"6. c #836636",
"7. c #936735",
"8. c #85723B",
"9. c #9D7C3F",
"0. c #A86637",
"q. c #C0550F",
"w. c #E8770E",
"e. c #C25D25",
"r. c #E55C22",
"t. c #E55D3D",
"y. c #DF7E3C",
"u. c #857643",
"i. c #A86546",
"p. c #C37F5A",
"a. c #77804C",
"s. c #7F8851",
"d. c #C79218",
"f. c #C1823D",
"g. c #F8942F",
"h. c #858249",
"j. c #8A9459",
"k. c #98A160",
"l. c #ABAF6D",
"z. c #AAB56B",
"x. c #C89B46",
"c. c #DC8056",
"v. c #C4A457",
"b. c #CBB759",
"n. c #EDA643",
"m. c #F5B74A",
"M. c #E8AD52",
"N. c #F7B752",
"B. c #DCCE6F",
/* pixels */
"G U ! U W U ~ ~ ! { [ [ W [ { [ [ G ! { U w r Y o.U U ~ U ! t W ~ [ ~ r ! ! ~ G [ Y ~ { { ! [ ~ ..{ W [ ~ U U t ..{ ~ Y { [ ~ ..",
"X.o.W U U ~ r t r t U r w U r w Y ~ [ Y G r r G G w W t ! [ U [ ! 7 7 r ~ G ~ Y [ [ [ { [ [ [ X.W ~ { G g d @.@.Y G ! U Y r ..~ ",
"G [ [ ! G 7 r t r 7 w t r U t % G r G U G 7 G ! ! ~ w t [ ~ ~ ..[ ! [ ~ ~ { W { Y W ~ ..! r r r [ ~ [ ~   O     U t { ! G U { X.",
"G W U U Y Y t t r w U t U U t t G t ! [ w 7 r U w w w ! U [ ~ [ ~ ! ! ~ [ ~ t { [ ! { [ Y [ U ..W ~ ~ U +.@.s @.r ! U W [ U { { ",
"U W ! ! Y [ r t t 7 E w t U U t ! ! [ ..U U ! [ ! ! G ] } [ Z Z [ ~ t G r U t 7 U G ! [ ~ ! [ { ~ X.[ {   .     ~ ~ U W ~ ! X.{ ",
"Y ~ U U W ! t r r t t + 7 w t = ! [ [ [ U G U t G t ~ *.M g p x [ U G U W t t t G U ! [ ! Y W { ~ { [ W %.f f F t [ ..~ Y G [ [ ",
"{ G Y G Y [ r = r = r = @ 3 w = ! Y X.W ! U G ! W U ~ ~ { [ [ [ { [ ! U W ! G Y U U X.U ~ G ~ ..~ ..{ ~         ! [ ! ..G w ! ~ ",
"=   X                                               & %       * =     .                                       . .   o     X     ",
"/ 6 w 7 ! t 7 G w w 6 t ! ~ Y U G [ { ~ ! t U ! t t $.U ~ ~ W [ ~ ! 7 ! r G G w [ ~ ..Y Y ~ G { / [ [ [ U U U [ Y ~ @ w 6 G r l ",
"N r U r [ Y t U U r G G w G t U G W  .7 r 7 w t 4 r k r t G A t G t G { ! W ! 7 ! @ % = % % = { &.U [ ! ! Y ! ..[ { = r 7 U w b ",
"2 t W 6 Y G w G t w 7 = U w r G = ~ + - @ X @ + + + + + X & + + % % G t Y Y ~ w G 6 @ @ @ % 7 [ / a., 0 7 r t { 7 [ 4 r 7 U r c ",
"w 7 r 7 U 7 w G G { w = G w = 7 @ ! U ~ U w U ~ r t ` 1 ~ W W t U 7 r r ~ W Y w G 6 t t t 7 6 ! &.U #   z 7 ..G = ! = 6 7 t 7 I ",
"v w r 6 W w 7 G U 4 w 7 t r 6 4 1 W U ~ U r W E H G P 4 ~ t t w ! 7 w r Y U ! t r 4 r t W 7 4 ~ N e t 2.: ~ r { % ~ * 7 7 w 7 ` ",
"K w G 6 G r w G w 6 t r Z = G 7 w Y ! ~ G r W U U t K 4 ! ! G U U 6 r 7 G G U G G 4 7 G ~ 6 4 ! ` 7 7 b ` O 0 6 [ Y + 7 w U r P ",
"H w G 6 U w G U r = Y G r U t 6 7 Y ! [ U w U ~ G U K 6 W W U r ! 7 t 6 U U G t G 1 r G W r 4 ~ ` w q 7 U $.2 r G U * 6 w G t U ",
"T w U 6 G U G t G U U 4 z t G 6 7 Y ] [ U r Y U G ! T 7 7 ~ r G ! 6 t 7 G G Y t t 6 G G U = = ~ ` 7 t 7 4 D 3.9 U U = 6 7 w 7 ] ",
"T t t 7 U U t [ r 7 r = 3 t G = t W ~ [ r r U ! G W T 1 4 w r G ! w r w W G U r r 7 t t U 6 = G K 6 r / 4 4 Y C U ~ % 7 7 ! r r ",
"w r 7 6 U U r [ t 7 q 4 6 G G 1 w G W [ ! r U Y t U T 7 % r t t ~ w w 7 G U U t r 6 r U W w 4 ) R 7 r k c q e G ~ W @ 4 6 r t 7 ",
"r t r 6 G W t ! 7 % 6 U w G G r 7 G w r t w U ~ r U I 6 1   7 w ~ 7 w 7 t U ~ 4 t 4 G U W 4 ; ` T 7 7 k m G 5 5 U ~ = 7 7 ! w 7 ",
"t w G 6 G [ w r % 4 Y ! B G ~ 6 ~ U U [ U U U ! w U t 1 X     t ~ w 7 7 t U G 4 w = r G ~ 3 = b H 6 6 k m 6 U q 7 ! % 6 r t = 6 ",
"7 w G 4 U U w w 6 w [ U 7 G ~ r 7 U t r 7 6 t t r U C 1 K U Y G Y 7 w = w r G 6 r 4 t W U > 1 9 I 6 7 m J G U G 7 ~ * 7 7 G G 7 ",
"G t 7 7 U Y G 7 7 t ~ G 3 G U w W G W G ! 7 % 6 = 4 %   4 = = % 7 7 7 7 w G [ 7 G 6 r U ^ 2 = R 2 7 = k L U G U 4 [ = 6 7 W G 0 ",
"t r G 7 G G U 7 6 G W Y 4 G U w W t ~ Y r [ ..{ [ G t t t ! _ y x 4 r 7 G t [ w G = r [ G 1 2 ~ C = 7 k <.( U U 7 { % 7 7 W t w ",
"t w r 7 W t G 6 7 w U U = G U w G W ~ G = a.s.s.U t G t G t G j $.6 w w r t ~ = t = r Y U = = r t 6 7 k J t ~ t 7 { 4 6 w t r 7 ",
"t = 7 7 Y G G 6 6 4 a.o.= ~ G w ..G ..a.= r ~ W w ..{ { t t U n $.= w 7 r t G 4 t = w G t 6 = U w 6 7 c k U U G 6 W = 7 7 w w 7 ",
"t X X 6 U G G 7 6 4 6 s.s.~ Y k.k.s.a.k.s.G = 4 G s.s.= G G U m m 6 7 6 w w U 6 r % w U r 4 = U r 7 4 K H ^ R r w ..= 4 7 X X 7 ",
"r G 7 4 t t t 7 4 = 4 7 w ~ U U r 7 G G r t r 7 t r t = G U U m #.6 6 6 w r G w G = 7 G G 6 % W t 6 7 N b $.^ t 4 ~ 6 6 6 t ! 7 ",
"t t t 6 G r t 7 4 = 4 w r w r W t r ! U U % S t G W r = t G U j m 4 7 6 t w t 7 t = 7 U w 1 = t I 6 7 m k m K G = ! = 7 7 t G 6 ",
"t U t 6 G U r w 6 4 4 t w 7 w U       ~ Y ! ' ! t G U = G U t m $.7 7 7 t G t t U = % G r 6 = G K 7 6 $.m K Y U 0 W 7 7 6 U W t ",
"7 7 w 6 G r t 6 1 = 4 w r 7 V W O.7 4 ~ { G G U r t r % G r U k $.4 7 7 X X U r t = r G G 6 % t N % 4 m I U E 6 4 W = 7 4 t t 7 ",
"r r w 6 G U G w 6 t ..[ w U X U % 7 4 [ r X X X % G U = U t t k $.= 7 G 7 w r 7 G = t W G = = U c = 6 K I U C 7 w { 2 = 7 t Y r ",
"w 4 7 1 t ~ U t 7 U U G U G + U   6 = ! r 4 7 4 % U r 4 o...X.$.r.o.w r 7 7 w t G 4 a.o.X.[ 4 r N 4 o.e.y.h.{ o.w U % = w r 7 7 ",
"r X   6 G t G r @ X X X G U %.{ %.4 4 W r 6 U G = U W t [ ! G b 4.{ 7 t         G Y ~ U ~ r U ! K t o.4.Y [ a.[ Y ! % 6 r X X w ",
"t t W 7 ! Y ~ r w = 7 [ ~ ~ % ..% w = { w 7 t U = G W U ~ G Y m 4.[ t ~ @ W K U ~ Y [ ! [ G ~ ~ / U [ J G U [ ..t U + % t ! Y r ",
"G G U 6 [ t ! t 7 6 7 U U X.X.X.  * 6 ~ w 7 W [ = G ~ = @ @ & $ @ = w ! G Y K ! [ 4 X   X X = ~ ` 6 X X X X . X 6 [ % 6 r ~ W r ",
"G Y r w ~ [ [ w 6 4 6 Y r       @ % 6 Y 7 w [ [ = W ~ 4 4 4 % > h 6 7 ..U ! P U ! 6 @ % 4 % = X.` 6 = 8 = 7 x 7 6 [ X 7 r ..! r ",
"G r U 7 [ ! ! w o.~ 6 [ t         + 4 t 7 6 Y { = ~ t = X.s.a.:.w.s.r [ U [ Y t Y 6 o.o.[ a.4 U 4.7 j.y.0.a.9.o.7 ..% 7 r U { 7 ",
"7 U U 7 ! Y U w X.[ ~ { w %.O.;.d r 4 G 7 4 G ~ 7 U G a.o.s.a.:.d.o.r ~       U G ....a.X.X...! 6.X.o.y.8.o.i.a.j.[ * 7 I ! U 7 ",
"U 6 = 7 ~ G Y [ ..{ ~ Y r 7 6 7 = r 7 G = 4 G U = G ! 7 G G W ` Y ~ ! ! 7 w 7 Y U j.s.j.s.k.j.U ] k.k.c.v.j.j.j.j.[ X w t 7 6 7 ",
"t     1 U r ..~ ! U t W { [ U { Y { [ w 4 4 r r 4 G Y G G t 6 J U Y W ~ t ! ! G G ! W Y t ~ r U ] ! [ q.` I 3.Y U ..= 7 I ;   4 ",
"G w w w a.a.[ U Y t r U ~ [ t ~ t Y ! G 6 = G U = r U r r G 7 $.G Y U Y r Y ! w t G ! U U G 4 t G W W ,.L w ) t t W o.X.v G U 7 ",
"G 7 U 7 ~ [ ~ t w 4 w t [ @ r r 4 w t G % = G ~ % r U r G t 7 N Y W U ~ U U Y 7 5 7 7 r 7 r 6 r G t U $.L G ^ t G Q U ! r Y W 7 ",
"t G G 6 ~ ~ [ t ~ % w W ~ 4 t W G W = U = = G W % r G t G G 7 U Y U ! U Y U U r G w G ! U U G 7 w 7 6 9 1 * i = 4 ! U ~ r ! ! 7 ",
"r 7 t r ~ ! ~ G ~ W ! r G G 4 Y t w 6 U = % 7 r % U G G r G G t Y U U ~ ! U ~ U G X @ . + +   ~ G U ! 1.P T ] ! [ W G ! 0 ! U w ",
"t w U 7 ! U ~ ! ! G U 7 ! ~ 6 U t w 6 W 4 = U U % r Y + @ @ @ @ @ + r Y ! U Y U t % % % @ @ % W r                   W t w W U 7 ",
"r 7 6 7 ! ~ [ Y U t r w ~ = w G G G = ~ w = w G = G Y = @ @ @ @ + 7 r G U G U t G 6 @ @ @ + 4 U G w   @ N ` + + ` G r W r 7 = 1 ",
"r 7 w 6 ~ [ Y t W 7 U t G t = U G w = G 7 6 U [ % G G = t t r 8 U 6 @ @ @ @ @ @ @ = 7 r 6 7 = G t 7 + M.g.7 4 n.n.G t ~ w G r 6 ",
"w w r 7 Y U ! Y Y t r G ! 6 G U G G 6 U w % 5 z = r W = w 7 M c t & @ @ @ X + @ + @ = G 7 7 = U w 6 9.n.= 4 n.n.x.t G ! w W G 7 ",
"t 7 4 = ! U ~ W U 6 G U 7 = 4 7 t 7 4 U 7 4 ~ W % t t = U 6 E 6 w ~ r r G r U r E 6 r 6 U 6 * U G 7 R q = Y | ] 6 G G ! r w 7 w ",
"t 6 4 t ~ G [ Y Y 7 U @ 6 7 w t 6 G t G 7 4 U Y % r t = U G U v j Y E G W t t U n 8 G Y ~ 6 = r G 7 t G r t ! U [ G U G 7 7 7 w ",
"r 1 7 t G U { U ! 7 G G 7 t =   t U ~ G 4 =.-.>.% r t = t t R t / t ` r U 7 ~ W ` 7 U r ! 7 @ t G 7 G U U U ! U Y + G U U t 6 7 ",
"w 4 4 t   r t   G t U t U U G t U G Y G 4 % 7 Y % = t % G G t w R 7 H G 7 % r 7 I < w t U U @ G G 7 t U U t ~ t r = G   w w 7 t ",
"r 7 4 r %.%.%.r !   G + w N 4 U G t U r 7 ..G G @ 7 t % G G w r w 6 b G w w r w t % t ~ { ..j.U G 6 t W G U Y G W %.%.%.G 7 7 r ",
"w 4 = t =     w G r t 4 w / = Y r w ! t 7 X.X.a.@ 4 t % Y r 7 r 7 w 0 G r r t r r ~ X...l.U w G t = G G W W W ! t     r U 7 7 r ",
"r 6 6 t U G W W W 7 G = w v = G r 7 U U ! k.j.o.4 = G % o.o.a.a.a.o.f.o.X.o.o.a.[ a.z.~ E G v Y t = Y 7 t 7 7 w Y W U Y W t 7 7 ",
"w r   G U U { U U w t 4 r m = W t U G Y t t G X.k.= r s.j.s.j.k.k.s.k.k.s.j.s.k.k.~ Y K j L v U Y 7 Y U ! ! [ Y W ~ U { #   ..r ",
"W U t 6 = = 6 = 5 = % % = 4 6 4 % = 4 = = % = = % % @ % 4 = = % 6 = 0 1 % % = = 1 * = = % % X = = 6 7 7 % = 4 = 7 = = 7 G ~ { w ",
"  j.j.k.k.j.j.j.j.j.j.j.k.t.k.k.k.k.k.k.j.k.k.k.j.k.k.k.j.k.k.k.j.k.k.s.k.j.k.k.j.j.k.l.j.j.j.k.k.k.k.p.v.k.k.s.k.k.j.k.k.k.k.  ",
"U !         7 G U U G W t ^ U W ! U U ! W U U G U G U t G t U G t G Y G G G G U U t W U r r r t G U ! U v t ! W ! t         r U ",
"U ~ U ! G ! 7 w ) ` + + = ` ` + + 4.` z . @ ` [ U U G U W G U G W r ~ G W t U U { 7.5.% % E 9.= = % G | + + _ 7.R ~ t G ! w r U ",
"~ ~ @ G @ W r ! X.1 = r N.N.4 6 j.M.{ % % N.b.! W w t w r 6 t 7 G 1 r 7 r 7 r U W { 7 % a.v.r w 6 N.k.4 @ v.M.u.! U U @ 1 % r U ",
"U [ a U a U w ! G G = m.M.= 4 n.v.x.= = m.B.! W w .                           + U U { n.{ U = w N.m.5 = 6.M.a.! [ r U u g u t r ",
"t [ { ~ U { w + ! U U ! ! [ [ { ~ ~ ! ~ [ ~ ! G + w { ! G [ [ ~ { a.{ Y G ~ G   G W ~ X.[ ~ ! ~ ..X.{ ~ [ ~ ~ ~ X [ [ W { ! r r ",
"1 w 7 w r 5 6 G G U w t v U 7 w w * w 1 6 1 7 %   % = = = % @ % + + % * + % % % . = = 1 1 = = % w 1 w 1 3 1 4 w 7 w r G 7 w w w "
};
